G04 #@! TF.GenerationSoftware,KiCad,Pcbnew,(5.1.2)-1*
G04 #@! TF.CreationDate,2020-05-19T15:32:55-05:00*
G04 #@! TF.ProjectId,plaid_bottom,706c6169-645f-4626-9f74-746f6d2e6b69,rev?*
G04 #@! TF.SameCoordinates,PX2faf080PY2faf080*
G04 #@! TF.FileFunction,Copper,L1,Top*
G04 #@! TF.FilePolarity,Positive*
%FSLAX46Y46*%
G04 Gerber Fmt 4.6, Leading zero omitted, Abs format (unit mm)*
G04 Created by KiCad (PCBNEW (5.1.2)-1) date 2020-05-19 15:32:55*
%MOMM*%
%LPD*%
G04 APERTURE LIST*
%ADD10C,4.400000*%
%ADD11C,0.254000*%
G04 APERTURE END LIST*
D10*
X4000000Y-4000000D03*
X4000000Y-18000000D03*
X224000000Y-4000000D03*
X224000000Y-18000000D03*
X19000000Y-60000000D03*
X57000000Y-41000000D03*
X57000000Y-79000000D03*
X171000000Y-41000000D03*
X171000000Y-79000000D03*
X209000000Y-60000000D03*
D11*
G36*
X225847018Y-747430D02*
G01*
X226180819Y-848211D01*
X226488687Y-1011907D01*
X226758896Y-1232284D01*
X226981157Y-1500952D01*
X227146995Y-1807663D01*
X227250104Y-2140753D01*
X227290000Y-2520341D01*
X227290001Y-95465270D01*
X227252571Y-95847016D01*
X227151789Y-96180818D01*
X226988093Y-96488687D01*
X226767716Y-96758897D01*
X226499052Y-96981154D01*
X226192337Y-97146995D01*
X225859246Y-97250104D01*
X225479659Y-97290000D01*
X2534720Y-97290000D01*
X2152984Y-97252571D01*
X1819182Y-97151789D01*
X1511313Y-96988093D01*
X1241103Y-96767716D01*
X1018846Y-96499052D01*
X853005Y-96192337D01*
X749896Y-95859246D01*
X710000Y-95479659D01*
X710000Y-79015174D01*
X54151322Y-79015174D01*
X54165000Y-79146854D01*
X54165000Y-79279223D01*
X54193777Y-79423893D01*
X54209019Y-79570632D01*
X54248124Y-79697116D01*
X54273948Y-79826939D01*
X54330395Y-79963214D01*
X54373972Y-80104161D01*
X54439753Y-80227229D01*
X54487656Y-80342876D01*
X54557202Y-80446960D01*
X54622982Y-80570024D01*
X54651070Y-80587443D01*
X54797912Y-80807207D01*
X55192793Y-81202088D01*
X55412557Y-81348930D01*
X55429976Y-81377018D01*
X55547057Y-81438800D01*
X55657124Y-81512344D01*
X55793407Y-81568794D01*
X55923877Y-81637641D01*
X56050764Y-81675395D01*
X56173061Y-81726052D01*
X56317736Y-81754830D01*
X56459133Y-81796901D01*
X56590948Y-81809175D01*
X56720777Y-81835000D01*
X56868284Y-81835000D01*
X57015174Y-81848678D01*
X57146854Y-81835000D01*
X57279223Y-81835000D01*
X57423893Y-81806223D01*
X57570632Y-81790981D01*
X57697116Y-81751876D01*
X57826939Y-81726052D01*
X57963214Y-81669605D01*
X58104161Y-81626028D01*
X58227229Y-81560247D01*
X58342876Y-81512344D01*
X58446960Y-81442798D01*
X58570024Y-81377018D01*
X58587443Y-81348930D01*
X58807207Y-81202088D01*
X59202088Y-80807207D01*
X59348930Y-80587443D01*
X59377018Y-80570024D01*
X59438800Y-80452943D01*
X59512344Y-80342876D01*
X59568794Y-80206593D01*
X59637641Y-80076123D01*
X59675395Y-79949236D01*
X59726052Y-79826939D01*
X59754830Y-79682264D01*
X59796901Y-79540867D01*
X59809175Y-79409052D01*
X59835000Y-79279223D01*
X59835000Y-79131716D01*
X59845852Y-79015174D01*
X168151322Y-79015174D01*
X168165000Y-79146854D01*
X168165000Y-79279223D01*
X168193777Y-79423893D01*
X168209019Y-79570632D01*
X168248124Y-79697116D01*
X168273948Y-79826939D01*
X168330395Y-79963214D01*
X168373972Y-80104161D01*
X168439753Y-80227229D01*
X168487656Y-80342876D01*
X168557202Y-80446960D01*
X168622982Y-80570024D01*
X168651070Y-80587443D01*
X168797912Y-80807207D01*
X169192793Y-81202088D01*
X169412557Y-81348930D01*
X169429976Y-81377018D01*
X169547057Y-81438800D01*
X169657124Y-81512344D01*
X169793407Y-81568794D01*
X169923877Y-81637641D01*
X170050764Y-81675395D01*
X170173061Y-81726052D01*
X170317736Y-81754830D01*
X170459133Y-81796901D01*
X170590948Y-81809175D01*
X170720777Y-81835000D01*
X170868284Y-81835000D01*
X171015174Y-81848678D01*
X171146854Y-81835000D01*
X171279223Y-81835000D01*
X171423893Y-81806223D01*
X171570632Y-81790981D01*
X171697116Y-81751876D01*
X171826939Y-81726052D01*
X171963214Y-81669605D01*
X172104161Y-81626028D01*
X172227229Y-81560247D01*
X172342876Y-81512344D01*
X172446960Y-81442798D01*
X172570024Y-81377018D01*
X172587443Y-81348930D01*
X172807207Y-81202088D01*
X173202088Y-80807207D01*
X173348930Y-80587443D01*
X173377018Y-80570024D01*
X173438800Y-80452943D01*
X173512344Y-80342876D01*
X173568794Y-80206593D01*
X173637641Y-80076123D01*
X173675395Y-79949236D01*
X173726052Y-79826939D01*
X173754830Y-79682264D01*
X173796901Y-79540867D01*
X173809175Y-79409052D01*
X173835000Y-79279223D01*
X173835000Y-79131716D01*
X173848678Y-78984826D01*
X173835000Y-78853146D01*
X173835000Y-78720777D01*
X173806223Y-78576107D01*
X173790981Y-78429368D01*
X173751876Y-78302884D01*
X173726052Y-78173061D01*
X173669605Y-78036786D01*
X173626028Y-77895839D01*
X173560247Y-77772771D01*
X173512344Y-77657124D01*
X173442798Y-77553040D01*
X173377018Y-77429976D01*
X173348930Y-77412557D01*
X173202088Y-77192793D01*
X172807207Y-76797912D01*
X172587443Y-76651070D01*
X172570024Y-76622982D01*
X172452943Y-76561200D01*
X172342876Y-76487656D01*
X172206593Y-76431206D01*
X172076123Y-76362359D01*
X171949236Y-76324605D01*
X171826939Y-76273948D01*
X171682264Y-76245170D01*
X171540867Y-76203099D01*
X171409052Y-76190825D01*
X171279223Y-76165000D01*
X171131716Y-76165000D01*
X170984826Y-76151322D01*
X170853146Y-76165000D01*
X170720777Y-76165000D01*
X170576107Y-76193777D01*
X170429368Y-76209019D01*
X170302884Y-76248124D01*
X170173061Y-76273948D01*
X170036786Y-76330395D01*
X169895839Y-76373972D01*
X169772771Y-76439753D01*
X169657124Y-76487656D01*
X169553040Y-76557202D01*
X169429976Y-76622982D01*
X169412557Y-76651070D01*
X169192793Y-76797912D01*
X168797912Y-77192793D01*
X168651070Y-77412557D01*
X168622982Y-77429976D01*
X168561200Y-77547057D01*
X168487656Y-77657124D01*
X168431206Y-77793407D01*
X168362359Y-77923877D01*
X168324605Y-78050764D01*
X168273948Y-78173061D01*
X168245170Y-78317736D01*
X168203099Y-78459133D01*
X168190825Y-78590948D01*
X168165000Y-78720777D01*
X168165000Y-78868284D01*
X168151322Y-79015174D01*
X59845852Y-79015174D01*
X59848678Y-78984826D01*
X59835000Y-78853146D01*
X59835000Y-78720777D01*
X59806223Y-78576107D01*
X59790981Y-78429368D01*
X59751876Y-78302884D01*
X59726052Y-78173061D01*
X59669605Y-78036786D01*
X59626028Y-77895839D01*
X59560247Y-77772771D01*
X59512344Y-77657124D01*
X59442798Y-77553040D01*
X59377018Y-77429976D01*
X59348930Y-77412557D01*
X59202088Y-77192793D01*
X58807207Y-76797912D01*
X58587443Y-76651070D01*
X58570024Y-76622982D01*
X58452943Y-76561200D01*
X58342876Y-76487656D01*
X58206593Y-76431206D01*
X58076123Y-76362359D01*
X57949236Y-76324605D01*
X57826939Y-76273948D01*
X57682264Y-76245170D01*
X57540867Y-76203099D01*
X57409052Y-76190825D01*
X57279223Y-76165000D01*
X57131716Y-76165000D01*
X56984826Y-76151322D01*
X56853146Y-76165000D01*
X56720777Y-76165000D01*
X56576107Y-76193777D01*
X56429368Y-76209019D01*
X56302884Y-76248124D01*
X56173061Y-76273948D01*
X56036786Y-76330395D01*
X55895839Y-76373972D01*
X55772771Y-76439753D01*
X55657124Y-76487656D01*
X55553040Y-76557202D01*
X55429976Y-76622982D01*
X55412557Y-76651070D01*
X55192793Y-76797912D01*
X54797912Y-77192793D01*
X54651070Y-77412557D01*
X54622982Y-77429976D01*
X54561200Y-77547057D01*
X54487656Y-77657124D01*
X54431206Y-77793407D01*
X54362359Y-77923877D01*
X54324605Y-78050764D01*
X54273948Y-78173061D01*
X54245170Y-78317736D01*
X54203099Y-78459133D01*
X54190825Y-78590948D01*
X54165000Y-78720777D01*
X54165000Y-78868284D01*
X54151322Y-79015174D01*
X710000Y-79015174D01*
X710000Y-60015174D01*
X16151322Y-60015174D01*
X16165000Y-60146854D01*
X16165000Y-60279223D01*
X16193777Y-60423893D01*
X16209019Y-60570632D01*
X16248124Y-60697116D01*
X16273948Y-60826939D01*
X16330395Y-60963214D01*
X16373972Y-61104161D01*
X16439753Y-61227229D01*
X16487656Y-61342876D01*
X16557202Y-61446960D01*
X16622982Y-61570024D01*
X16651070Y-61587443D01*
X16797912Y-61807207D01*
X17192793Y-62202088D01*
X17412557Y-62348930D01*
X17429976Y-62377018D01*
X17547057Y-62438800D01*
X17657124Y-62512344D01*
X17793407Y-62568794D01*
X17923877Y-62637641D01*
X18050764Y-62675395D01*
X18173061Y-62726052D01*
X18317736Y-62754830D01*
X18459133Y-62796901D01*
X18590948Y-62809175D01*
X18720777Y-62835000D01*
X18868284Y-62835000D01*
X19015174Y-62848678D01*
X19146854Y-62835000D01*
X19279223Y-62835000D01*
X19423893Y-62806223D01*
X19570632Y-62790981D01*
X19697116Y-62751876D01*
X19826939Y-62726052D01*
X19963214Y-62669605D01*
X20104161Y-62626028D01*
X20227229Y-62560247D01*
X20342876Y-62512344D01*
X20446960Y-62442798D01*
X20570024Y-62377018D01*
X20587443Y-62348930D01*
X20807207Y-62202088D01*
X21202088Y-61807207D01*
X21348930Y-61587443D01*
X21377018Y-61570024D01*
X21438800Y-61452943D01*
X21512344Y-61342876D01*
X21568794Y-61206593D01*
X21637641Y-61076123D01*
X21675395Y-60949236D01*
X21726052Y-60826939D01*
X21754830Y-60682264D01*
X21796901Y-60540867D01*
X21809175Y-60409052D01*
X21835000Y-60279223D01*
X21835000Y-60131716D01*
X21845852Y-60015174D01*
X206151322Y-60015174D01*
X206165000Y-60146854D01*
X206165000Y-60279223D01*
X206193777Y-60423893D01*
X206209019Y-60570632D01*
X206248124Y-60697116D01*
X206273948Y-60826939D01*
X206330395Y-60963214D01*
X206373972Y-61104161D01*
X206439753Y-61227229D01*
X206487656Y-61342876D01*
X206557202Y-61446960D01*
X206622982Y-61570024D01*
X206651070Y-61587443D01*
X206797912Y-61807207D01*
X207192793Y-62202088D01*
X207412557Y-62348930D01*
X207429976Y-62377018D01*
X207547057Y-62438800D01*
X207657124Y-62512344D01*
X207793407Y-62568794D01*
X207923877Y-62637641D01*
X208050764Y-62675395D01*
X208173061Y-62726052D01*
X208317736Y-62754830D01*
X208459133Y-62796901D01*
X208590948Y-62809175D01*
X208720777Y-62835000D01*
X208868284Y-62835000D01*
X209015174Y-62848678D01*
X209146854Y-62835000D01*
X209279223Y-62835000D01*
X209423893Y-62806223D01*
X209570632Y-62790981D01*
X209697116Y-62751876D01*
X209826939Y-62726052D01*
X209963214Y-62669605D01*
X210104161Y-62626028D01*
X210227229Y-62560247D01*
X210342876Y-62512344D01*
X210446960Y-62442798D01*
X210570024Y-62377018D01*
X210587443Y-62348930D01*
X210807207Y-62202088D01*
X211202088Y-61807207D01*
X211348930Y-61587443D01*
X211377018Y-61570024D01*
X211438800Y-61452943D01*
X211512344Y-61342876D01*
X211568794Y-61206593D01*
X211637641Y-61076123D01*
X211675395Y-60949236D01*
X211726052Y-60826939D01*
X211754830Y-60682264D01*
X211796901Y-60540867D01*
X211809175Y-60409052D01*
X211835000Y-60279223D01*
X211835000Y-60131716D01*
X211848678Y-59984826D01*
X211835000Y-59853146D01*
X211835000Y-59720777D01*
X211806223Y-59576107D01*
X211790981Y-59429368D01*
X211751876Y-59302884D01*
X211726052Y-59173061D01*
X211669605Y-59036786D01*
X211626028Y-58895839D01*
X211560247Y-58772771D01*
X211512344Y-58657124D01*
X211442798Y-58553040D01*
X211377018Y-58429976D01*
X211348930Y-58412557D01*
X211202088Y-58192793D01*
X210807207Y-57797912D01*
X210587443Y-57651070D01*
X210570024Y-57622982D01*
X210452943Y-57561200D01*
X210342876Y-57487656D01*
X210206593Y-57431206D01*
X210076123Y-57362359D01*
X209949236Y-57324605D01*
X209826939Y-57273948D01*
X209682264Y-57245170D01*
X209540867Y-57203099D01*
X209409052Y-57190825D01*
X209279223Y-57165000D01*
X209131716Y-57165000D01*
X208984826Y-57151322D01*
X208853146Y-57165000D01*
X208720777Y-57165000D01*
X208576107Y-57193777D01*
X208429368Y-57209019D01*
X208302884Y-57248124D01*
X208173061Y-57273948D01*
X208036786Y-57330395D01*
X207895839Y-57373972D01*
X207772771Y-57439753D01*
X207657124Y-57487656D01*
X207553040Y-57557202D01*
X207429976Y-57622982D01*
X207412557Y-57651070D01*
X207192793Y-57797912D01*
X206797912Y-58192793D01*
X206651070Y-58412557D01*
X206622982Y-58429976D01*
X206561200Y-58547057D01*
X206487656Y-58657124D01*
X206431206Y-58793407D01*
X206362359Y-58923877D01*
X206324605Y-59050764D01*
X206273948Y-59173061D01*
X206245170Y-59317736D01*
X206203099Y-59459133D01*
X206190825Y-59590948D01*
X206165000Y-59720777D01*
X206165000Y-59868284D01*
X206151322Y-60015174D01*
X21845852Y-60015174D01*
X21848678Y-59984826D01*
X21835000Y-59853146D01*
X21835000Y-59720777D01*
X21806223Y-59576107D01*
X21790981Y-59429368D01*
X21751876Y-59302884D01*
X21726052Y-59173061D01*
X21669605Y-59036786D01*
X21626028Y-58895839D01*
X21560247Y-58772771D01*
X21512344Y-58657124D01*
X21442798Y-58553040D01*
X21377018Y-58429976D01*
X21348930Y-58412557D01*
X21202088Y-58192793D01*
X20807207Y-57797912D01*
X20587443Y-57651070D01*
X20570024Y-57622982D01*
X20452943Y-57561200D01*
X20342876Y-57487656D01*
X20206593Y-57431206D01*
X20076123Y-57362359D01*
X19949236Y-57324605D01*
X19826939Y-57273948D01*
X19682264Y-57245170D01*
X19540867Y-57203099D01*
X19409052Y-57190825D01*
X19279223Y-57165000D01*
X19131716Y-57165000D01*
X18984826Y-57151322D01*
X18853146Y-57165000D01*
X18720777Y-57165000D01*
X18576107Y-57193777D01*
X18429368Y-57209019D01*
X18302884Y-57248124D01*
X18173061Y-57273948D01*
X18036786Y-57330395D01*
X17895839Y-57373972D01*
X17772771Y-57439753D01*
X17657124Y-57487656D01*
X17553040Y-57557202D01*
X17429976Y-57622982D01*
X17412557Y-57651070D01*
X17192793Y-57797912D01*
X16797912Y-58192793D01*
X16651070Y-58412557D01*
X16622982Y-58429976D01*
X16561200Y-58547057D01*
X16487656Y-58657124D01*
X16431206Y-58793407D01*
X16362359Y-58923877D01*
X16324605Y-59050764D01*
X16273948Y-59173061D01*
X16245170Y-59317736D01*
X16203099Y-59459133D01*
X16190825Y-59590948D01*
X16165000Y-59720777D01*
X16165000Y-59868284D01*
X16151322Y-60015174D01*
X710000Y-60015174D01*
X710000Y-41015174D01*
X54151322Y-41015174D01*
X54165000Y-41146854D01*
X54165000Y-41279223D01*
X54193777Y-41423893D01*
X54209019Y-41570632D01*
X54248124Y-41697116D01*
X54273948Y-41826939D01*
X54330395Y-41963214D01*
X54373972Y-42104161D01*
X54439753Y-42227229D01*
X54487656Y-42342876D01*
X54557202Y-42446960D01*
X54622982Y-42570024D01*
X54651070Y-42587443D01*
X54797912Y-42807207D01*
X55192793Y-43202088D01*
X55412557Y-43348930D01*
X55429976Y-43377018D01*
X55547057Y-43438800D01*
X55657124Y-43512344D01*
X55793407Y-43568794D01*
X55923877Y-43637641D01*
X56050764Y-43675395D01*
X56173061Y-43726052D01*
X56317736Y-43754830D01*
X56459133Y-43796901D01*
X56590948Y-43809175D01*
X56720777Y-43835000D01*
X56868284Y-43835000D01*
X57015174Y-43848678D01*
X57146854Y-43835000D01*
X57279223Y-43835000D01*
X57423893Y-43806223D01*
X57570632Y-43790981D01*
X57697116Y-43751876D01*
X57826939Y-43726052D01*
X57963214Y-43669605D01*
X58104161Y-43626028D01*
X58227229Y-43560247D01*
X58342876Y-43512344D01*
X58446960Y-43442798D01*
X58570024Y-43377018D01*
X58587443Y-43348930D01*
X58807207Y-43202088D01*
X59202088Y-42807207D01*
X59348930Y-42587443D01*
X59377018Y-42570024D01*
X59438800Y-42452943D01*
X59512344Y-42342876D01*
X59568794Y-42206593D01*
X59637641Y-42076123D01*
X59675395Y-41949236D01*
X59726052Y-41826939D01*
X59754830Y-41682264D01*
X59796901Y-41540867D01*
X59809175Y-41409052D01*
X59835000Y-41279223D01*
X59835000Y-41131716D01*
X59845852Y-41015174D01*
X168151322Y-41015174D01*
X168165000Y-41146854D01*
X168165000Y-41279223D01*
X168193777Y-41423893D01*
X168209019Y-41570632D01*
X168248124Y-41697116D01*
X168273948Y-41826939D01*
X168330395Y-41963214D01*
X168373972Y-42104161D01*
X168439753Y-42227229D01*
X168487656Y-42342876D01*
X168557202Y-42446960D01*
X168622982Y-42570024D01*
X168651070Y-42587443D01*
X168797912Y-42807207D01*
X169192793Y-43202088D01*
X169412557Y-43348930D01*
X169429976Y-43377018D01*
X169547057Y-43438800D01*
X169657124Y-43512344D01*
X169793407Y-43568794D01*
X169923877Y-43637641D01*
X170050764Y-43675395D01*
X170173061Y-43726052D01*
X170317736Y-43754830D01*
X170459133Y-43796901D01*
X170590948Y-43809175D01*
X170720777Y-43835000D01*
X170868284Y-43835000D01*
X171015174Y-43848678D01*
X171146854Y-43835000D01*
X171279223Y-43835000D01*
X171423893Y-43806223D01*
X171570632Y-43790981D01*
X171697116Y-43751876D01*
X171826939Y-43726052D01*
X171963214Y-43669605D01*
X172104161Y-43626028D01*
X172227229Y-43560247D01*
X172342876Y-43512344D01*
X172446960Y-43442798D01*
X172570024Y-43377018D01*
X172587443Y-43348930D01*
X172807207Y-43202088D01*
X173202088Y-42807207D01*
X173348930Y-42587443D01*
X173377018Y-42570024D01*
X173438800Y-42452943D01*
X173512344Y-42342876D01*
X173568794Y-42206593D01*
X173637641Y-42076123D01*
X173675395Y-41949236D01*
X173726052Y-41826939D01*
X173754830Y-41682264D01*
X173796901Y-41540867D01*
X173809175Y-41409052D01*
X173835000Y-41279223D01*
X173835000Y-41131716D01*
X173848678Y-40984826D01*
X173835000Y-40853146D01*
X173835000Y-40720777D01*
X173806223Y-40576107D01*
X173790981Y-40429368D01*
X173751876Y-40302884D01*
X173726052Y-40173061D01*
X173669605Y-40036786D01*
X173626028Y-39895839D01*
X173560247Y-39772771D01*
X173512344Y-39657124D01*
X173442798Y-39553040D01*
X173377018Y-39429976D01*
X173348930Y-39412557D01*
X173202088Y-39192793D01*
X172807207Y-38797912D01*
X172587443Y-38651070D01*
X172570024Y-38622982D01*
X172452943Y-38561200D01*
X172342876Y-38487656D01*
X172206593Y-38431206D01*
X172076123Y-38362359D01*
X171949236Y-38324605D01*
X171826939Y-38273948D01*
X171682264Y-38245170D01*
X171540867Y-38203099D01*
X171409052Y-38190825D01*
X171279223Y-38165000D01*
X171131716Y-38165000D01*
X170984826Y-38151322D01*
X170853146Y-38165000D01*
X170720777Y-38165000D01*
X170576107Y-38193777D01*
X170429368Y-38209019D01*
X170302884Y-38248124D01*
X170173061Y-38273948D01*
X170036786Y-38330395D01*
X169895839Y-38373972D01*
X169772771Y-38439753D01*
X169657124Y-38487656D01*
X169553040Y-38557202D01*
X169429976Y-38622982D01*
X169412557Y-38651070D01*
X169192793Y-38797912D01*
X168797912Y-39192793D01*
X168651070Y-39412557D01*
X168622982Y-39429976D01*
X168561200Y-39547057D01*
X168487656Y-39657124D01*
X168431206Y-39793407D01*
X168362359Y-39923877D01*
X168324605Y-40050764D01*
X168273948Y-40173061D01*
X168245170Y-40317736D01*
X168203099Y-40459133D01*
X168190825Y-40590948D01*
X168165000Y-40720777D01*
X168165000Y-40868284D01*
X168151322Y-41015174D01*
X59845852Y-41015174D01*
X59848678Y-40984826D01*
X59835000Y-40853146D01*
X59835000Y-40720777D01*
X59806223Y-40576107D01*
X59790981Y-40429368D01*
X59751876Y-40302884D01*
X59726052Y-40173061D01*
X59669605Y-40036786D01*
X59626028Y-39895839D01*
X59560247Y-39772771D01*
X59512344Y-39657124D01*
X59442798Y-39553040D01*
X59377018Y-39429976D01*
X59348930Y-39412557D01*
X59202088Y-39192793D01*
X58807207Y-38797912D01*
X58587443Y-38651070D01*
X58570024Y-38622982D01*
X58452943Y-38561200D01*
X58342876Y-38487656D01*
X58206593Y-38431206D01*
X58076123Y-38362359D01*
X57949236Y-38324605D01*
X57826939Y-38273948D01*
X57682264Y-38245170D01*
X57540867Y-38203099D01*
X57409052Y-38190825D01*
X57279223Y-38165000D01*
X57131716Y-38165000D01*
X56984826Y-38151322D01*
X56853146Y-38165000D01*
X56720777Y-38165000D01*
X56576107Y-38193777D01*
X56429368Y-38209019D01*
X56302884Y-38248124D01*
X56173061Y-38273948D01*
X56036786Y-38330395D01*
X55895839Y-38373972D01*
X55772771Y-38439753D01*
X55657124Y-38487656D01*
X55553040Y-38557202D01*
X55429976Y-38622982D01*
X55412557Y-38651070D01*
X55192793Y-38797912D01*
X54797912Y-39192793D01*
X54651070Y-39412557D01*
X54622982Y-39429976D01*
X54561200Y-39547057D01*
X54487656Y-39657124D01*
X54431206Y-39793407D01*
X54362359Y-39923877D01*
X54324605Y-40050764D01*
X54273948Y-40173061D01*
X54245170Y-40317736D01*
X54203099Y-40459133D01*
X54190825Y-40590948D01*
X54165000Y-40720777D01*
X54165000Y-40868284D01*
X54151322Y-41015174D01*
X710000Y-41015174D01*
X710000Y-18015174D01*
X1151322Y-18015174D01*
X1165000Y-18146854D01*
X1165000Y-18279223D01*
X1193777Y-18423893D01*
X1209019Y-18570632D01*
X1248124Y-18697116D01*
X1273948Y-18826939D01*
X1330395Y-18963214D01*
X1373972Y-19104161D01*
X1439753Y-19227229D01*
X1487656Y-19342876D01*
X1557202Y-19446960D01*
X1622982Y-19570024D01*
X1651070Y-19587443D01*
X1797912Y-19807207D01*
X2192793Y-20202088D01*
X2412557Y-20348930D01*
X2429976Y-20377018D01*
X2547057Y-20438800D01*
X2657124Y-20512344D01*
X2793407Y-20568794D01*
X2923877Y-20637641D01*
X3050764Y-20675395D01*
X3173061Y-20726052D01*
X3317736Y-20754830D01*
X3459133Y-20796901D01*
X3590948Y-20809175D01*
X3720777Y-20835000D01*
X3868284Y-20835000D01*
X4015174Y-20848678D01*
X4146854Y-20835000D01*
X4279223Y-20835000D01*
X4423893Y-20806223D01*
X4570632Y-20790981D01*
X4697116Y-20751876D01*
X4826939Y-20726052D01*
X4963214Y-20669605D01*
X5104161Y-20626028D01*
X5227229Y-20560247D01*
X5342876Y-20512344D01*
X5446960Y-20442798D01*
X5570024Y-20377018D01*
X5587443Y-20348930D01*
X5807207Y-20202088D01*
X6202088Y-19807207D01*
X6348930Y-19587443D01*
X6377018Y-19570024D01*
X6438800Y-19452943D01*
X6512344Y-19342876D01*
X6568794Y-19206593D01*
X6637641Y-19076123D01*
X6675395Y-18949236D01*
X6726052Y-18826939D01*
X6754830Y-18682264D01*
X6796901Y-18540867D01*
X6809175Y-18409052D01*
X6835000Y-18279223D01*
X6835000Y-18131716D01*
X6845852Y-18015174D01*
X221151322Y-18015174D01*
X221165000Y-18146854D01*
X221165000Y-18279223D01*
X221193777Y-18423893D01*
X221209019Y-18570632D01*
X221248124Y-18697116D01*
X221273948Y-18826939D01*
X221330395Y-18963214D01*
X221373972Y-19104161D01*
X221439753Y-19227229D01*
X221487656Y-19342876D01*
X221557202Y-19446960D01*
X221622982Y-19570024D01*
X221651070Y-19587443D01*
X221797912Y-19807207D01*
X222192793Y-20202088D01*
X222412557Y-20348930D01*
X222429976Y-20377018D01*
X222547057Y-20438800D01*
X222657124Y-20512344D01*
X222793407Y-20568794D01*
X222923877Y-20637641D01*
X223050764Y-20675395D01*
X223173061Y-20726052D01*
X223317736Y-20754830D01*
X223459133Y-20796901D01*
X223590948Y-20809175D01*
X223720777Y-20835000D01*
X223868284Y-20835000D01*
X224015174Y-20848678D01*
X224146854Y-20835000D01*
X224279223Y-20835000D01*
X224423893Y-20806223D01*
X224570632Y-20790981D01*
X224697116Y-20751876D01*
X224826939Y-20726052D01*
X224963214Y-20669605D01*
X225104161Y-20626028D01*
X225227229Y-20560247D01*
X225342876Y-20512344D01*
X225446960Y-20442798D01*
X225570024Y-20377018D01*
X225587443Y-20348930D01*
X225807207Y-20202088D01*
X226202088Y-19807207D01*
X226348930Y-19587443D01*
X226377018Y-19570024D01*
X226438800Y-19452943D01*
X226512344Y-19342876D01*
X226568794Y-19206593D01*
X226637641Y-19076123D01*
X226675395Y-18949236D01*
X226726052Y-18826939D01*
X226754830Y-18682264D01*
X226796901Y-18540867D01*
X226809175Y-18409052D01*
X226835000Y-18279223D01*
X226835000Y-18131716D01*
X226848678Y-17984826D01*
X226835000Y-17853146D01*
X226835000Y-17720777D01*
X226806223Y-17576107D01*
X226790981Y-17429368D01*
X226751876Y-17302884D01*
X226726052Y-17173061D01*
X226669605Y-17036786D01*
X226626028Y-16895839D01*
X226560247Y-16772771D01*
X226512344Y-16657124D01*
X226442798Y-16553040D01*
X226377018Y-16429976D01*
X226348930Y-16412557D01*
X226202088Y-16192793D01*
X225807207Y-15797912D01*
X225587443Y-15651070D01*
X225570024Y-15622982D01*
X225452943Y-15561200D01*
X225342876Y-15487656D01*
X225206593Y-15431206D01*
X225076123Y-15362359D01*
X224949236Y-15324605D01*
X224826939Y-15273948D01*
X224682264Y-15245170D01*
X224540867Y-15203099D01*
X224409052Y-15190825D01*
X224279223Y-15165000D01*
X224131716Y-15165000D01*
X223984826Y-15151322D01*
X223853146Y-15165000D01*
X223720777Y-15165000D01*
X223576107Y-15193777D01*
X223429368Y-15209019D01*
X223302884Y-15248124D01*
X223173061Y-15273948D01*
X223036786Y-15330395D01*
X222895839Y-15373972D01*
X222772771Y-15439753D01*
X222657124Y-15487656D01*
X222553040Y-15557202D01*
X222429976Y-15622982D01*
X222412557Y-15651070D01*
X222192793Y-15797912D01*
X221797912Y-16192793D01*
X221651070Y-16412557D01*
X221622982Y-16429976D01*
X221561200Y-16547057D01*
X221487656Y-16657124D01*
X221431206Y-16793407D01*
X221362359Y-16923877D01*
X221324605Y-17050764D01*
X221273948Y-17173061D01*
X221245170Y-17317736D01*
X221203099Y-17459133D01*
X221190825Y-17590948D01*
X221165000Y-17720777D01*
X221165000Y-17868284D01*
X221151322Y-18015174D01*
X6845852Y-18015174D01*
X6848678Y-17984826D01*
X6835000Y-17853146D01*
X6835000Y-17720777D01*
X6806223Y-17576107D01*
X6790981Y-17429368D01*
X6751876Y-17302884D01*
X6726052Y-17173061D01*
X6669605Y-17036786D01*
X6626028Y-16895839D01*
X6560247Y-16772771D01*
X6512344Y-16657124D01*
X6442798Y-16553040D01*
X6377018Y-16429976D01*
X6348930Y-16412557D01*
X6202088Y-16192793D01*
X5807207Y-15797912D01*
X5587443Y-15651070D01*
X5570024Y-15622982D01*
X5452943Y-15561200D01*
X5342876Y-15487656D01*
X5206593Y-15431206D01*
X5076123Y-15362359D01*
X4949236Y-15324605D01*
X4826939Y-15273948D01*
X4682264Y-15245170D01*
X4540867Y-15203099D01*
X4409052Y-15190825D01*
X4279223Y-15165000D01*
X4131716Y-15165000D01*
X3984826Y-15151322D01*
X3853146Y-15165000D01*
X3720777Y-15165000D01*
X3576107Y-15193777D01*
X3429368Y-15209019D01*
X3302884Y-15248124D01*
X3173061Y-15273948D01*
X3036786Y-15330395D01*
X2895839Y-15373972D01*
X2772771Y-15439753D01*
X2657124Y-15487656D01*
X2553040Y-15557202D01*
X2429976Y-15622982D01*
X2412557Y-15651070D01*
X2192793Y-15797912D01*
X1797912Y-16192793D01*
X1651070Y-16412557D01*
X1622982Y-16429976D01*
X1561200Y-16547057D01*
X1487656Y-16657124D01*
X1431206Y-16793407D01*
X1362359Y-16923877D01*
X1324605Y-17050764D01*
X1273948Y-17173061D01*
X1245170Y-17317736D01*
X1203099Y-17459133D01*
X1190825Y-17590948D01*
X1165000Y-17720777D01*
X1165000Y-17868284D01*
X1151322Y-18015174D01*
X710000Y-18015174D01*
X710000Y-4015174D01*
X1151322Y-4015174D01*
X1165000Y-4146854D01*
X1165000Y-4279223D01*
X1193777Y-4423893D01*
X1209019Y-4570632D01*
X1248124Y-4697116D01*
X1273948Y-4826939D01*
X1330395Y-4963214D01*
X1373972Y-5104161D01*
X1439753Y-5227229D01*
X1487656Y-5342876D01*
X1557202Y-5446960D01*
X1622982Y-5570024D01*
X1651070Y-5587443D01*
X1797912Y-5807207D01*
X2192793Y-6202088D01*
X2412557Y-6348930D01*
X2429976Y-6377018D01*
X2547057Y-6438800D01*
X2657124Y-6512344D01*
X2793407Y-6568794D01*
X2923877Y-6637641D01*
X3050764Y-6675395D01*
X3173061Y-6726052D01*
X3317736Y-6754830D01*
X3459133Y-6796901D01*
X3590948Y-6809175D01*
X3720777Y-6835000D01*
X3868284Y-6835000D01*
X4015174Y-6848678D01*
X4146854Y-6835000D01*
X4279223Y-6835000D01*
X4423893Y-6806223D01*
X4570632Y-6790981D01*
X4697116Y-6751876D01*
X4826939Y-6726052D01*
X4963214Y-6669605D01*
X5104161Y-6626028D01*
X5227229Y-6560247D01*
X5342876Y-6512344D01*
X5446960Y-6442798D01*
X5570024Y-6377018D01*
X5587443Y-6348930D01*
X5807207Y-6202088D01*
X6202088Y-5807207D01*
X6348930Y-5587443D01*
X6377018Y-5570024D01*
X6438800Y-5452943D01*
X6512344Y-5342876D01*
X6568794Y-5206593D01*
X6637641Y-5076123D01*
X6675395Y-4949236D01*
X6726052Y-4826939D01*
X6754830Y-4682264D01*
X6796901Y-4540867D01*
X6809175Y-4409052D01*
X6835000Y-4279223D01*
X6835000Y-4131716D01*
X6845852Y-4015174D01*
X221151322Y-4015174D01*
X221165000Y-4146854D01*
X221165000Y-4279223D01*
X221193777Y-4423893D01*
X221209019Y-4570632D01*
X221248124Y-4697116D01*
X221273948Y-4826939D01*
X221330395Y-4963214D01*
X221373972Y-5104161D01*
X221439753Y-5227229D01*
X221487656Y-5342876D01*
X221557202Y-5446960D01*
X221622982Y-5570024D01*
X221651070Y-5587443D01*
X221797912Y-5807207D01*
X222192793Y-6202088D01*
X222412557Y-6348930D01*
X222429976Y-6377018D01*
X222547057Y-6438800D01*
X222657124Y-6512344D01*
X222793407Y-6568794D01*
X222923877Y-6637641D01*
X223050764Y-6675395D01*
X223173061Y-6726052D01*
X223317736Y-6754830D01*
X223459133Y-6796901D01*
X223590948Y-6809175D01*
X223720777Y-6835000D01*
X223868284Y-6835000D01*
X224015174Y-6848678D01*
X224146854Y-6835000D01*
X224279223Y-6835000D01*
X224423893Y-6806223D01*
X224570632Y-6790981D01*
X224697116Y-6751876D01*
X224826939Y-6726052D01*
X224963214Y-6669605D01*
X225104161Y-6626028D01*
X225227229Y-6560247D01*
X225342876Y-6512344D01*
X225446960Y-6442798D01*
X225570024Y-6377018D01*
X225587443Y-6348930D01*
X225807207Y-6202088D01*
X226202088Y-5807207D01*
X226348930Y-5587443D01*
X226377018Y-5570024D01*
X226438800Y-5452943D01*
X226512344Y-5342876D01*
X226568794Y-5206593D01*
X226637641Y-5076123D01*
X226675395Y-4949236D01*
X226726052Y-4826939D01*
X226754830Y-4682264D01*
X226796901Y-4540867D01*
X226809175Y-4409052D01*
X226835000Y-4279223D01*
X226835000Y-4131716D01*
X226848678Y-3984826D01*
X226835000Y-3853146D01*
X226835000Y-3720777D01*
X226806223Y-3576107D01*
X226790981Y-3429368D01*
X226751876Y-3302884D01*
X226726052Y-3173061D01*
X226669605Y-3036786D01*
X226626028Y-2895839D01*
X226560247Y-2772771D01*
X226512344Y-2657124D01*
X226442798Y-2553040D01*
X226377018Y-2429976D01*
X226348930Y-2412557D01*
X226202088Y-2192793D01*
X225807207Y-1797912D01*
X225587443Y-1651070D01*
X225570024Y-1622982D01*
X225452943Y-1561200D01*
X225342876Y-1487656D01*
X225206593Y-1431206D01*
X225076123Y-1362359D01*
X224949236Y-1324605D01*
X224826939Y-1273948D01*
X224682264Y-1245170D01*
X224540867Y-1203099D01*
X224409052Y-1190825D01*
X224279223Y-1165000D01*
X224131716Y-1165000D01*
X223984826Y-1151322D01*
X223853146Y-1165000D01*
X223720777Y-1165000D01*
X223576107Y-1193777D01*
X223429368Y-1209019D01*
X223302884Y-1248124D01*
X223173061Y-1273948D01*
X223036786Y-1330395D01*
X222895839Y-1373972D01*
X222772771Y-1439753D01*
X222657124Y-1487656D01*
X222553040Y-1557202D01*
X222429976Y-1622982D01*
X222412557Y-1651070D01*
X222192793Y-1797912D01*
X221797912Y-2192793D01*
X221651070Y-2412557D01*
X221622982Y-2429976D01*
X221561200Y-2547057D01*
X221487656Y-2657124D01*
X221431206Y-2793407D01*
X221362359Y-2923877D01*
X221324605Y-3050764D01*
X221273948Y-3173061D01*
X221245170Y-3317736D01*
X221203099Y-3459133D01*
X221190825Y-3590948D01*
X221165000Y-3720777D01*
X221165000Y-3868284D01*
X221151322Y-4015174D01*
X6845852Y-4015174D01*
X6848678Y-3984826D01*
X6835000Y-3853146D01*
X6835000Y-3720777D01*
X6806223Y-3576107D01*
X6790981Y-3429368D01*
X6751876Y-3302884D01*
X6726052Y-3173061D01*
X6669605Y-3036786D01*
X6626028Y-2895839D01*
X6560247Y-2772771D01*
X6512344Y-2657124D01*
X6442798Y-2553040D01*
X6377018Y-2429976D01*
X6348930Y-2412557D01*
X6202088Y-2192793D01*
X5807207Y-1797912D01*
X5587443Y-1651070D01*
X5570024Y-1622982D01*
X5452943Y-1561200D01*
X5342876Y-1487656D01*
X5206593Y-1431206D01*
X5076123Y-1362359D01*
X4949236Y-1324605D01*
X4826939Y-1273948D01*
X4682264Y-1245170D01*
X4540867Y-1203099D01*
X4409052Y-1190825D01*
X4279223Y-1165000D01*
X4131716Y-1165000D01*
X3984826Y-1151322D01*
X3853146Y-1165000D01*
X3720777Y-1165000D01*
X3576107Y-1193777D01*
X3429368Y-1209019D01*
X3302884Y-1248124D01*
X3173061Y-1273948D01*
X3036786Y-1330395D01*
X2895839Y-1373972D01*
X2772771Y-1439753D01*
X2657124Y-1487656D01*
X2553040Y-1557202D01*
X2429976Y-1622982D01*
X2412557Y-1651070D01*
X2192793Y-1797912D01*
X1797912Y-2192793D01*
X1651070Y-2412557D01*
X1622982Y-2429976D01*
X1561200Y-2547057D01*
X1487656Y-2657124D01*
X1431206Y-2793407D01*
X1362359Y-2923877D01*
X1324605Y-3050764D01*
X1273948Y-3173061D01*
X1245170Y-3317736D01*
X1203099Y-3459133D01*
X1190825Y-3590948D01*
X1165000Y-3720777D01*
X1165000Y-3868284D01*
X1151322Y-4015174D01*
X710000Y-4015174D01*
X710000Y-2534721D01*
X747430Y-2152982D01*
X848211Y-1819181D01*
X1011907Y-1511313D01*
X1232284Y-1241104D01*
X1500952Y-1018843D01*
X1807663Y-853005D01*
X2140753Y-749896D01*
X2520341Y-710000D01*
X225465279Y-710000D01*
X225847018Y-747430D01*
X225847018Y-747430D01*
G37*
X225847018Y-747430D02*
X226180819Y-848211D01*
X226488687Y-1011907D01*
X226758896Y-1232284D01*
X226981157Y-1500952D01*
X227146995Y-1807663D01*
X227250104Y-2140753D01*
X227290000Y-2520341D01*
X227290001Y-95465270D01*
X227252571Y-95847016D01*
X227151789Y-96180818D01*
X226988093Y-96488687D01*
X226767716Y-96758897D01*
X226499052Y-96981154D01*
X226192337Y-97146995D01*
X225859246Y-97250104D01*
X225479659Y-97290000D01*
X2534720Y-97290000D01*
X2152984Y-97252571D01*
X1819182Y-97151789D01*
X1511313Y-96988093D01*
X1241103Y-96767716D01*
X1018846Y-96499052D01*
X853005Y-96192337D01*
X749896Y-95859246D01*
X710000Y-95479659D01*
X710000Y-79015174D01*
X54151322Y-79015174D01*
X54165000Y-79146854D01*
X54165000Y-79279223D01*
X54193777Y-79423893D01*
X54209019Y-79570632D01*
X54248124Y-79697116D01*
X54273948Y-79826939D01*
X54330395Y-79963214D01*
X54373972Y-80104161D01*
X54439753Y-80227229D01*
X54487656Y-80342876D01*
X54557202Y-80446960D01*
X54622982Y-80570024D01*
X54651070Y-80587443D01*
X54797912Y-80807207D01*
X55192793Y-81202088D01*
X55412557Y-81348930D01*
X55429976Y-81377018D01*
X55547057Y-81438800D01*
X55657124Y-81512344D01*
X55793407Y-81568794D01*
X55923877Y-81637641D01*
X56050764Y-81675395D01*
X56173061Y-81726052D01*
X56317736Y-81754830D01*
X56459133Y-81796901D01*
X56590948Y-81809175D01*
X56720777Y-81835000D01*
X56868284Y-81835000D01*
X57015174Y-81848678D01*
X57146854Y-81835000D01*
X57279223Y-81835000D01*
X57423893Y-81806223D01*
X57570632Y-81790981D01*
X57697116Y-81751876D01*
X57826939Y-81726052D01*
X57963214Y-81669605D01*
X58104161Y-81626028D01*
X58227229Y-81560247D01*
X58342876Y-81512344D01*
X58446960Y-81442798D01*
X58570024Y-81377018D01*
X58587443Y-81348930D01*
X58807207Y-81202088D01*
X59202088Y-80807207D01*
X59348930Y-80587443D01*
X59377018Y-80570024D01*
X59438800Y-80452943D01*
X59512344Y-80342876D01*
X59568794Y-80206593D01*
X59637641Y-80076123D01*
X59675395Y-79949236D01*
X59726052Y-79826939D01*
X59754830Y-79682264D01*
X59796901Y-79540867D01*
X59809175Y-79409052D01*
X59835000Y-79279223D01*
X59835000Y-79131716D01*
X59845852Y-79015174D01*
X168151322Y-79015174D01*
X168165000Y-79146854D01*
X168165000Y-79279223D01*
X168193777Y-79423893D01*
X168209019Y-79570632D01*
X168248124Y-79697116D01*
X168273948Y-79826939D01*
X168330395Y-79963214D01*
X168373972Y-80104161D01*
X168439753Y-80227229D01*
X168487656Y-80342876D01*
X168557202Y-80446960D01*
X168622982Y-80570024D01*
X168651070Y-80587443D01*
X168797912Y-80807207D01*
X169192793Y-81202088D01*
X169412557Y-81348930D01*
X169429976Y-81377018D01*
X169547057Y-81438800D01*
X169657124Y-81512344D01*
X169793407Y-81568794D01*
X169923877Y-81637641D01*
X170050764Y-81675395D01*
X170173061Y-81726052D01*
X170317736Y-81754830D01*
X170459133Y-81796901D01*
X170590948Y-81809175D01*
X170720777Y-81835000D01*
X170868284Y-81835000D01*
X171015174Y-81848678D01*
X171146854Y-81835000D01*
X171279223Y-81835000D01*
X171423893Y-81806223D01*
X171570632Y-81790981D01*
X171697116Y-81751876D01*
X171826939Y-81726052D01*
X171963214Y-81669605D01*
X172104161Y-81626028D01*
X172227229Y-81560247D01*
X172342876Y-81512344D01*
X172446960Y-81442798D01*
X172570024Y-81377018D01*
X172587443Y-81348930D01*
X172807207Y-81202088D01*
X173202088Y-80807207D01*
X173348930Y-80587443D01*
X173377018Y-80570024D01*
X173438800Y-80452943D01*
X173512344Y-80342876D01*
X173568794Y-80206593D01*
X173637641Y-80076123D01*
X173675395Y-79949236D01*
X173726052Y-79826939D01*
X173754830Y-79682264D01*
X173796901Y-79540867D01*
X173809175Y-79409052D01*
X173835000Y-79279223D01*
X173835000Y-79131716D01*
X173848678Y-78984826D01*
X173835000Y-78853146D01*
X173835000Y-78720777D01*
X173806223Y-78576107D01*
X173790981Y-78429368D01*
X173751876Y-78302884D01*
X173726052Y-78173061D01*
X173669605Y-78036786D01*
X173626028Y-77895839D01*
X173560247Y-77772771D01*
X173512344Y-77657124D01*
X173442798Y-77553040D01*
X173377018Y-77429976D01*
X173348930Y-77412557D01*
X173202088Y-77192793D01*
X172807207Y-76797912D01*
X172587443Y-76651070D01*
X172570024Y-76622982D01*
X172452943Y-76561200D01*
X172342876Y-76487656D01*
X172206593Y-76431206D01*
X172076123Y-76362359D01*
X171949236Y-76324605D01*
X171826939Y-76273948D01*
X171682264Y-76245170D01*
X171540867Y-76203099D01*
X171409052Y-76190825D01*
X171279223Y-76165000D01*
X171131716Y-76165000D01*
X170984826Y-76151322D01*
X170853146Y-76165000D01*
X170720777Y-76165000D01*
X170576107Y-76193777D01*
X170429368Y-76209019D01*
X170302884Y-76248124D01*
X170173061Y-76273948D01*
X170036786Y-76330395D01*
X169895839Y-76373972D01*
X169772771Y-76439753D01*
X169657124Y-76487656D01*
X169553040Y-76557202D01*
X169429976Y-76622982D01*
X169412557Y-76651070D01*
X169192793Y-76797912D01*
X168797912Y-77192793D01*
X168651070Y-77412557D01*
X168622982Y-77429976D01*
X168561200Y-77547057D01*
X168487656Y-77657124D01*
X168431206Y-77793407D01*
X168362359Y-77923877D01*
X168324605Y-78050764D01*
X168273948Y-78173061D01*
X168245170Y-78317736D01*
X168203099Y-78459133D01*
X168190825Y-78590948D01*
X168165000Y-78720777D01*
X168165000Y-78868284D01*
X168151322Y-79015174D01*
X59845852Y-79015174D01*
X59848678Y-78984826D01*
X59835000Y-78853146D01*
X59835000Y-78720777D01*
X59806223Y-78576107D01*
X59790981Y-78429368D01*
X59751876Y-78302884D01*
X59726052Y-78173061D01*
X59669605Y-78036786D01*
X59626028Y-77895839D01*
X59560247Y-77772771D01*
X59512344Y-77657124D01*
X59442798Y-77553040D01*
X59377018Y-77429976D01*
X59348930Y-77412557D01*
X59202088Y-77192793D01*
X58807207Y-76797912D01*
X58587443Y-76651070D01*
X58570024Y-76622982D01*
X58452943Y-76561200D01*
X58342876Y-76487656D01*
X58206593Y-76431206D01*
X58076123Y-76362359D01*
X57949236Y-76324605D01*
X57826939Y-76273948D01*
X57682264Y-76245170D01*
X57540867Y-76203099D01*
X57409052Y-76190825D01*
X57279223Y-76165000D01*
X57131716Y-76165000D01*
X56984826Y-76151322D01*
X56853146Y-76165000D01*
X56720777Y-76165000D01*
X56576107Y-76193777D01*
X56429368Y-76209019D01*
X56302884Y-76248124D01*
X56173061Y-76273948D01*
X56036786Y-76330395D01*
X55895839Y-76373972D01*
X55772771Y-76439753D01*
X55657124Y-76487656D01*
X55553040Y-76557202D01*
X55429976Y-76622982D01*
X55412557Y-76651070D01*
X55192793Y-76797912D01*
X54797912Y-77192793D01*
X54651070Y-77412557D01*
X54622982Y-77429976D01*
X54561200Y-77547057D01*
X54487656Y-77657124D01*
X54431206Y-77793407D01*
X54362359Y-77923877D01*
X54324605Y-78050764D01*
X54273948Y-78173061D01*
X54245170Y-78317736D01*
X54203099Y-78459133D01*
X54190825Y-78590948D01*
X54165000Y-78720777D01*
X54165000Y-78868284D01*
X54151322Y-79015174D01*
X710000Y-79015174D01*
X710000Y-60015174D01*
X16151322Y-60015174D01*
X16165000Y-60146854D01*
X16165000Y-60279223D01*
X16193777Y-60423893D01*
X16209019Y-60570632D01*
X16248124Y-60697116D01*
X16273948Y-60826939D01*
X16330395Y-60963214D01*
X16373972Y-61104161D01*
X16439753Y-61227229D01*
X16487656Y-61342876D01*
X16557202Y-61446960D01*
X16622982Y-61570024D01*
X16651070Y-61587443D01*
X16797912Y-61807207D01*
X17192793Y-62202088D01*
X17412557Y-62348930D01*
X17429976Y-62377018D01*
X17547057Y-62438800D01*
X17657124Y-62512344D01*
X17793407Y-62568794D01*
X17923877Y-62637641D01*
X18050764Y-62675395D01*
X18173061Y-62726052D01*
X18317736Y-62754830D01*
X18459133Y-62796901D01*
X18590948Y-62809175D01*
X18720777Y-62835000D01*
X18868284Y-62835000D01*
X19015174Y-62848678D01*
X19146854Y-62835000D01*
X19279223Y-62835000D01*
X19423893Y-62806223D01*
X19570632Y-62790981D01*
X19697116Y-62751876D01*
X19826939Y-62726052D01*
X19963214Y-62669605D01*
X20104161Y-62626028D01*
X20227229Y-62560247D01*
X20342876Y-62512344D01*
X20446960Y-62442798D01*
X20570024Y-62377018D01*
X20587443Y-62348930D01*
X20807207Y-62202088D01*
X21202088Y-61807207D01*
X21348930Y-61587443D01*
X21377018Y-61570024D01*
X21438800Y-61452943D01*
X21512344Y-61342876D01*
X21568794Y-61206593D01*
X21637641Y-61076123D01*
X21675395Y-60949236D01*
X21726052Y-60826939D01*
X21754830Y-60682264D01*
X21796901Y-60540867D01*
X21809175Y-60409052D01*
X21835000Y-60279223D01*
X21835000Y-60131716D01*
X21845852Y-60015174D01*
X206151322Y-60015174D01*
X206165000Y-60146854D01*
X206165000Y-60279223D01*
X206193777Y-60423893D01*
X206209019Y-60570632D01*
X206248124Y-60697116D01*
X206273948Y-60826939D01*
X206330395Y-60963214D01*
X206373972Y-61104161D01*
X206439753Y-61227229D01*
X206487656Y-61342876D01*
X206557202Y-61446960D01*
X206622982Y-61570024D01*
X206651070Y-61587443D01*
X206797912Y-61807207D01*
X207192793Y-62202088D01*
X207412557Y-62348930D01*
X207429976Y-62377018D01*
X207547057Y-62438800D01*
X207657124Y-62512344D01*
X207793407Y-62568794D01*
X207923877Y-62637641D01*
X208050764Y-62675395D01*
X208173061Y-62726052D01*
X208317736Y-62754830D01*
X208459133Y-62796901D01*
X208590948Y-62809175D01*
X208720777Y-62835000D01*
X208868284Y-62835000D01*
X209015174Y-62848678D01*
X209146854Y-62835000D01*
X209279223Y-62835000D01*
X209423893Y-62806223D01*
X209570632Y-62790981D01*
X209697116Y-62751876D01*
X209826939Y-62726052D01*
X209963214Y-62669605D01*
X210104161Y-62626028D01*
X210227229Y-62560247D01*
X210342876Y-62512344D01*
X210446960Y-62442798D01*
X210570024Y-62377018D01*
X210587443Y-62348930D01*
X210807207Y-62202088D01*
X211202088Y-61807207D01*
X211348930Y-61587443D01*
X211377018Y-61570024D01*
X211438800Y-61452943D01*
X211512344Y-61342876D01*
X211568794Y-61206593D01*
X211637641Y-61076123D01*
X211675395Y-60949236D01*
X211726052Y-60826939D01*
X211754830Y-60682264D01*
X211796901Y-60540867D01*
X211809175Y-60409052D01*
X211835000Y-60279223D01*
X211835000Y-60131716D01*
X211848678Y-59984826D01*
X211835000Y-59853146D01*
X211835000Y-59720777D01*
X211806223Y-59576107D01*
X211790981Y-59429368D01*
X211751876Y-59302884D01*
X211726052Y-59173061D01*
X211669605Y-59036786D01*
X211626028Y-58895839D01*
X211560247Y-58772771D01*
X211512344Y-58657124D01*
X211442798Y-58553040D01*
X211377018Y-58429976D01*
X211348930Y-58412557D01*
X211202088Y-58192793D01*
X210807207Y-57797912D01*
X210587443Y-57651070D01*
X210570024Y-57622982D01*
X210452943Y-57561200D01*
X210342876Y-57487656D01*
X210206593Y-57431206D01*
X210076123Y-57362359D01*
X209949236Y-57324605D01*
X209826939Y-57273948D01*
X209682264Y-57245170D01*
X209540867Y-57203099D01*
X209409052Y-57190825D01*
X209279223Y-57165000D01*
X209131716Y-57165000D01*
X208984826Y-57151322D01*
X208853146Y-57165000D01*
X208720777Y-57165000D01*
X208576107Y-57193777D01*
X208429368Y-57209019D01*
X208302884Y-57248124D01*
X208173061Y-57273948D01*
X208036786Y-57330395D01*
X207895839Y-57373972D01*
X207772771Y-57439753D01*
X207657124Y-57487656D01*
X207553040Y-57557202D01*
X207429976Y-57622982D01*
X207412557Y-57651070D01*
X207192793Y-57797912D01*
X206797912Y-58192793D01*
X206651070Y-58412557D01*
X206622982Y-58429976D01*
X206561200Y-58547057D01*
X206487656Y-58657124D01*
X206431206Y-58793407D01*
X206362359Y-58923877D01*
X206324605Y-59050764D01*
X206273948Y-59173061D01*
X206245170Y-59317736D01*
X206203099Y-59459133D01*
X206190825Y-59590948D01*
X206165000Y-59720777D01*
X206165000Y-59868284D01*
X206151322Y-60015174D01*
X21845852Y-60015174D01*
X21848678Y-59984826D01*
X21835000Y-59853146D01*
X21835000Y-59720777D01*
X21806223Y-59576107D01*
X21790981Y-59429368D01*
X21751876Y-59302884D01*
X21726052Y-59173061D01*
X21669605Y-59036786D01*
X21626028Y-58895839D01*
X21560247Y-58772771D01*
X21512344Y-58657124D01*
X21442798Y-58553040D01*
X21377018Y-58429976D01*
X21348930Y-58412557D01*
X21202088Y-58192793D01*
X20807207Y-57797912D01*
X20587443Y-57651070D01*
X20570024Y-57622982D01*
X20452943Y-57561200D01*
X20342876Y-57487656D01*
X20206593Y-57431206D01*
X20076123Y-57362359D01*
X19949236Y-57324605D01*
X19826939Y-57273948D01*
X19682264Y-57245170D01*
X19540867Y-57203099D01*
X19409052Y-57190825D01*
X19279223Y-57165000D01*
X19131716Y-57165000D01*
X18984826Y-57151322D01*
X18853146Y-57165000D01*
X18720777Y-57165000D01*
X18576107Y-57193777D01*
X18429368Y-57209019D01*
X18302884Y-57248124D01*
X18173061Y-57273948D01*
X18036786Y-57330395D01*
X17895839Y-57373972D01*
X17772771Y-57439753D01*
X17657124Y-57487656D01*
X17553040Y-57557202D01*
X17429976Y-57622982D01*
X17412557Y-57651070D01*
X17192793Y-57797912D01*
X16797912Y-58192793D01*
X16651070Y-58412557D01*
X16622982Y-58429976D01*
X16561200Y-58547057D01*
X16487656Y-58657124D01*
X16431206Y-58793407D01*
X16362359Y-58923877D01*
X16324605Y-59050764D01*
X16273948Y-59173061D01*
X16245170Y-59317736D01*
X16203099Y-59459133D01*
X16190825Y-59590948D01*
X16165000Y-59720777D01*
X16165000Y-59868284D01*
X16151322Y-60015174D01*
X710000Y-60015174D01*
X710000Y-41015174D01*
X54151322Y-41015174D01*
X54165000Y-41146854D01*
X54165000Y-41279223D01*
X54193777Y-41423893D01*
X54209019Y-41570632D01*
X54248124Y-41697116D01*
X54273948Y-41826939D01*
X54330395Y-41963214D01*
X54373972Y-42104161D01*
X54439753Y-42227229D01*
X54487656Y-42342876D01*
X54557202Y-42446960D01*
X54622982Y-42570024D01*
X54651070Y-42587443D01*
X54797912Y-42807207D01*
X55192793Y-43202088D01*
X55412557Y-43348930D01*
X55429976Y-43377018D01*
X55547057Y-43438800D01*
X55657124Y-43512344D01*
X55793407Y-43568794D01*
X55923877Y-43637641D01*
X56050764Y-43675395D01*
X56173061Y-43726052D01*
X56317736Y-43754830D01*
X56459133Y-43796901D01*
X56590948Y-43809175D01*
X56720777Y-43835000D01*
X56868284Y-43835000D01*
X57015174Y-43848678D01*
X57146854Y-43835000D01*
X57279223Y-43835000D01*
X57423893Y-43806223D01*
X57570632Y-43790981D01*
X57697116Y-43751876D01*
X57826939Y-43726052D01*
X57963214Y-43669605D01*
X58104161Y-43626028D01*
X58227229Y-43560247D01*
X58342876Y-43512344D01*
X58446960Y-43442798D01*
X58570024Y-43377018D01*
X58587443Y-43348930D01*
X58807207Y-43202088D01*
X59202088Y-42807207D01*
X59348930Y-42587443D01*
X59377018Y-42570024D01*
X59438800Y-42452943D01*
X59512344Y-42342876D01*
X59568794Y-42206593D01*
X59637641Y-42076123D01*
X59675395Y-41949236D01*
X59726052Y-41826939D01*
X59754830Y-41682264D01*
X59796901Y-41540867D01*
X59809175Y-41409052D01*
X59835000Y-41279223D01*
X59835000Y-41131716D01*
X59845852Y-41015174D01*
X168151322Y-41015174D01*
X168165000Y-41146854D01*
X168165000Y-41279223D01*
X168193777Y-41423893D01*
X168209019Y-41570632D01*
X168248124Y-41697116D01*
X168273948Y-41826939D01*
X168330395Y-41963214D01*
X168373972Y-42104161D01*
X168439753Y-42227229D01*
X168487656Y-42342876D01*
X168557202Y-42446960D01*
X168622982Y-42570024D01*
X168651070Y-42587443D01*
X168797912Y-42807207D01*
X169192793Y-43202088D01*
X169412557Y-43348930D01*
X169429976Y-43377018D01*
X169547057Y-43438800D01*
X169657124Y-43512344D01*
X169793407Y-43568794D01*
X169923877Y-43637641D01*
X170050764Y-43675395D01*
X170173061Y-43726052D01*
X170317736Y-43754830D01*
X170459133Y-43796901D01*
X170590948Y-43809175D01*
X170720777Y-43835000D01*
X170868284Y-43835000D01*
X171015174Y-43848678D01*
X171146854Y-43835000D01*
X171279223Y-43835000D01*
X171423893Y-43806223D01*
X171570632Y-43790981D01*
X171697116Y-43751876D01*
X171826939Y-43726052D01*
X171963214Y-43669605D01*
X172104161Y-43626028D01*
X172227229Y-43560247D01*
X172342876Y-43512344D01*
X172446960Y-43442798D01*
X172570024Y-43377018D01*
X172587443Y-43348930D01*
X172807207Y-43202088D01*
X173202088Y-42807207D01*
X173348930Y-42587443D01*
X173377018Y-42570024D01*
X173438800Y-42452943D01*
X173512344Y-42342876D01*
X173568794Y-42206593D01*
X173637641Y-42076123D01*
X173675395Y-41949236D01*
X173726052Y-41826939D01*
X173754830Y-41682264D01*
X173796901Y-41540867D01*
X173809175Y-41409052D01*
X173835000Y-41279223D01*
X173835000Y-41131716D01*
X173848678Y-40984826D01*
X173835000Y-40853146D01*
X173835000Y-40720777D01*
X173806223Y-40576107D01*
X173790981Y-40429368D01*
X173751876Y-40302884D01*
X173726052Y-40173061D01*
X173669605Y-40036786D01*
X173626028Y-39895839D01*
X173560247Y-39772771D01*
X173512344Y-39657124D01*
X173442798Y-39553040D01*
X173377018Y-39429976D01*
X173348930Y-39412557D01*
X173202088Y-39192793D01*
X172807207Y-38797912D01*
X172587443Y-38651070D01*
X172570024Y-38622982D01*
X172452943Y-38561200D01*
X172342876Y-38487656D01*
X172206593Y-38431206D01*
X172076123Y-38362359D01*
X171949236Y-38324605D01*
X171826939Y-38273948D01*
X171682264Y-38245170D01*
X171540867Y-38203099D01*
X171409052Y-38190825D01*
X171279223Y-38165000D01*
X171131716Y-38165000D01*
X170984826Y-38151322D01*
X170853146Y-38165000D01*
X170720777Y-38165000D01*
X170576107Y-38193777D01*
X170429368Y-38209019D01*
X170302884Y-38248124D01*
X170173061Y-38273948D01*
X170036786Y-38330395D01*
X169895839Y-38373972D01*
X169772771Y-38439753D01*
X169657124Y-38487656D01*
X169553040Y-38557202D01*
X169429976Y-38622982D01*
X169412557Y-38651070D01*
X169192793Y-38797912D01*
X168797912Y-39192793D01*
X168651070Y-39412557D01*
X168622982Y-39429976D01*
X168561200Y-39547057D01*
X168487656Y-39657124D01*
X168431206Y-39793407D01*
X168362359Y-39923877D01*
X168324605Y-40050764D01*
X168273948Y-40173061D01*
X168245170Y-40317736D01*
X168203099Y-40459133D01*
X168190825Y-40590948D01*
X168165000Y-40720777D01*
X168165000Y-40868284D01*
X168151322Y-41015174D01*
X59845852Y-41015174D01*
X59848678Y-40984826D01*
X59835000Y-40853146D01*
X59835000Y-40720777D01*
X59806223Y-40576107D01*
X59790981Y-40429368D01*
X59751876Y-40302884D01*
X59726052Y-40173061D01*
X59669605Y-40036786D01*
X59626028Y-39895839D01*
X59560247Y-39772771D01*
X59512344Y-39657124D01*
X59442798Y-39553040D01*
X59377018Y-39429976D01*
X59348930Y-39412557D01*
X59202088Y-39192793D01*
X58807207Y-38797912D01*
X58587443Y-38651070D01*
X58570024Y-38622982D01*
X58452943Y-38561200D01*
X58342876Y-38487656D01*
X58206593Y-38431206D01*
X58076123Y-38362359D01*
X57949236Y-38324605D01*
X57826939Y-38273948D01*
X57682264Y-38245170D01*
X57540867Y-38203099D01*
X57409052Y-38190825D01*
X57279223Y-38165000D01*
X57131716Y-38165000D01*
X56984826Y-38151322D01*
X56853146Y-38165000D01*
X56720777Y-38165000D01*
X56576107Y-38193777D01*
X56429368Y-38209019D01*
X56302884Y-38248124D01*
X56173061Y-38273948D01*
X56036786Y-38330395D01*
X55895839Y-38373972D01*
X55772771Y-38439753D01*
X55657124Y-38487656D01*
X55553040Y-38557202D01*
X55429976Y-38622982D01*
X55412557Y-38651070D01*
X55192793Y-38797912D01*
X54797912Y-39192793D01*
X54651070Y-39412557D01*
X54622982Y-39429976D01*
X54561200Y-39547057D01*
X54487656Y-39657124D01*
X54431206Y-39793407D01*
X54362359Y-39923877D01*
X54324605Y-40050764D01*
X54273948Y-40173061D01*
X54245170Y-40317736D01*
X54203099Y-40459133D01*
X54190825Y-40590948D01*
X54165000Y-40720777D01*
X54165000Y-40868284D01*
X54151322Y-41015174D01*
X710000Y-41015174D01*
X710000Y-18015174D01*
X1151322Y-18015174D01*
X1165000Y-18146854D01*
X1165000Y-18279223D01*
X1193777Y-18423893D01*
X1209019Y-18570632D01*
X1248124Y-18697116D01*
X1273948Y-18826939D01*
X1330395Y-18963214D01*
X1373972Y-19104161D01*
X1439753Y-19227229D01*
X1487656Y-19342876D01*
X1557202Y-19446960D01*
X1622982Y-19570024D01*
X1651070Y-19587443D01*
X1797912Y-19807207D01*
X2192793Y-20202088D01*
X2412557Y-20348930D01*
X2429976Y-20377018D01*
X2547057Y-20438800D01*
X2657124Y-20512344D01*
X2793407Y-20568794D01*
X2923877Y-20637641D01*
X3050764Y-20675395D01*
X3173061Y-20726052D01*
X3317736Y-20754830D01*
X3459133Y-20796901D01*
X3590948Y-20809175D01*
X3720777Y-20835000D01*
X3868284Y-20835000D01*
X4015174Y-20848678D01*
X4146854Y-20835000D01*
X4279223Y-20835000D01*
X4423893Y-20806223D01*
X4570632Y-20790981D01*
X4697116Y-20751876D01*
X4826939Y-20726052D01*
X4963214Y-20669605D01*
X5104161Y-20626028D01*
X5227229Y-20560247D01*
X5342876Y-20512344D01*
X5446960Y-20442798D01*
X5570024Y-20377018D01*
X5587443Y-20348930D01*
X5807207Y-20202088D01*
X6202088Y-19807207D01*
X6348930Y-19587443D01*
X6377018Y-19570024D01*
X6438800Y-19452943D01*
X6512344Y-19342876D01*
X6568794Y-19206593D01*
X6637641Y-19076123D01*
X6675395Y-18949236D01*
X6726052Y-18826939D01*
X6754830Y-18682264D01*
X6796901Y-18540867D01*
X6809175Y-18409052D01*
X6835000Y-18279223D01*
X6835000Y-18131716D01*
X6845852Y-18015174D01*
X221151322Y-18015174D01*
X221165000Y-18146854D01*
X221165000Y-18279223D01*
X221193777Y-18423893D01*
X221209019Y-18570632D01*
X221248124Y-18697116D01*
X221273948Y-18826939D01*
X221330395Y-18963214D01*
X221373972Y-19104161D01*
X221439753Y-19227229D01*
X221487656Y-19342876D01*
X221557202Y-19446960D01*
X221622982Y-19570024D01*
X221651070Y-19587443D01*
X221797912Y-19807207D01*
X222192793Y-20202088D01*
X222412557Y-20348930D01*
X222429976Y-20377018D01*
X222547057Y-20438800D01*
X222657124Y-20512344D01*
X222793407Y-20568794D01*
X222923877Y-20637641D01*
X223050764Y-20675395D01*
X223173061Y-20726052D01*
X223317736Y-20754830D01*
X223459133Y-20796901D01*
X223590948Y-20809175D01*
X223720777Y-20835000D01*
X223868284Y-20835000D01*
X224015174Y-20848678D01*
X224146854Y-20835000D01*
X224279223Y-20835000D01*
X224423893Y-20806223D01*
X224570632Y-20790981D01*
X224697116Y-20751876D01*
X224826939Y-20726052D01*
X224963214Y-20669605D01*
X225104161Y-20626028D01*
X225227229Y-20560247D01*
X225342876Y-20512344D01*
X225446960Y-20442798D01*
X225570024Y-20377018D01*
X225587443Y-20348930D01*
X225807207Y-20202088D01*
X226202088Y-19807207D01*
X226348930Y-19587443D01*
X226377018Y-19570024D01*
X226438800Y-19452943D01*
X226512344Y-19342876D01*
X226568794Y-19206593D01*
X226637641Y-19076123D01*
X226675395Y-18949236D01*
X226726052Y-18826939D01*
X226754830Y-18682264D01*
X226796901Y-18540867D01*
X226809175Y-18409052D01*
X226835000Y-18279223D01*
X226835000Y-18131716D01*
X226848678Y-17984826D01*
X226835000Y-17853146D01*
X226835000Y-17720777D01*
X226806223Y-17576107D01*
X226790981Y-17429368D01*
X226751876Y-17302884D01*
X226726052Y-17173061D01*
X226669605Y-17036786D01*
X226626028Y-16895839D01*
X226560247Y-16772771D01*
X226512344Y-16657124D01*
X226442798Y-16553040D01*
X226377018Y-16429976D01*
X226348930Y-16412557D01*
X226202088Y-16192793D01*
X225807207Y-15797912D01*
X225587443Y-15651070D01*
X225570024Y-15622982D01*
X225452943Y-15561200D01*
X225342876Y-15487656D01*
X225206593Y-15431206D01*
X225076123Y-15362359D01*
X224949236Y-15324605D01*
X224826939Y-15273948D01*
X224682264Y-15245170D01*
X224540867Y-15203099D01*
X224409052Y-15190825D01*
X224279223Y-15165000D01*
X224131716Y-15165000D01*
X223984826Y-15151322D01*
X223853146Y-15165000D01*
X223720777Y-15165000D01*
X223576107Y-15193777D01*
X223429368Y-15209019D01*
X223302884Y-15248124D01*
X223173061Y-15273948D01*
X223036786Y-15330395D01*
X222895839Y-15373972D01*
X222772771Y-15439753D01*
X222657124Y-15487656D01*
X222553040Y-15557202D01*
X222429976Y-15622982D01*
X222412557Y-15651070D01*
X222192793Y-15797912D01*
X221797912Y-16192793D01*
X221651070Y-16412557D01*
X221622982Y-16429976D01*
X221561200Y-16547057D01*
X221487656Y-16657124D01*
X221431206Y-16793407D01*
X221362359Y-16923877D01*
X221324605Y-17050764D01*
X221273948Y-17173061D01*
X221245170Y-17317736D01*
X221203099Y-17459133D01*
X221190825Y-17590948D01*
X221165000Y-17720777D01*
X221165000Y-17868284D01*
X221151322Y-18015174D01*
X6845852Y-18015174D01*
X6848678Y-17984826D01*
X6835000Y-17853146D01*
X6835000Y-17720777D01*
X6806223Y-17576107D01*
X6790981Y-17429368D01*
X6751876Y-17302884D01*
X6726052Y-17173061D01*
X6669605Y-17036786D01*
X6626028Y-16895839D01*
X6560247Y-16772771D01*
X6512344Y-16657124D01*
X6442798Y-16553040D01*
X6377018Y-16429976D01*
X6348930Y-16412557D01*
X6202088Y-16192793D01*
X5807207Y-15797912D01*
X5587443Y-15651070D01*
X5570024Y-15622982D01*
X5452943Y-15561200D01*
X5342876Y-15487656D01*
X5206593Y-15431206D01*
X5076123Y-15362359D01*
X4949236Y-15324605D01*
X4826939Y-15273948D01*
X4682264Y-15245170D01*
X4540867Y-15203099D01*
X4409052Y-15190825D01*
X4279223Y-15165000D01*
X4131716Y-15165000D01*
X3984826Y-15151322D01*
X3853146Y-15165000D01*
X3720777Y-15165000D01*
X3576107Y-15193777D01*
X3429368Y-15209019D01*
X3302884Y-15248124D01*
X3173061Y-15273948D01*
X3036786Y-15330395D01*
X2895839Y-15373972D01*
X2772771Y-15439753D01*
X2657124Y-15487656D01*
X2553040Y-15557202D01*
X2429976Y-15622982D01*
X2412557Y-15651070D01*
X2192793Y-15797912D01*
X1797912Y-16192793D01*
X1651070Y-16412557D01*
X1622982Y-16429976D01*
X1561200Y-16547057D01*
X1487656Y-16657124D01*
X1431206Y-16793407D01*
X1362359Y-16923877D01*
X1324605Y-17050764D01*
X1273948Y-17173061D01*
X1245170Y-17317736D01*
X1203099Y-17459133D01*
X1190825Y-17590948D01*
X1165000Y-17720777D01*
X1165000Y-17868284D01*
X1151322Y-18015174D01*
X710000Y-18015174D01*
X710000Y-4015174D01*
X1151322Y-4015174D01*
X1165000Y-4146854D01*
X1165000Y-4279223D01*
X1193777Y-4423893D01*
X1209019Y-4570632D01*
X1248124Y-4697116D01*
X1273948Y-4826939D01*
X1330395Y-4963214D01*
X1373972Y-5104161D01*
X1439753Y-5227229D01*
X1487656Y-5342876D01*
X1557202Y-5446960D01*
X1622982Y-5570024D01*
X1651070Y-5587443D01*
X1797912Y-5807207D01*
X2192793Y-6202088D01*
X2412557Y-6348930D01*
X2429976Y-6377018D01*
X2547057Y-6438800D01*
X2657124Y-6512344D01*
X2793407Y-6568794D01*
X2923877Y-6637641D01*
X3050764Y-6675395D01*
X3173061Y-6726052D01*
X3317736Y-6754830D01*
X3459133Y-6796901D01*
X3590948Y-6809175D01*
X3720777Y-6835000D01*
X3868284Y-6835000D01*
X4015174Y-6848678D01*
X4146854Y-6835000D01*
X4279223Y-6835000D01*
X4423893Y-6806223D01*
X4570632Y-6790981D01*
X4697116Y-6751876D01*
X4826939Y-6726052D01*
X4963214Y-6669605D01*
X5104161Y-6626028D01*
X5227229Y-6560247D01*
X5342876Y-6512344D01*
X5446960Y-6442798D01*
X5570024Y-6377018D01*
X5587443Y-6348930D01*
X5807207Y-6202088D01*
X6202088Y-5807207D01*
X6348930Y-5587443D01*
X6377018Y-5570024D01*
X6438800Y-5452943D01*
X6512344Y-5342876D01*
X6568794Y-5206593D01*
X6637641Y-5076123D01*
X6675395Y-4949236D01*
X6726052Y-4826939D01*
X6754830Y-4682264D01*
X6796901Y-4540867D01*
X6809175Y-4409052D01*
X6835000Y-4279223D01*
X6835000Y-4131716D01*
X6845852Y-4015174D01*
X221151322Y-4015174D01*
X221165000Y-4146854D01*
X221165000Y-4279223D01*
X221193777Y-4423893D01*
X221209019Y-4570632D01*
X221248124Y-4697116D01*
X221273948Y-4826939D01*
X221330395Y-4963214D01*
X221373972Y-5104161D01*
X221439753Y-5227229D01*
X221487656Y-5342876D01*
X221557202Y-5446960D01*
X221622982Y-5570024D01*
X221651070Y-5587443D01*
X221797912Y-5807207D01*
X222192793Y-6202088D01*
X222412557Y-6348930D01*
X222429976Y-6377018D01*
X222547057Y-6438800D01*
X222657124Y-6512344D01*
X222793407Y-6568794D01*
X222923877Y-6637641D01*
X223050764Y-6675395D01*
X223173061Y-6726052D01*
X223317736Y-6754830D01*
X223459133Y-6796901D01*
X223590948Y-6809175D01*
X223720777Y-6835000D01*
X223868284Y-6835000D01*
X224015174Y-6848678D01*
X224146854Y-6835000D01*
X224279223Y-6835000D01*
X224423893Y-6806223D01*
X224570632Y-6790981D01*
X224697116Y-6751876D01*
X224826939Y-6726052D01*
X224963214Y-6669605D01*
X225104161Y-6626028D01*
X225227229Y-6560247D01*
X225342876Y-6512344D01*
X225446960Y-6442798D01*
X225570024Y-6377018D01*
X225587443Y-6348930D01*
X225807207Y-6202088D01*
X226202088Y-5807207D01*
X226348930Y-5587443D01*
X226377018Y-5570024D01*
X226438800Y-5452943D01*
X226512344Y-5342876D01*
X226568794Y-5206593D01*
X226637641Y-5076123D01*
X226675395Y-4949236D01*
X226726052Y-4826939D01*
X226754830Y-4682264D01*
X226796901Y-4540867D01*
X226809175Y-4409052D01*
X226835000Y-4279223D01*
X226835000Y-4131716D01*
X226848678Y-3984826D01*
X226835000Y-3853146D01*
X226835000Y-3720777D01*
X226806223Y-3576107D01*
X226790981Y-3429368D01*
X226751876Y-3302884D01*
X226726052Y-3173061D01*
X226669605Y-3036786D01*
X226626028Y-2895839D01*
X226560247Y-2772771D01*
X226512344Y-2657124D01*
X226442798Y-2553040D01*
X226377018Y-2429976D01*
X226348930Y-2412557D01*
X226202088Y-2192793D01*
X225807207Y-1797912D01*
X225587443Y-1651070D01*
X225570024Y-1622982D01*
X225452943Y-1561200D01*
X225342876Y-1487656D01*
X225206593Y-1431206D01*
X225076123Y-1362359D01*
X224949236Y-1324605D01*
X224826939Y-1273948D01*
X224682264Y-1245170D01*
X224540867Y-1203099D01*
X224409052Y-1190825D01*
X224279223Y-1165000D01*
X224131716Y-1165000D01*
X223984826Y-1151322D01*
X223853146Y-1165000D01*
X223720777Y-1165000D01*
X223576107Y-1193777D01*
X223429368Y-1209019D01*
X223302884Y-1248124D01*
X223173061Y-1273948D01*
X223036786Y-1330395D01*
X222895839Y-1373972D01*
X222772771Y-1439753D01*
X222657124Y-1487656D01*
X222553040Y-1557202D01*
X222429976Y-1622982D01*
X222412557Y-1651070D01*
X222192793Y-1797912D01*
X221797912Y-2192793D01*
X221651070Y-2412557D01*
X221622982Y-2429976D01*
X221561200Y-2547057D01*
X221487656Y-2657124D01*
X221431206Y-2793407D01*
X221362359Y-2923877D01*
X221324605Y-3050764D01*
X221273948Y-3173061D01*
X221245170Y-3317736D01*
X221203099Y-3459133D01*
X221190825Y-3590948D01*
X221165000Y-3720777D01*
X221165000Y-3868284D01*
X221151322Y-4015174D01*
X6845852Y-4015174D01*
X6848678Y-3984826D01*
X6835000Y-3853146D01*
X6835000Y-3720777D01*
X6806223Y-3576107D01*
X6790981Y-3429368D01*
X6751876Y-3302884D01*
X6726052Y-3173061D01*
X6669605Y-3036786D01*
X6626028Y-2895839D01*
X6560247Y-2772771D01*
X6512344Y-2657124D01*
X6442798Y-2553040D01*
X6377018Y-2429976D01*
X6348930Y-2412557D01*
X6202088Y-2192793D01*
X5807207Y-1797912D01*
X5587443Y-1651070D01*
X5570024Y-1622982D01*
X5452943Y-1561200D01*
X5342876Y-1487656D01*
X5206593Y-1431206D01*
X5076123Y-1362359D01*
X4949236Y-1324605D01*
X4826939Y-1273948D01*
X4682264Y-1245170D01*
X4540867Y-1203099D01*
X4409052Y-1190825D01*
X4279223Y-1165000D01*
X4131716Y-1165000D01*
X3984826Y-1151322D01*
X3853146Y-1165000D01*
X3720777Y-1165000D01*
X3576107Y-1193777D01*
X3429368Y-1209019D01*
X3302884Y-1248124D01*
X3173061Y-1273948D01*
X3036786Y-1330395D01*
X2895839Y-1373972D01*
X2772771Y-1439753D01*
X2657124Y-1487656D01*
X2553040Y-1557202D01*
X2429976Y-1622982D01*
X2412557Y-1651070D01*
X2192793Y-1797912D01*
X1797912Y-2192793D01*
X1651070Y-2412557D01*
X1622982Y-2429976D01*
X1561200Y-2547057D01*
X1487656Y-2657124D01*
X1431206Y-2793407D01*
X1362359Y-2923877D01*
X1324605Y-3050764D01*
X1273948Y-3173061D01*
X1245170Y-3317736D01*
X1203099Y-3459133D01*
X1190825Y-3590948D01*
X1165000Y-3720777D01*
X1165000Y-3868284D01*
X1151322Y-4015174D01*
X710000Y-4015174D01*
X710000Y-2534721D01*
X747430Y-2152982D01*
X848211Y-1819181D01*
X1011907Y-1511313D01*
X1232284Y-1241104D01*
X1500952Y-1018843D01*
X1807663Y-853005D01*
X2140753Y-749896D01*
X2520341Y-710000D01*
X225465279Y-710000D01*
X225847018Y-747430D01*
M02*
