G04 #@! TF.GenerationSoftware,KiCad,Pcbnew,(5.1.2)-1*
G04 #@! TF.CreationDate,2020-05-19T15:32:55-05:00*
G04 #@! TF.ProjectId,plaid_bottom,706c6169-645f-4626-9f74-746f6d2e6b69,rev?*
G04 #@! TF.SameCoordinates,PX2faf080PY2faf080*
G04 #@! TF.FileFunction,Legend,Top*
G04 #@! TF.FilePolarity,Positive*
%FSLAX46Y46*%
G04 Gerber Fmt 4.6, Leading zero omitted, Abs format (unit mm)*
G04 Created by KiCad (PCBNEW (5.1.2)-1) date 2020-05-19 15:32:55*
%MOMM*%
%LPD*%
G04 APERTURE LIST*
%ADD10C,0.010000*%
%ADD11C,4.800000*%
G04 APERTURE END LIST*
D10*
G36*
X191004333Y-43813333D02*
G01*
X190962000Y-43771000D01*
X191004333Y-43728667D01*
X191046666Y-43771000D01*
X191004333Y-43813333D01*
X191004333Y-43813333D01*
G37*
X191004333Y-43813333D02*
X190962000Y-43771000D01*
X191004333Y-43728667D01*
X191046666Y-43771000D01*
X191004333Y-43813333D01*
G36*
X189618850Y-48969745D02*
G01*
X189591890Y-49403833D01*
X189551996Y-49828952D01*
X189504954Y-50174786D01*
X189491256Y-50248000D01*
X189458613Y-50409980D01*
X189410471Y-50651804D01*
X189398223Y-50713667D01*
X189335471Y-50956050D01*
X189263672Y-51133235D01*
X189247260Y-51158167D01*
X189205950Y-51248888D01*
X189226333Y-51264000D01*
X189238041Y-51314671D01*
X189201567Y-51369833D01*
X189123295Y-51485911D01*
X189112485Y-51518000D01*
X189079137Y-51649122D01*
X189001527Y-51862192D01*
X188907433Y-52085915D01*
X188833297Y-52234565D01*
X188741464Y-52400526D01*
X188607115Y-52652204D01*
X188505921Y-52845541D01*
X188375882Y-53072342D01*
X188271097Y-53212371D01*
X188221587Y-53236698D01*
X188175002Y-53253663D01*
X188168000Y-53308382D01*
X188110703Y-53442306D01*
X187967862Y-53622543D01*
X187914000Y-53677000D01*
X187755100Y-53846495D01*
X187666570Y-53974441D01*
X187660000Y-53998342D01*
X187602124Y-54093136D01*
X187450694Y-54266854D01*
X187239005Y-54486245D01*
X187000352Y-54718060D01*
X186768029Y-54929049D01*
X186575334Y-55085962D01*
X186559261Y-55097587D01*
X186359963Y-55241221D01*
X186107602Y-55425346D01*
X186009000Y-55497836D01*
X185474682Y-55842186D01*
X184846168Y-56168139D01*
X184197490Y-56437993D01*
X184086038Y-56477109D01*
X183806258Y-56567787D01*
X183601780Y-56625516D01*
X183512428Y-56639189D01*
X183511333Y-56637385D01*
X183443337Y-56638803D01*
X183279712Y-56691485D01*
X183278500Y-56691952D01*
X182959055Y-56773413D01*
X182513998Y-56830788D01*
X181985313Y-56864196D01*
X181414983Y-56873755D01*
X180844990Y-56859584D01*
X180317318Y-56821801D01*
X179873950Y-56760527D01*
X179571172Y-56681465D01*
X179417985Y-56635020D01*
X179362666Y-56638673D01*
X179292249Y-56635055D01*
X179114714Y-56586275D01*
X178880638Y-56508868D01*
X178640597Y-56419370D01*
X178473666Y-56348031D01*
X178296117Y-56265098D01*
X178042901Y-56147232D01*
X177923333Y-56091679D01*
X177645469Y-55953622D01*
X177395449Y-55814778D01*
X177323005Y-55769556D01*
X177112841Y-55630119D01*
X176852820Y-55457245D01*
X176770064Y-55402154D01*
X176396371Y-55113529D01*
X175967022Y-54717706D01*
X175515826Y-54251260D01*
X175076591Y-53750764D01*
X174683122Y-53252792D01*
X174389995Y-52827338D01*
X174293371Y-52657576D01*
X174168027Y-52418127D01*
X174041488Y-52164178D01*
X173941277Y-51950918D01*
X173895345Y-51835500D01*
X173859333Y-51729667D01*
X173828377Y-51615268D01*
X173827583Y-51609722D01*
X173763447Y-51479364D01*
X173753500Y-51468611D01*
X173701861Y-51339964D01*
X173690000Y-51221666D01*
X173665399Y-51048162D01*
X173631105Y-50979327D01*
X173561330Y-50846649D01*
X173554498Y-50817049D01*
X173525454Y-50663378D01*
X173484529Y-50459667D01*
X173412294Y-50065473D01*
X173363970Y-49679795D01*
X173332958Y-49238273D01*
X173316873Y-48824637D01*
X173308424Y-48482508D01*
X173305475Y-48212221D01*
X173308265Y-48052600D01*
X173311959Y-48026329D01*
X173329134Y-47937306D01*
X173354805Y-47728293D01*
X173378400Y-47496333D01*
X173414198Y-47171797D01*
X173455570Y-46876954D01*
X173481449Y-46734333D01*
X173526901Y-46518864D01*
X173554498Y-46376950D01*
X173614814Y-46234055D01*
X173631105Y-46214673D01*
X173678075Y-46090969D01*
X173690000Y-45963219D01*
X173719548Y-45792273D01*
X173765287Y-45724130D01*
X173839645Y-45614653D01*
X173898476Y-45446904D01*
X173979105Y-45196038D01*
X174094299Y-44916925D01*
X174218789Y-44663290D01*
X174327306Y-44488857D01*
X174368491Y-44447617D01*
X174422103Y-44353284D01*
X174413044Y-44326798D01*
X174437005Y-44227410D01*
X174538663Y-44107860D01*
X174664212Y-43965647D01*
X174706000Y-43872491D01*
X174759348Y-43770304D01*
X174898268Y-43587993D01*
X175065833Y-43395007D01*
X175301612Y-43136230D01*
X175528534Y-42885718D01*
X175649508Y-42751227D01*
X175844285Y-42550014D01*
X176027498Y-42385685D01*
X176047937Y-42369839D01*
X176218283Y-42231807D01*
X176439146Y-42040612D01*
X176522595Y-41965619D01*
X176695324Y-41819492D01*
X176803792Y-41748991D01*
X176822666Y-41752787D01*
X176875780Y-41738649D01*
X177009388Y-41631965D01*
X177076666Y-41569667D01*
X177231337Y-41436324D01*
X177321349Y-41387439D01*
X177330666Y-41397615D01*
X177382626Y-41401862D01*
X177500000Y-41315667D01*
X177621853Y-41226469D01*
X177669333Y-41231000D01*
X177720525Y-41236414D01*
X177817500Y-41165489D01*
X177967921Y-41052993D01*
X178050333Y-41015223D01*
X178189094Y-40975843D01*
X178346666Y-40922011D01*
X178610994Y-40826431D01*
X178752357Y-40777529D01*
X178806620Y-40763276D01*
X178812333Y-40765820D01*
X178880996Y-40747759D01*
X179046218Y-40688314D01*
X179047378Y-40687873D01*
X179246592Y-40620484D01*
X179480691Y-40561595D01*
X179799629Y-40499804D01*
X180082333Y-40451653D01*
X180321942Y-40427787D01*
X180678770Y-40411280D01*
X181110360Y-40402067D01*
X181574256Y-40400084D01*
X182028002Y-40405267D01*
X182429142Y-40417554D01*
X182735219Y-40436880D01*
X182876333Y-40455844D01*
X183149505Y-40512705D01*
X183360955Y-40554543D01*
X183626297Y-40620889D01*
X183805455Y-40679826D01*
X183960988Y-40725585D01*
X184019333Y-40718730D01*
X184084465Y-40724128D01*
X184244171Y-40792866D01*
X184273333Y-40807667D01*
X184442404Y-40881086D01*
X184525554Y-40889710D01*
X184527333Y-40884140D01*
X184580218Y-40884617D01*
X184662874Y-40941755D01*
X184833514Y-41044687D01*
X184921292Y-41072279D01*
X185080048Y-41130084D01*
X185250522Y-41225522D01*
X185408382Y-41315343D01*
X185491216Y-41338199D01*
X185570865Y-41371664D01*
X185703778Y-41476955D01*
X185829885Y-41573144D01*
X185882000Y-41577457D01*
X185936315Y-41595039D01*
X186075887Y-41705261D01*
X186199500Y-41817600D01*
X186391723Y-41988853D01*
X186536623Y-42098201D01*
X186582392Y-42119265D01*
X186714803Y-42185101D01*
X186922445Y-42363348D01*
X187182921Y-42628064D01*
X187473836Y-42953304D01*
X187772793Y-43313123D01*
X188057395Y-43681577D01*
X188305247Y-44032721D01*
X188483315Y-44321333D01*
X188672093Y-44661245D01*
X188792635Y-44881204D01*
X188859748Y-45008831D01*
X188888236Y-45071747D01*
X188891761Y-45083333D01*
X188929587Y-45182658D01*
X189007639Y-45366080D01*
X189013604Y-45379667D01*
X189098967Y-45591382D01*
X189148021Y-45745454D01*
X189148155Y-45746112D01*
X189201318Y-45921446D01*
X189232532Y-46000112D01*
X189303987Y-46207427D01*
X189330371Y-46311000D01*
X189388750Y-46575449D01*
X189422690Y-46705558D01*
X189438000Y-46734333D01*
X189467688Y-46812491D01*
X189502953Y-47021457D01*
X189539911Y-47322972D01*
X189574677Y-47678774D01*
X189603368Y-48050604D01*
X189622100Y-48400202D01*
X189627091Y-48597000D01*
X189618850Y-48969745D01*
X189618850Y-48969745D01*
G37*
X189618850Y-48969745D02*
X189591890Y-49403833D01*
X189551996Y-49828952D01*
X189504954Y-50174786D01*
X189491256Y-50248000D01*
X189458613Y-50409980D01*
X189410471Y-50651804D01*
X189398223Y-50713667D01*
X189335471Y-50956050D01*
X189263672Y-51133235D01*
X189247260Y-51158167D01*
X189205950Y-51248888D01*
X189226333Y-51264000D01*
X189238041Y-51314671D01*
X189201567Y-51369833D01*
X189123295Y-51485911D01*
X189112485Y-51518000D01*
X189079137Y-51649122D01*
X189001527Y-51862192D01*
X188907433Y-52085915D01*
X188833297Y-52234565D01*
X188741464Y-52400526D01*
X188607115Y-52652204D01*
X188505921Y-52845541D01*
X188375882Y-53072342D01*
X188271097Y-53212371D01*
X188221587Y-53236698D01*
X188175002Y-53253663D01*
X188168000Y-53308382D01*
X188110703Y-53442306D01*
X187967862Y-53622543D01*
X187914000Y-53677000D01*
X187755100Y-53846495D01*
X187666570Y-53974441D01*
X187660000Y-53998342D01*
X187602124Y-54093136D01*
X187450694Y-54266854D01*
X187239005Y-54486245D01*
X187000352Y-54718060D01*
X186768029Y-54929049D01*
X186575334Y-55085962D01*
X186559261Y-55097587D01*
X186359963Y-55241221D01*
X186107602Y-55425346D01*
X186009000Y-55497836D01*
X185474682Y-55842186D01*
X184846168Y-56168139D01*
X184197490Y-56437993D01*
X184086038Y-56477109D01*
X183806258Y-56567787D01*
X183601780Y-56625516D01*
X183512428Y-56639189D01*
X183511333Y-56637385D01*
X183443337Y-56638803D01*
X183279712Y-56691485D01*
X183278500Y-56691952D01*
X182959055Y-56773413D01*
X182513998Y-56830788D01*
X181985313Y-56864196D01*
X181414983Y-56873755D01*
X180844990Y-56859584D01*
X180317318Y-56821801D01*
X179873950Y-56760527D01*
X179571172Y-56681465D01*
X179417985Y-56635020D01*
X179362666Y-56638673D01*
X179292249Y-56635055D01*
X179114714Y-56586275D01*
X178880638Y-56508868D01*
X178640597Y-56419370D01*
X178473666Y-56348031D01*
X178296117Y-56265098D01*
X178042901Y-56147232D01*
X177923333Y-56091679D01*
X177645469Y-55953622D01*
X177395449Y-55814778D01*
X177323005Y-55769556D01*
X177112841Y-55630119D01*
X176852820Y-55457245D01*
X176770064Y-55402154D01*
X176396371Y-55113529D01*
X175967022Y-54717706D01*
X175515826Y-54251260D01*
X175076591Y-53750764D01*
X174683122Y-53252792D01*
X174389995Y-52827338D01*
X174293371Y-52657576D01*
X174168027Y-52418127D01*
X174041488Y-52164178D01*
X173941277Y-51950918D01*
X173895345Y-51835500D01*
X173859333Y-51729667D01*
X173828377Y-51615268D01*
X173827583Y-51609722D01*
X173763447Y-51479364D01*
X173753500Y-51468611D01*
X173701861Y-51339964D01*
X173690000Y-51221666D01*
X173665399Y-51048162D01*
X173631105Y-50979327D01*
X173561330Y-50846649D01*
X173554498Y-50817049D01*
X173525454Y-50663378D01*
X173484529Y-50459667D01*
X173412294Y-50065473D01*
X173363970Y-49679795D01*
X173332958Y-49238273D01*
X173316873Y-48824637D01*
X173308424Y-48482508D01*
X173305475Y-48212221D01*
X173308265Y-48052600D01*
X173311959Y-48026329D01*
X173329134Y-47937306D01*
X173354805Y-47728293D01*
X173378400Y-47496333D01*
X173414198Y-47171797D01*
X173455570Y-46876954D01*
X173481449Y-46734333D01*
X173526901Y-46518864D01*
X173554498Y-46376950D01*
X173614814Y-46234055D01*
X173631105Y-46214673D01*
X173678075Y-46090969D01*
X173690000Y-45963219D01*
X173719548Y-45792273D01*
X173765287Y-45724130D01*
X173839645Y-45614653D01*
X173898476Y-45446904D01*
X173979105Y-45196038D01*
X174094299Y-44916925D01*
X174218789Y-44663290D01*
X174327306Y-44488857D01*
X174368491Y-44447617D01*
X174422103Y-44353284D01*
X174413044Y-44326798D01*
X174437005Y-44227410D01*
X174538663Y-44107860D01*
X174664212Y-43965647D01*
X174706000Y-43872491D01*
X174759348Y-43770304D01*
X174898268Y-43587993D01*
X175065833Y-43395007D01*
X175301612Y-43136230D01*
X175528534Y-42885718D01*
X175649508Y-42751227D01*
X175844285Y-42550014D01*
X176027498Y-42385685D01*
X176047937Y-42369839D01*
X176218283Y-42231807D01*
X176439146Y-42040612D01*
X176522595Y-41965619D01*
X176695324Y-41819492D01*
X176803792Y-41748991D01*
X176822666Y-41752787D01*
X176875780Y-41738649D01*
X177009388Y-41631965D01*
X177076666Y-41569667D01*
X177231337Y-41436324D01*
X177321349Y-41387439D01*
X177330666Y-41397615D01*
X177382626Y-41401862D01*
X177500000Y-41315667D01*
X177621853Y-41226469D01*
X177669333Y-41231000D01*
X177720525Y-41236414D01*
X177817500Y-41165489D01*
X177967921Y-41052993D01*
X178050333Y-41015223D01*
X178189094Y-40975843D01*
X178346666Y-40922011D01*
X178610994Y-40826431D01*
X178752357Y-40777529D01*
X178806620Y-40763276D01*
X178812333Y-40765820D01*
X178880996Y-40747759D01*
X179046218Y-40688314D01*
X179047378Y-40687873D01*
X179246592Y-40620484D01*
X179480691Y-40561595D01*
X179799629Y-40499804D01*
X180082333Y-40451653D01*
X180321942Y-40427787D01*
X180678770Y-40411280D01*
X181110360Y-40402067D01*
X181574256Y-40400084D01*
X182028002Y-40405267D01*
X182429142Y-40417554D01*
X182735219Y-40436880D01*
X182876333Y-40455844D01*
X183149505Y-40512705D01*
X183360955Y-40554543D01*
X183626297Y-40620889D01*
X183805455Y-40679826D01*
X183960988Y-40725585D01*
X184019333Y-40718730D01*
X184084465Y-40724128D01*
X184244171Y-40792866D01*
X184273333Y-40807667D01*
X184442404Y-40881086D01*
X184525554Y-40889710D01*
X184527333Y-40884140D01*
X184580218Y-40884617D01*
X184662874Y-40941755D01*
X184833514Y-41044687D01*
X184921292Y-41072279D01*
X185080048Y-41130084D01*
X185250522Y-41225522D01*
X185408382Y-41315343D01*
X185491216Y-41338199D01*
X185570865Y-41371664D01*
X185703778Y-41476955D01*
X185829885Y-41573144D01*
X185882000Y-41577457D01*
X185936315Y-41595039D01*
X186075887Y-41705261D01*
X186199500Y-41817600D01*
X186391723Y-41988853D01*
X186536623Y-42098201D01*
X186582392Y-42119265D01*
X186714803Y-42185101D01*
X186922445Y-42363348D01*
X187182921Y-42628064D01*
X187473836Y-42953304D01*
X187772793Y-43313123D01*
X188057395Y-43681577D01*
X188305247Y-44032721D01*
X188483315Y-44321333D01*
X188672093Y-44661245D01*
X188792635Y-44881204D01*
X188859748Y-45008831D01*
X188888236Y-45071747D01*
X188891761Y-45083333D01*
X188929587Y-45182658D01*
X189007639Y-45366080D01*
X189013604Y-45379667D01*
X189098967Y-45591382D01*
X189148021Y-45745454D01*
X189148155Y-45746112D01*
X189201318Y-45921446D01*
X189232532Y-46000112D01*
X189303987Y-46207427D01*
X189330371Y-46311000D01*
X189388750Y-46575449D01*
X189422690Y-46705558D01*
X189438000Y-46734333D01*
X189467688Y-46812491D01*
X189502953Y-47021457D01*
X189539911Y-47322972D01*
X189574677Y-47678774D01*
X189603368Y-48050604D01*
X189622100Y-48400202D01*
X189627091Y-48597000D01*
X189618850Y-48969745D01*
G36*
X104039034Y-49232574D02*
G01*
X104019703Y-49666011D01*
X103980914Y-50033669D01*
X103916761Y-50387238D01*
X103821338Y-50778410D01*
X103793299Y-50883000D01*
X103717979Y-51164011D01*
X103661350Y-51381486D01*
X103638526Y-51475667D01*
X103584370Y-51625761D01*
X103471257Y-51874152D01*
X103320907Y-52179018D01*
X103155040Y-52498534D01*
X102995377Y-52790877D01*
X102863638Y-53014225D01*
X102781544Y-53126754D01*
X102780670Y-53127493D01*
X102673898Y-53260465D01*
X102654063Y-53327533D01*
X102598228Y-53436372D01*
X102454985Y-53616108D01*
X102319550Y-53761667D01*
X102135724Y-53958525D01*
X102012674Y-54110184D01*
X101981487Y-54167682D01*
X101932602Y-54253484D01*
X101821262Y-54386142D01*
X101691743Y-54519573D01*
X101588320Y-54607693D01*
X101554000Y-54612627D01*
X101497840Y-54643819D01*
X101348945Y-54767579D01*
X101136688Y-54959158D01*
X101081215Y-55010945D01*
X100854532Y-55215832D01*
X100679683Y-55358801D01*
X100588015Y-55414621D01*
X100582104Y-55412667D01*
X100509276Y-55431304D01*
X100376972Y-55532150D01*
X100167430Y-55698021D01*
X100008250Y-55801965D01*
X99828748Y-55899420D01*
X99588612Y-56024269D01*
X99339214Y-56150536D01*
X99131924Y-56252245D01*
X99018114Y-56303419D01*
X99014000Y-56304717D01*
X98909302Y-56344956D01*
X98830112Y-56379000D01*
X98645346Y-56443416D01*
X98576112Y-56458735D01*
X98401803Y-56516577D01*
X98371875Y-56533199D01*
X98229385Y-56586864D01*
X98009989Y-56638184D01*
X97998000Y-56640333D01*
X97789946Y-56683723D01*
X97664234Y-56722253D01*
X97659815Y-56724702D01*
X97552313Y-56751563D01*
X97327055Y-56787480D01*
X97060023Y-56821424D01*
X96525669Y-56864208D01*
X95953087Y-56879241D01*
X95383082Y-56868298D01*
X94856461Y-56833154D01*
X94414028Y-56775582D01*
X94096588Y-56697357D01*
X94082166Y-56691952D01*
X93918156Y-56639373D01*
X93849337Y-56638471D01*
X93849333Y-56638673D01*
X93778594Y-56633593D01*
X93600311Y-56584868D01*
X93365389Y-56508587D01*
X93124733Y-56420839D01*
X93002666Y-56371067D01*
X92867285Y-56316841D01*
X92833333Y-56305766D01*
X92667114Y-56240693D01*
X92425626Y-56122156D01*
X92177293Y-55986274D01*
X91990541Y-55869165D01*
X91956611Y-55842972D01*
X91822238Y-55751380D01*
X91758551Y-55738861D01*
X91673995Y-55710372D01*
X91524388Y-55600671D01*
X91512796Y-55590695D01*
X91352538Y-55466580D01*
X91247280Y-55411871D01*
X91245189Y-55411754D01*
X91154784Y-55357083D01*
X90985231Y-55216422D01*
X90822500Y-55066721D01*
X90632158Y-54891526D01*
X90501726Y-54784544D01*
X90462666Y-54767452D01*
X90411049Y-54745105D01*
X90283628Y-54632729D01*
X90251000Y-54600636D01*
X90110237Y-54448528D01*
X90040859Y-54351306D01*
X90039333Y-54344437D01*
X89985028Y-54243810D01*
X89870575Y-54146765D01*
X89768662Y-54110682D01*
X89753079Y-54118476D01*
X89707487Y-54100402D01*
X89700666Y-54045618D01*
X89643369Y-53911694D01*
X89500528Y-53731456D01*
X89446666Y-53677000D01*
X89287119Y-53501632D01*
X89198853Y-53360876D01*
X89192666Y-53332860D01*
X89133620Y-53198576D01*
X89066663Y-53127493D01*
X88931605Y-52957999D01*
X88763582Y-52661604D01*
X88577724Y-52273767D01*
X88389157Y-51829947D01*
X88213012Y-51365603D01*
X88064415Y-50916195D01*
X87964570Y-50544333D01*
X87908722Y-50300683D01*
X87867000Y-50121000D01*
X87850906Y-49982392D01*
X87834475Y-49723969D01*
X87818784Y-49383039D01*
X87804910Y-48996906D01*
X87793930Y-48602879D01*
X87786921Y-48238264D01*
X87784961Y-47940367D01*
X87789127Y-47746495D01*
X87796860Y-47691860D01*
X87818123Y-47598989D01*
X87840042Y-47399559D01*
X87845588Y-47327000D01*
X87871313Y-47090024D01*
X87905949Y-46925161D01*
X87914834Y-46903667D01*
X87960170Y-46758884D01*
X87986619Y-46607333D01*
X88027634Y-46390224D01*
X88065051Y-46268667D01*
X88127299Y-46083697D01*
X88140600Y-46029221D01*
X88193993Y-45853893D01*
X88225267Y-45775221D01*
X88292254Y-45589136D01*
X88310060Y-45520358D01*
X88367958Y-45356481D01*
X88483574Y-45101692D01*
X88633009Y-44801815D01*
X88792369Y-44502673D01*
X88937756Y-44250088D01*
X89045275Y-44089886D01*
X89069422Y-44064216D01*
X89173767Y-43942600D01*
X89192666Y-43887345D01*
X89244120Y-43793659D01*
X89380416Y-43608058D01*
X89574455Y-43362860D01*
X89799139Y-43090382D01*
X90027368Y-42822944D01*
X90232046Y-42592862D01*
X90386072Y-42432456D01*
X90461605Y-42374000D01*
X90555926Y-42322419D01*
X90730283Y-42189846D01*
X90869919Y-42071902D01*
X91064866Y-41909660D01*
X91202184Y-41811543D01*
X91242767Y-41796735D01*
X91316218Y-41764106D01*
X91458499Y-41648705D01*
X91479032Y-41629831D01*
X91688506Y-41472052D01*
X92010510Y-41288883D01*
X92462414Y-41071186D01*
X92939166Y-40861749D01*
X93164837Y-40771633D01*
X93310754Y-40725177D01*
X93341333Y-40725665D01*
X93408997Y-40725668D01*
X93557352Y-40679012D01*
X93819058Y-40597245D01*
X94001852Y-40554980D01*
X94265354Y-40501529D01*
X94442000Y-40461133D01*
X94639317Y-40434642D01*
X94963129Y-40414237D01*
X95370693Y-40400299D01*
X95819267Y-40393211D01*
X96266109Y-40393356D01*
X96668476Y-40401115D01*
X96983626Y-40416871D01*
X97151333Y-40436905D01*
X97456205Y-40495000D01*
X97753613Y-40544886D01*
X98031342Y-40601700D01*
X98277707Y-40674362D01*
X98282780Y-40676274D01*
X98442357Y-40721638D01*
X98506000Y-40710537D01*
X98557730Y-40710935D01*
X98618478Y-40753281D01*
X98798717Y-40847600D01*
X98893645Y-40872637D01*
X99169299Y-40956533D01*
X99533418Y-41122386D01*
X99942906Y-41345545D01*
X100354670Y-41601354D01*
X100725614Y-41865160D01*
X100940166Y-42043427D01*
X101104658Y-42182932D01*
X101203003Y-42247128D01*
X101215333Y-42243611D01*
X101270203Y-42274217D01*
X101415766Y-42399973D01*
X101623454Y-42595820D01*
X101681000Y-42652073D01*
X101902200Y-42876988D01*
X102066485Y-43057782D01*
X102144143Y-43161405D01*
X102146666Y-43170107D01*
X102199681Y-43263116D01*
X102333043Y-43426551D01*
X102400275Y-43500425D01*
X102556098Y-43686840D01*
X102645765Y-43833149D01*
X102654275Y-43866466D01*
X102713449Y-43995977D01*
X102780670Y-44066506D01*
X102883693Y-44201331D01*
X103029287Y-44454230D01*
X103198417Y-44785550D01*
X103372048Y-45155636D01*
X103531145Y-45524836D01*
X103656672Y-45853494D01*
X103695543Y-45972333D01*
X103832136Y-46449958D01*
X103928888Y-46870593D01*
X103992109Y-47283179D01*
X104028107Y-47736658D01*
X104043193Y-48279968D01*
X104044813Y-48681667D01*
X104039034Y-49232574D01*
X104039034Y-49232574D01*
G37*
X104039034Y-49232574D02*
X104019703Y-49666011D01*
X103980914Y-50033669D01*
X103916761Y-50387238D01*
X103821338Y-50778410D01*
X103793299Y-50883000D01*
X103717979Y-51164011D01*
X103661350Y-51381486D01*
X103638526Y-51475667D01*
X103584370Y-51625761D01*
X103471257Y-51874152D01*
X103320907Y-52179018D01*
X103155040Y-52498534D01*
X102995377Y-52790877D01*
X102863638Y-53014225D01*
X102781544Y-53126754D01*
X102780670Y-53127493D01*
X102673898Y-53260465D01*
X102654063Y-53327533D01*
X102598228Y-53436372D01*
X102454985Y-53616108D01*
X102319550Y-53761667D01*
X102135724Y-53958525D01*
X102012674Y-54110184D01*
X101981487Y-54167682D01*
X101932602Y-54253484D01*
X101821262Y-54386142D01*
X101691743Y-54519573D01*
X101588320Y-54607693D01*
X101554000Y-54612627D01*
X101497840Y-54643819D01*
X101348945Y-54767579D01*
X101136688Y-54959158D01*
X101081215Y-55010945D01*
X100854532Y-55215832D01*
X100679683Y-55358801D01*
X100588015Y-55414621D01*
X100582104Y-55412667D01*
X100509276Y-55431304D01*
X100376972Y-55532150D01*
X100167430Y-55698021D01*
X100008250Y-55801965D01*
X99828748Y-55899420D01*
X99588612Y-56024269D01*
X99339214Y-56150536D01*
X99131924Y-56252245D01*
X99018114Y-56303419D01*
X99014000Y-56304717D01*
X98909302Y-56344956D01*
X98830112Y-56379000D01*
X98645346Y-56443416D01*
X98576112Y-56458735D01*
X98401803Y-56516577D01*
X98371875Y-56533199D01*
X98229385Y-56586864D01*
X98009989Y-56638184D01*
X97998000Y-56640333D01*
X97789946Y-56683723D01*
X97664234Y-56722253D01*
X97659815Y-56724702D01*
X97552313Y-56751563D01*
X97327055Y-56787480D01*
X97060023Y-56821424D01*
X96525669Y-56864208D01*
X95953087Y-56879241D01*
X95383082Y-56868298D01*
X94856461Y-56833154D01*
X94414028Y-56775582D01*
X94096588Y-56697357D01*
X94082166Y-56691952D01*
X93918156Y-56639373D01*
X93849337Y-56638471D01*
X93849333Y-56638673D01*
X93778594Y-56633593D01*
X93600311Y-56584868D01*
X93365389Y-56508587D01*
X93124733Y-56420839D01*
X93002666Y-56371067D01*
X92867285Y-56316841D01*
X92833333Y-56305766D01*
X92667114Y-56240693D01*
X92425626Y-56122156D01*
X92177293Y-55986274D01*
X91990541Y-55869165D01*
X91956611Y-55842972D01*
X91822238Y-55751380D01*
X91758551Y-55738861D01*
X91673995Y-55710372D01*
X91524388Y-55600671D01*
X91512796Y-55590695D01*
X91352538Y-55466580D01*
X91247280Y-55411871D01*
X91245189Y-55411754D01*
X91154784Y-55357083D01*
X90985231Y-55216422D01*
X90822500Y-55066721D01*
X90632158Y-54891526D01*
X90501726Y-54784544D01*
X90462666Y-54767452D01*
X90411049Y-54745105D01*
X90283628Y-54632729D01*
X90251000Y-54600636D01*
X90110237Y-54448528D01*
X90040859Y-54351306D01*
X90039333Y-54344437D01*
X89985028Y-54243810D01*
X89870575Y-54146765D01*
X89768662Y-54110682D01*
X89753079Y-54118476D01*
X89707487Y-54100402D01*
X89700666Y-54045618D01*
X89643369Y-53911694D01*
X89500528Y-53731456D01*
X89446666Y-53677000D01*
X89287119Y-53501632D01*
X89198853Y-53360876D01*
X89192666Y-53332860D01*
X89133620Y-53198576D01*
X89066663Y-53127493D01*
X88931605Y-52957999D01*
X88763582Y-52661604D01*
X88577724Y-52273767D01*
X88389157Y-51829947D01*
X88213012Y-51365603D01*
X88064415Y-50916195D01*
X87964570Y-50544333D01*
X87908722Y-50300683D01*
X87867000Y-50121000D01*
X87850906Y-49982392D01*
X87834475Y-49723969D01*
X87818784Y-49383039D01*
X87804910Y-48996906D01*
X87793930Y-48602879D01*
X87786921Y-48238264D01*
X87784961Y-47940367D01*
X87789127Y-47746495D01*
X87796860Y-47691860D01*
X87818123Y-47598989D01*
X87840042Y-47399559D01*
X87845588Y-47327000D01*
X87871313Y-47090024D01*
X87905949Y-46925161D01*
X87914834Y-46903667D01*
X87960170Y-46758884D01*
X87986619Y-46607333D01*
X88027634Y-46390224D01*
X88065051Y-46268667D01*
X88127299Y-46083697D01*
X88140600Y-46029221D01*
X88193993Y-45853893D01*
X88225267Y-45775221D01*
X88292254Y-45589136D01*
X88310060Y-45520358D01*
X88367958Y-45356481D01*
X88483574Y-45101692D01*
X88633009Y-44801815D01*
X88792369Y-44502673D01*
X88937756Y-44250088D01*
X89045275Y-44089886D01*
X89069422Y-44064216D01*
X89173767Y-43942600D01*
X89192666Y-43887345D01*
X89244120Y-43793659D01*
X89380416Y-43608058D01*
X89574455Y-43362860D01*
X89799139Y-43090382D01*
X90027368Y-42822944D01*
X90232046Y-42592862D01*
X90386072Y-42432456D01*
X90461605Y-42374000D01*
X90555926Y-42322419D01*
X90730283Y-42189846D01*
X90869919Y-42071902D01*
X91064866Y-41909660D01*
X91202184Y-41811543D01*
X91242767Y-41796735D01*
X91316218Y-41764106D01*
X91458499Y-41648705D01*
X91479032Y-41629831D01*
X91688506Y-41472052D01*
X92010510Y-41288883D01*
X92462414Y-41071186D01*
X92939166Y-40861749D01*
X93164837Y-40771633D01*
X93310754Y-40725177D01*
X93341333Y-40725665D01*
X93408997Y-40725668D01*
X93557352Y-40679012D01*
X93819058Y-40597245D01*
X94001852Y-40554980D01*
X94265354Y-40501529D01*
X94442000Y-40461133D01*
X94639317Y-40434642D01*
X94963129Y-40414237D01*
X95370693Y-40400299D01*
X95819267Y-40393211D01*
X96266109Y-40393356D01*
X96668476Y-40401115D01*
X96983626Y-40416871D01*
X97151333Y-40436905D01*
X97456205Y-40495000D01*
X97753613Y-40544886D01*
X98031342Y-40601700D01*
X98277707Y-40674362D01*
X98282780Y-40676274D01*
X98442357Y-40721638D01*
X98506000Y-40710537D01*
X98557730Y-40710935D01*
X98618478Y-40753281D01*
X98798717Y-40847600D01*
X98893645Y-40872637D01*
X99169299Y-40956533D01*
X99533418Y-41122386D01*
X99942906Y-41345545D01*
X100354670Y-41601354D01*
X100725614Y-41865160D01*
X100940166Y-42043427D01*
X101104658Y-42182932D01*
X101203003Y-42247128D01*
X101215333Y-42243611D01*
X101270203Y-42274217D01*
X101415766Y-42399973D01*
X101623454Y-42595820D01*
X101681000Y-42652073D01*
X101902200Y-42876988D01*
X102066485Y-43057782D01*
X102144143Y-43161405D01*
X102146666Y-43170107D01*
X102199681Y-43263116D01*
X102333043Y-43426551D01*
X102400275Y-43500425D01*
X102556098Y-43686840D01*
X102645765Y-43833149D01*
X102654275Y-43866466D01*
X102713449Y-43995977D01*
X102780670Y-44066506D01*
X102883693Y-44201331D01*
X103029287Y-44454230D01*
X103198417Y-44785550D01*
X103372048Y-45155636D01*
X103531145Y-45524836D01*
X103656672Y-45853494D01*
X103695543Y-45972333D01*
X103832136Y-46449958D01*
X103928888Y-46870593D01*
X103992109Y-47283179D01*
X104028107Y-47736658D01*
X104043193Y-48279968D01*
X104044813Y-48681667D01*
X104039034Y-49232574D01*
G36*
X65359000Y-50078667D02*
G01*
X65316666Y-50036333D01*
X65359000Y-49994000D01*
X65401333Y-50036333D01*
X65359000Y-50078667D01*
X65359000Y-50078667D01*
G37*
X65359000Y-50078667D02*
X65316666Y-50036333D01*
X65359000Y-49994000D01*
X65401333Y-50036333D01*
X65359000Y-50078667D01*
G36*
X14536369Y-53633583D02*
G01*
X14482419Y-53999910D01*
X14478945Y-54015667D01*
X14288642Y-54531560D01*
X13968262Y-55041027D01*
X13552967Y-55500621D01*
X13077916Y-55866894D01*
X12899616Y-55967248D01*
X12673358Y-56073088D01*
X12522643Y-56126704D01*
X12484666Y-56123392D01*
X12431752Y-56124476D01*
X12349125Y-56181755D01*
X12192345Y-56283246D01*
X12116292Y-56311342D01*
X11971905Y-56338473D01*
X11749026Y-56381930D01*
X11722666Y-56387144D01*
X11475779Y-56433524D01*
X11244104Y-56469257D01*
X10995469Y-56496850D01*
X10697700Y-56518812D01*
X10318625Y-56537651D01*
X9826069Y-56555877D01*
X9373166Y-56570334D01*
X7828000Y-56617952D01*
X7828000Y-53099306D01*
X7829478Y-52344427D01*
X7833700Y-51643474D01*
X7840348Y-51014250D01*
X7849102Y-50474557D01*
X7859646Y-50042198D01*
X7871661Y-49734975D01*
X7884828Y-49570691D01*
X7891500Y-49547815D01*
X8002327Y-49534505D01*
X8247470Y-49527301D01*
X8592044Y-49525571D01*
X9001166Y-49528683D01*
X9439953Y-49536006D01*
X9873519Y-49546908D01*
X10266982Y-49560758D01*
X10585458Y-49576923D01*
X10794062Y-49594772D01*
X10833666Y-49601093D01*
X11389999Y-49718739D01*
X11800811Y-49812463D01*
X12087321Y-49887875D01*
X12270746Y-49950584D01*
X12372306Y-50006201D01*
X12375371Y-50008693D01*
X12467919Y-50059940D01*
X12484666Y-50044979D01*
X12549143Y-50044714D01*
X12711328Y-50108967D01*
X12924353Y-50214101D01*
X13141349Y-50336480D01*
X13315448Y-50452467D01*
X13352500Y-50482653D01*
X13465038Y-50559981D01*
X13500666Y-50551408D01*
X13535196Y-50541505D01*
X13644414Y-50648432D01*
X13836764Y-50881200D01*
X13972028Y-51054424D01*
X14180373Y-51345421D01*
X14297810Y-51569991D01*
X14339893Y-51707321D01*
X14374771Y-51820077D01*
X14444931Y-52026725D01*
X14472839Y-52106430D01*
X14530251Y-52381969D01*
X14560101Y-52766849D01*
X14562201Y-53203308D01*
X14536369Y-53633583D01*
X14536369Y-53633583D01*
G37*
X14536369Y-53633583D02*
X14482419Y-53999910D01*
X14478945Y-54015667D01*
X14288642Y-54531560D01*
X13968262Y-55041027D01*
X13552967Y-55500621D01*
X13077916Y-55866894D01*
X12899616Y-55967248D01*
X12673358Y-56073088D01*
X12522643Y-56126704D01*
X12484666Y-56123392D01*
X12431752Y-56124476D01*
X12349125Y-56181755D01*
X12192345Y-56283246D01*
X12116292Y-56311342D01*
X11971905Y-56338473D01*
X11749026Y-56381930D01*
X11722666Y-56387144D01*
X11475779Y-56433524D01*
X11244104Y-56469257D01*
X10995469Y-56496850D01*
X10697700Y-56518812D01*
X10318625Y-56537651D01*
X9826069Y-56555877D01*
X9373166Y-56570334D01*
X7828000Y-56617952D01*
X7828000Y-53099306D01*
X7829478Y-52344427D01*
X7833700Y-51643474D01*
X7840348Y-51014250D01*
X7849102Y-50474557D01*
X7859646Y-50042198D01*
X7871661Y-49734975D01*
X7884828Y-49570691D01*
X7891500Y-49547815D01*
X8002327Y-49534505D01*
X8247470Y-49527301D01*
X8592044Y-49525571D01*
X9001166Y-49528683D01*
X9439953Y-49536006D01*
X9873519Y-49546908D01*
X10266982Y-49560758D01*
X10585458Y-49576923D01*
X10794062Y-49594772D01*
X10833666Y-49601093D01*
X11389999Y-49718739D01*
X11800811Y-49812463D01*
X12087321Y-49887875D01*
X12270746Y-49950584D01*
X12372306Y-50006201D01*
X12375371Y-50008693D01*
X12467919Y-50059940D01*
X12484666Y-50044979D01*
X12549143Y-50044714D01*
X12711328Y-50108967D01*
X12924353Y-50214101D01*
X13141349Y-50336480D01*
X13315448Y-50452467D01*
X13352500Y-50482653D01*
X13465038Y-50559981D01*
X13500666Y-50551408D01*
X13535196Y-50541505D01*
X13644414Y-50648432D01*
X13836764Y-50881200D01*
X13972028Y-51054424D01*
X14180373Y-51345421D01*
X14297810Y-51569991D01*
X14339893Y-51707321D01*
X14374771Y-51820077D01*
X14444931Y-52026725D01*
X14472839Y-52106430D01*
X14530251Y-52381969D01*
X14560101Y-52766849D01*
X14562201Y-53203308D01*
X14536369Y-53633583D01*
G36*
X12796271Y-44792113D02*
G01*
X12656019Y-45419905D01*
X12438355Y-45962049D01*
X12154024Y-46387555D01*
X12008815Y-46531336D01*
X11780855Y-46692701D01*
X11485771Y-46859684D01*
X11184765Y-47001605D01*
X10939042Y-47087780D01*
X10876000Y-47099238D01*
X10775144Y-47129398D01*
X10589222Y-47196626D01*
X10579666Y-47200260D01*
X10398388Y-47260263D01*
X10189579Y-47307193D01*
X9921832Y-47344986D01*
X9563736Y-47377579D01*
X9083882Y-47408910D01*
X8780500Y-47425758D01*
X7828000Y-47476699D01*
X7828000Y-40662791D01*
X8925076Y-40706846D01*
X9341919Y-40726683D01*
X9697702Y-40749438D01*
X9958104Y-40772495D01*
X10088807Y-40793239D01*
X10095176Y-40796032D01*
X10226948Y-40843614D01*
X10401551Y-40883478D01*
X10687996Y-40949820D01*
X10985880Y-41040652D01*
X11231994Y-41134937D01*
X11349457Y-41198966D01*
X11457313Y-41241585D01*
X11482348Y-41231429D01*
X11561695Y-41259845D01*
X11720088Y-41376885D01*
X11834392Y-41476416D01*
X12011163Y-41630444D01*
X12124082Y-41713677D01*
X12146000Y-41717437D01*
X12181625Y-41731967D01*
X12269940Y-41850376D01*
X12383100Y-42027588D01*
X12493264Y-42218524D01*
X12572588Y-42378107D01*
X12594375Y-42443361D01*
X12643669Y-42618033D01*
X12669354Y-42670333D01*
X12718524Y-42822323D01*
X12767306Y-43092928D01*
X12809403Y-43431534D01*
X12838521Y-43787527D01*
X12848368Y-44109667D01*
X12796271Y-44792113D01*
X12796271Y-44792113D01*
G37*
X12796271Y-44792113D02*
X12656019Y-45419905D01*
X12438355Y-45962049D01*
X12154024Y-46387555D01*
X12008815Y-46531336D01*
X11780855Y-46692701D01*
X11485771Y-46859684D01*
X11184765Y-47001605D01*
X10939042Y-47087780D01*
X10876000Y-47099238D01*
X10775144Y-47129398D01*
X10589222Y-47196626D01*
X10579666Y-47200260D01*
X10398388Y-47260263D01*
X10189579Y-47307193D01*
X9921832Y-47344986D01*
X9563736Y-47377579D01*
X9083882Y-47408910D01*
X8780500Y-47425758D01*
X7828000Y-47476699D01*
X7828000Y-40662791D01*
X8925076Y-40706846D01*
X9341919Y-40726683D01*
X9697702Y-40749438D01*
X9958104Y-40772495D01*
X10088807Y-40793239D01*
X10095176Y-40796032D01*
X10226948Y-40843614D01*
X10401551Y-40883478D01*
X10687996Y-40949820D01*
X10985880Y-41040652D01*
X11231994Y-41134937D01*
X11349457Y-41198966D01*
X11457313Y-41241585D01*
X11482348Y-41231429D01*
X11561695Y-41259845D01*
X11720088Y-41376885D01*
X11834392Y-41476416D01*
X12011163Y-41630444D01*
X12124082Y-41713677D01*
X12146000Y-41717437D01*
X12181625Y-41731967D01*
X12269940Y-41850376D01*
X12383100Y-42027588D01*
X12493264Y-42218524D01*
X12572588Y-42378107D01*
X12594375Y-42443361D01*
X12643669Y-42618033D01*
X12669354Y-42670333D01*
X12718524Y-42822323D01*
X12767306Y-43092928D01*
X12809403Y-43431534D01*
X12838521Y-43787527D01*
X12848368Y-44109667D01*
X12796271Y-44792113D01*
G36*
X2070666Y-63202000D02*
G01*
X2070666Y-34076667D01*
X5910003Y-34076667D01*
X5910003Y-38341796D01*
X5575529Y-38343325D01*
X5357645Y-38349638D01*
X5287824Y-38358190D01*
X5282420Y-38443785D01*
X5277222Y-38688375D01*
X5272272Y-39081619D01*
X5267613Y-39613181D01*
X5263286Y-40272719D01*
X5259335Y-41049896D01*
X5255802Y-41934372D01*
X5252730Y-42915808D01*
X5250160Y-43983865D01*
X5248135Y-45128205D01*
X5246699Y-46338487D01*
X5245892Y-47604374D01*
X5245728Y-48610190D01*
X5246140Y-58841667D01*
X8251506Y-58849092D01*
X8963805Y-58848626D01*
X9635095Y-58843960D01*
X10243385Y-58835564D01*
X10766686Y-58823912D01*
X11183008Y-58809474D01*
X11470361Y-58792724D01*
X11595603Y-58777302D01*
X11886057Y-58717051D01*
X12156115Y-58672723D01*
X12188333Y-58668720D01*
X12406150Y-58624770D01*
X12707445Y-58541371D01*
X12950333Y-58462622D01*
X13215819Y-58372062D01*
X13407635Y-58310032D01*
X13480439Y-58290663D01*
X13581023Y-58261020D01*
X13781636Y-58173144D01*
X14034270Y-58051009D01*
X14290913Y-57918590D01*
X14503558Y-57799862D01*
X14622500Y-57720342D01*
X14734684Y-57641763D01*
X14770666Y-57650325D01*
X14828687Y-57642586D01*
X14983204Y-57544061D01*
X15204904Y-57377300D01*
X15464473Y-57164855D01*
X15732597Y-56929275D01*
X15850166Y-56819890D01*
X16044478Y-56619526D01*
X16175132Y-56454585D01*
X16210000Y-56379072D01*
X16269037Y-56247501D01*
X16341191Y-56171188D01*
X16449250Y-56033814D01*
X16583706Y-55803796D01*
X16710267Y-55546569D01*
X16794635Y-55327573D01*
X16805283Y-55285667D01*
X16847346Y-55144988D01*
X16896221Y-55008289D01*
X16978533Y-54742061D01*
X17048295Y-54395387D01*
X17113615Y-53931000D01*
X17164003Y-53255120D01*
X17134726Y-52614122D01*
X17020560Y-51933837D01*
X16952684Y-51645000D01*
X16870710Y-51380122D01*
X16753514Y-51077716D01*
X16618656Y-50774102D01*
X16483695Y-50505598D01*
X16366191Y-50308524D01*
X16283704Y-50219199D01*
X16264532Y-50221689D01*
X16217424Y-50205083D01*
X16210000Y-50148233D01*
X16151493Y-49998715D01*
X16040666Y-49867000D01*
X15914319Y-49725774D01*
X15871333Y-49633744D01*
X15815923Y-49531889D01*
X15674816Y-49361915D01*
X15575000Y-49257400D01*
X15406549Y-49098132D01*
X15299196Y-49014280D01*
X15278666Y-49012520D01*
X15223687Y-48995500D01*
X15086045Y-48890880D01*
X15026287Y-48839102D01*
X14560678Y-48498181D01*
X14021374Y-48218257D01*
X13648833Y-48085511D01*
X13543000Y-48046667D01*
X13432470Y-48023968D01*
X13338389Y-48014917D01*
X13154707Y-47973571D01*
X13133804Y-47891191D01*
X13277228Y-47778500D01*
X13302298Y-47765131D01*
X13522033Y-47623226D01*
X13761854Y-47429505D01*
X13810574Y-47384407D01*
X13982338Y-47240004D01*
X14103273Y-47174612D01*
X14128074Y-47178297D01*
X14171051Y-47156860D01*
X14178000Y-47097478D01*
X14238306Y-46935142D01*
X14301244Y-46864450D01*
X14396157Y-46740442D01*
X14534933Y-46507284D01*
X14693980Y-46211146D01*
X14849707Y-45898197D01*
X14978524Y-45614605D01*
X15056839Y-45406539D01*
X15066916Y-45365975D01*
X15097492Y-45236302D01*
X15109817Y-45210333D01*
X15147380Y-45131524D01*
X15178061Y-44918315D01*
X15200909Y-44605537D01*
X15214976Y-44228021D01*
X15219311Y-43820597D01*
X15212965Y-43418095D01*
X15194986Y-43055346D01*
X15174472Y-42839667D01*
X15102215Y-42469568D01*
X14978690Y-42047313D01*
X14821117Y-41615597D01*
X14646715Y-41217118D01*
X14472706Y-40894570D01*
X14316309Y-40690652D01*
X14303055Y-40679053D01*
X14197470Y-40552921D01*
X14178000Y-40492602D01*
X14115671Y-40385521D01*
X13955376Y-40214793D01*
X13737155Y-40014894D01*
X13501047Y-39820303D01*
X13287092Y-39665497D01*
X13135329Y-39584953D01*
X13119666Y-39581288D01*
X12988730Y-39519470D01*
X12908000Y-39459836D01*
X12675883Y-39318969D01*
X12422989Y-39237986D01*
X12420278Y-39237616D01*
X12314523Y-39179827D01*
X12209500Y-39095178D01*
X12097371Y-39013765D01*
X12061333Y-39018718D01*
X11996545Y-39023560D01*
X11837568Y-38960226D01*
X11807333Y-38945000D01*
X11637907Y-38867842D01*
X11554996Y-38850603D01*
X11553333Y-38854403D01*
X11482699Y-38854281D01*
X11304895Y-38805994D01*
X11213488Y-38775251D01*
X10994710Y-38701940D01*
X10852269Y-38661415D01*
X10831079Y-38658424D01*
X10725688Y-38644347D01*
X10554958Y-38610204D01*
X10299026Y-38564206D01*
X10027201Y-38528061D01*
X9776031Y-38499958D01*
X9445662Y-38460773D01*
X9225000Y-38433623D01*
X9025213Y-38417330D01*
X8704815Y-38401276D01*
X8293457Y-38386030D01*
X7820788Y-38372160D01*
X7316458Y-38360233D01*
X6810117Y-38350818D01*
X6331415Y-38344483D01*
X5910003Y-38341796D01*
X5910003Y-34076667D01*
X20512927Y-34076667D01*
X20512927Y-38346114D01*
X20137689Y-38347830D01*
X19856775Y-38351666D01*
X19701340Y-38357297D01*
X19681158Y-38360031D01*
X19675752Y-38445389D01*
X19670548Y-38689744D01*
X19665589Y-39082758D01*
X19660917Y-39614097D01*
X19656576Y-40273422D01*
X19652607Y-41050399D01*
X19649054Y-41934689D01*
X19645958Y-42915957D01*
X19643364Y-43983866D01*
X19641313Y-45128079D01*
X19639848Y-46338261D01*
X19639012Y-47604074D01*
X19638824Y-48610190D01*
X19639000Y-58841667D01*
X20930505Y-58865040D01*
X22222011Y-58888414D01*
X22200505Y-48620374D01*
X22179000Y-38352333D01*
X20951333Y-38346841D01*
X20512927Y-38346114D01*
X20512927Y-34076667D01*
X35405524Y-34076667D01*
X35405524Y-38008256D01*
X34917940Y-38010281D01*
X34425653Y-38017019D01*
X33961565Y-38028163D01*
X33558580Y-38043403D01*
X33249600Y-38062432D01*
X33067528Y-38084942D01*
X33058666Y-38087082D01*
X32808425Y-38145559D01*
X32600125Y-38187554D01*
X32404516Y-38230938D01*
X32296666Y-38267666D01*
X32181306Y-38305082D01*
X31977042Y-38348922D01*
X31958000Y-38352333D01*
X31737054Y-38403114D01*
X31588240Y-38458043D01*
X31584125Y-38460551D01*
X31468907Y-38521637D01*
X31450000Y-38527682D01*
X31343919Y-38564283D01*
X31280666Y-38589967D01*
X31005556Y-38697789D01*
X30785803Y-38768641D01*
X30675722Y-38786690D01*
X30579012Y-38828887D01*
X30457185Y-38924018D01*
X30320968Y-39019242D01*
X30248694Y-39027805D01*
X30167385Y-39045814D01*
X30097031Y-39112287D01*
X29972144Y-39219974D01*
X29911127Y-39241333D01*
X29789088Y-39289399D01*
X29570502Y-39416810D01*
X29292047Y-39598389D01*
X28990399Y-39808957D01*
X28702236Y-40023336D01*
X28464234Y-40216348D01*
X28380833Y-40291852D01*
X28204126Y-40450553D01*
X28088856Y-40534186D01*
X28063333Y-40534760D01*
X28011273Y-40555197D01*
X27875052Y-40670482D01*
X27684609Y-40850344D01*
X27469882Y-41064509D01*
X27260810Y-41282706D01*
X27087331Y-41474662D01*
X26979384Y-41610107D01*
X26958513Y-41651887D01*
X26900806Y-41756014D01*
X26756462Y-41932524D01*
X26620449Y-42077667D01*
X26436637Y-42279393D01*
X26315099Y-42442080D01*
X26285936Y-42509044D01*
X26228276Y-42632984D01*
X26132520Y-42740049D01*
X25997467Y-42913318D01*
X25873439Y-43149903D01*
X25864223Y-43172666D01*
X25773677Y-43351236D01*
X25693340Y-43426465D01*
X25678370Y-43423497D01*
X25613266Y-43444613D01*
X25608000Y-43478732D01*
X25574195Y-43601428D01*
X25485702Y-43826895D01*
X25365672Y-44097562D01*
X25164643Y-44536769D01*
X25034596Y-44839880D01*
X24969729Y-45019833D01*
X24930666Y-45125667D01*
X24891945Y-45238751D01*
X24888333Y-45252667D01*
X24853949Y-45352547D01*
X24850105Y-45358500D01*
X24819520Y-45445638D01*
X24768859Y-45666257D01*
X24731943Y-45845333D01*
X24695691Y-46003662D01*
X24676480Y-46057000D01*
X24650276Y-46125084D01*
X24635915Y-46184000D01*
X24598123Y-46357043D01*
X24552783Y-46565000D01*
X24514045Y-46791616D01*
X24473218Y-47104600D01*
X24449734Y-47327000D01*
X24421835Y-47598781D01*
X24397604Y-47791142D01*
X24384485Y-47855804D01*
X24376060Y-47948848D01*
X24375007Y-48172911D01*
X24380135Y-48489895D01*
X24390254Y-48861701D01*
X24404176Y-49250233D01*
X24420710Y-49617390D01*
X24438667Y-49925076D01*
X24455212Y-50121000D01*
X24493289Y-50410335D01*
X24542674Y-50718705D01*
X24594906Y-51000816D01*
X24641522Y-51211375D01*
X24674061Y-51305090D01*
X24676666Y-51306333D01*
X24701060Y-51375617D01*
X24717442Y-51450793D01*
X24793321Y-51735685D01*
X24922479Y-52108811D01*
X25089730Y-52536039D01*
X25279889Y-52983240D01*
X25477769Y-53416281D01*
X25668185Y-53801033D01*
X25835951Y-54103366D01*
X25965880Y-54289148D01*
X25989000Y-54311658D01*
X25989000Y-54396667D01*
X25946666Y-54439000D01*
X25989000Y-54481333D01*
X26031333Y-54439000D01*
X25989000Y-54396667D01*
X25989000Y-54311658D01*
X25991375Y-54313971D01*
X26097286Y-54450995D01*
X26116000Y-54520911D01*
X26173684Y-54650775D01*
X26285333Y-54777667D01*
X26411815Y-54920609D01*
X26454666Y-55015441D01*
X26509173Y-55114437D01*
X26652791Y-55296417D01*
X26855671Y-55523858D01*
X26878000Y-55547584D01*
X27085618Y-55780546D01*
X27236589Y-55975562D01*
X27300833Y-56093452D01*
X27301333Y-56099043D01*
X27329069Y-56166292D01*
X27347797Y-56156425D01*
X27424306Y-56190905D01*
X27591396Y-56321791D01*
X27820227Y-56525442D01*
X27961631Y-56659589D01*
X28252768Y-56930688D01*
X28538355Y-57178186D01*
X28770501Y-57361162D01*
X28832979Y-57404136D01*
X29061489Y-57562535D01*
X29247125Y-57711012D01*
X29277479Y-57739574D01*
X29383827Y-57824509D01*
X29418000Y-57818592D01*
X29470269Y-57821559D01*
X29587333Y-57910333D01*
X29709378Y-57996969D01*
X29757963Y-57986955D01*
X29792849Y-57970258D01*
X29821463Y-58005063D01*
X29918496Y-58087189D01*
X30101689Y-58200375D01*
X30324872Y-58321020D01*
X30541874Y-58425524D01*
X30706527Y-58490284D01*
X30772659Y-58491698D01*
X30772666Y-58491304D01*
X30825082Y-58497688D01*
X30942000Y-58587667D01*
X31064161Y-58680150D01*
X31111333Y-58682477D01*
X31173334Y-58671304D01*
X31288093Y-58718641D01*
X31515656Y-58809672D01*
X31684327Y-58853038D01*
X31885229Y-58903963D01*
X31994400Y-58949537D01*
X32144693Y-59015789D01*
X32169666Y-59021725D01*
X32308093Y-59048979D01*
X32508333Y-59089998D01*
X32929197Y-59165087D01*
X33372694Y-59216336D01*
X33881686Y-59246959D01*
X34499034Y-59260166D01*
X34794333Y-59261292D01*
X35510535Y-59253585D01*
X36079604Y-59229199D01*
X36523094Y-59186233D01*
X36862560Y-59122786D01*
X37059166Y-59061649D01*
X37223271Y-59009732D01*
X37291998Y-59009182D01*
X37292000Y-59009340D01*
X37362679Y-59006643D01*
X37540512Y-58956821D01*
X37630666Y-58926333D01*
X37836896Y-58863760D01*
X37956911Y-58847059D01*
X37969333Y-58855789D01*
X38021140Y-58853955D01*
X38081812Y-58811385D01*
X38259063Y-58719916D01*
X38369887Y-58691238D01*
X38571971Y-58624169D01*
X38659576Y-58569753D01*
X38792117Y-58485269D01*
X38838705Y-58471109D01*
X38984092Y-58427142D01*
X39209373Y-58326778D01*
X39450002Y-58201999D01*
X39641433Y-58084787D01*
X39683833Y-58052350D01*
X39796701Y-57981274D01*
X39832000Y-57996636D01*
X39884582Y-57997110D01*
X40012184Y-57902817D01*
X40022500Y-57893535D01*
X40189027Y-57758658D01*
X40307248Y-57688276D01*
X40475022Y-57591353D01*
X40720788Y-57398629D01*
X41020529Y-57134373D01*
X41350230Y-56822853D01*
X41685873Y-56488340D01*
X42003441Y-56155101D01*
X42278918Y-55847407D01*
X42488288Y-55589526D01*
X42607532Y-55405728D01*
X42626000Y-55345157D01*
X42684369Y-55230199D01*
X42761820Y-55151346D01*
X42911563Y-54978549D01*
X42977122Y-54865813D01*
X43090607Y-54645426D01*
X43161412Y-54523667D01*
X43373177Y-54159604D01*
X43530583Y-53845090D01*
X43613260Y-53621393D01*
X43617830Y-53598978D01*
X43681904Y-53410046D01*
X43726666Y-53338333D01*
X43806355Y-53176664D01*
X43835689Y-53058703D01*
X43882958Y-52886084D01*
X43922040Y-52818404D01*
X43969623Y-52694219D01*
X43980666Y-52576333D01*
X44005267Y-52402829D01*
X44039562Y-52333994D01*
X44109336Y-52201316D01*
X44116168Y-52171716D01*
X44144775Y-52017916D01*
X44184651Y-51814333D01*
X44283826Y-51274946D01*
X44352995Y-50779089D01*
X44398533Y-50264704D01*
X44426820Y-49669732D01*
X44435211Y-49375936D01*
X44434376Y-49003080D01*
X44413632Y-48726413D01*
X44375801Y-48578568D01*
X44365244Y-48566408D01*
X44271468Y-48557606D01*
X44028715Y-48549507D01*
X43657343Y-48542166D01*
X43177707Y-48535641D01*
X42610164Y-48529988D01*
X41975070Y-48525265D01*
X41292782Y-48521528D01*
X40583655Y-48518833D01*
X39868045Y-48517238D01*
X39166310Y-48516800D01*
X38498804Y-48517574D01*
X37885885Y-48519618D01*
X37347908Y-48522989D01*
X36905231Y-48527744D01*
X36578208Y-48533938D01*
X36387196Y-48541630D01*
X36360666Y-48544083D01*
X36325512Y-48630522D01*
X36298812Y-48868016D01*
X36281873Y-49238439D01*
X36276000Y-49719511D01*
X36276000Y-50884355D01*
X38921833Y-50883768D01*
X41567666Y-50883182D01*
X41550639Y-51221758D01*
X41530875Y-51473685D01*
X41500594Y-51721306D01*
X41467750Y-51909628D01*
X41440480Y-51983667D01*
X41416598Y-52053446D01*
X41398376Y-52138445D01*
X41337863Y-52355662D01*
X41307400Y-52434778D01*
X41240523Y-52620249D01*
X41222738Y-52688743D01*
X41137041Y-52923358D01*
X40972795Y-53234243D01*
X40759628Y-53567388D01*
X40680625Y-53677000D01*
X40514848Y-53912452D01*
X40385651Y-54118633D01*
X40350783Y-54185000D01*
X40267563Y-54303775D01*
X40109336Y-54484450D01*
X39906155Y-54697521D01*
X39688070Y-54913483D01*
X39485136Y-55102833D01*
X39327403Y-55236068D01*
X39244925Y-55283682D01*
X39239333Y-55276168D01*
X39185864Y-55291172D01*
X39048254Y-55401141D01*
X38921833Y-55518998D01*
X38736031Y-55691331D01*
X38601950Y-55798918D01*
X38562000Y-55818090D01*
X38473099Y-55853868D01*
X38290012Y-55957505D01*
X38138666Y-56051598D01*
X37918237Y-56190088D01*
X37761235Y-56283282D01*
X37715333Y-56306168D01*
X37609177Y-56344141D01*
X37546000Y-56369967D01*
X37348137Y-56448438D01*
X37137103Y-56525228D01*
X36983505Y-56575089D01*
X36953333Y-56581905D01*
X36851752Y-56612007D01*
X36675955Y-56675460D01*
X36129959Y-56831141D01*
X35492467Y-56931167D01*
X34834115Y-56968733D01*
X34225541Y-56937036D01*
X34117000Y-56921940D01*
X33800535Y-56872236D01*
X33501549Y-56825084D01*
X33408620Y-56810365D01*
X33197675Y-56769327D01*
X33067836Y-56730340D01*
X33062828Y-56727572D01*
X32944300Y-56688314D01*
X32738231Y-56643600D01*
X32720000Y-56640333D01*
X32499054Y-56589552D01*
X32350240Y-56534623D01*
X32346125Y-56532115D01*
X32231026Y-56472532D01*
X32212000Y-56467152D01*
X32051333Y-56413210D01*
X31814449Y-56304605D01*
X31569259Y-56175566D01*
X31383672Y-56060320D01*
X31347265Y-56031315D01*
X31233473Y-55946477D01*
X31196000Y-55947326D01*
X31136460Y-55940699D01*
X30982047Y-55852024D01*
X30769066Y-55706330D01*
X30533825Y-55528644D01*
X30312631Y-55343996D01*
X30285833Y-55319906D01*
X30121552Y-55182074D01*
X30023157Y-55121586D01*
X30010666Y-55127304D01*
X29956722Y-55099232D01*
X29813433Y-54973737D01*
X29608616Y-54775656D01*
X29545000Y-54711554D01*
X29325004Y-54479009D01*
X29161054Y-54288548D01*
X29082322Y-54174535D01*
X29079333Y-54162955D01*
X29022582Y-54060174D01*
X28883383Y-53906691D01*
X28857536Y-53882258D01*
X28554172Y-53537095D01*
X28220359Y-53037884D01*
X27863240Y-52395683D01*
X27740871Y-52153000D01*
X27373627Y-51249549D01*
X27110760Y-50262105D01*
X26965127Y-49249147D01*
X26940486Y-48512333D01*
X26956178Y-48135748D01*
X26987248Y-47718379D01*
X27028454Y-47311197D01*
X27074553Y-46965174D01*
X27120303Y-46731281D01*
X27125522Y-46713167D01*
X27143842Y-46628500D01*
X27176174Y-46518098D01*
X27246172Y-46304102D01*
X27301333Y-46141667D01*
X27387471Y-45886254D01*
X27449068Y-45694294D01*
X27466350Y-45633667D01*
X27511435Y-45512248D01*
X27604353Y-45298524D01*
X27664431Y-45168000D01*
X27768767Y-44936221D01*
X27835296Y-44770581D01*
X27847405Y-44727733D01*
X27904004Y-44623548D01*
X27957500Y-44562633D01*
X28049038Y-44439372D01*
X28063333Y-44393311D01*
X28108387Y-44294308D01*
X28224652Y-44105321D01*
X28338500Y-43937121D01*
X28509269Y-43688225D01*
X28650296Y-43473664D01*
X28705890Y-43383045D01*
X28798986Y-43278137D01*
X28854057Y-43277613D01*
X28900556Y-43258988D01*
X28910000Y-43187448D01*
X28947775Y-43089307D01*
X28994666Y-43093667D01*
X29072690Y-43087051D01*
X29079333Y-43056501D01*
X29138722Y-42937848D01*
X29293976Y-42746840D01*
X29510733Y-42519349D01*
X29754626Y-42291249D01*
X29991289Y-42098414D01*
X30010666Y-42084297D01*
X30446958Y-41776175D01*
X30754283Y-41573150D01*
X30935149Y-41473604D01*
X30974867Y-41462198D01*
X31087131Y-41395992D01*
X31101867Y-41376335D01*
X31195166Y-41299611D01*
X31376397Y-41190355D01*
X31598661Y-41072248D01*
X31815059Y-40968972D01*
X31978691Y-40904210D01*
X32042666Y-40901274D01*
X32094600Y-40906585D01*
X32148500Y-40871401D01*
X32319543Y-40780753D01*
X32593570Y-40679440D01*
X32907311Y-40588956D01*
X33109782Y-40544812D01*
X33308778Y-40497619D01*
X33419435Y-40455340D01*
X33583510Y-40408147D01*
X33880389Y-40372387D01*
X34273933Y-40348035D01*
X34728001Y-40335064D01*
X35206453Y-40333446D01*
X35673147Y-40343155D01*
X36091945Y-40364164D01*
X36426705Y-40396446D01*
X36641287Y-40439974D01*
X36681153Y-40457764D01*
X36810426Y-40503266D01*
X37022541Y-40550894D01*
X37038000Y-40553667D01*
X37258945Y-40604447D01*
X37407760Y-40659376D01*
X37411875Y-40661885D01*
X37527092Y-40722970D01*
X37546000Y-40729016D01*
X37652081Y-40765616D01*
X37715333Y-40791300D01*
X37925310Y-40874751D01*
X38151063Y-40957168D01*
X38329166Y-41016076D01*
X38392666Y-41031318D01*
X38481022Y-41081524D01*
X38583166Y-41165489D01*
X38695343Y-41247469D01*
X38731333Y-41243512D01*
X38793511Y-41258029D01*
X38955531Y-41351631D01*
X39153798Y-41484390D01*
X39388113Y-41641606D01*
X39568902Y-41749253D01*
X39645958Y-41781333D01*
X39743220Y-41837345D01*
X39901605Y-41977308D01*
X39958154Y-42034450D01*
X40116290Y-42182314D01*
X40222654Y-42250215D01*
X40239828Y-42248394D01*
X40312999Y-42280018D01*
X40449318Y-42402434D01*
X40608887Y-42572063D01*
X40751807Y-42745327D01*
X40838180Y-42878648D01*
X40848000Y-42912656D01*
X40884305Y-42954983D01*
X40899287Y-42943602D01*
X40974100Y-42975274D01*
X41110989Y-43111737D01*
X41217088Y-43241738D01*
X41382829Y-43436224D01*
X41517630Y-43554525D01*
X41567968Y-43572691D01*
X41670955Y-43504416D01*
X41858671Y-43340387D01*
X42104393Y-43107835D01*
X42381399Y-42833987D01*
X42662964Y-42546071D01*
X42922366Y-42271316D01*
X43132881Y-42036950D01*
X43267786Y-41870203D01*
X43303333Y-41804514D01*
X43258376Y-41728313D01*
X43218666Y-41739000D01*
X43146937Y-41718894D01*
X43134000Y-41654333D01*
X43094176Y-41562886D01*
X43049333Y-41569666D01*
X42974502Y-41553423D01*
X42964666Y-41504882D01*
X42913059Y-41410509D01*
X42777952Y-41244988D01*
X42588920Y-41038053D01*
X42375536Y-40819436D01*
X42167375Y-40618869D01*
X41994011Y-40466085D01*
X41885018Y-40390817D01*
X41862703Y-40397015D01*
X41826715Y-40410891D01*
X41799203Y-40378414D01*
X41703326Y-40288722D01*
X41507069Y-40133614D01*
X41250324Y-39942533D01*
X40972980Y-39744921D01*
X40714929Y-39570220D01*
X40633338Y-39517917D01*
X40404617Y-39387223D01*
X40096010Y-39227867D01*
X39746650Y-39057994D01*
X39395667Y-38895748D01*
X39082196Y-38759275D01*
X38845368Y-38666718D01*
X38731333Y-38636002D01*
X38637475Y-38587621D01*
X38583166Y-38546433D01*
X38492711Y-38497838D01*
X38477333Y-38513474D01*
X38412483Y-38516465D01*
X38253373Y-38452150D01*
X38223333Y-38437000D01*
X38053948Y-38360283D01*
X37971009Y-38344061D01*
X37969333Y-38348063D01*
X37901426Y-38352222D01*
X37738587Y-38302746D01*
X37497541Y-38232112D01*
X37208134Y-38173612D01*
X37167087Y-38167516D01*
X36900627Y-38120014D01*
X36680311Y-38063761D01*
X36650767Y-38053448D01*
X36511025Y-38033540D01*
X36234969Y-38019577D01*
X35855501Y-38011252D01*
X35405524Y-38008256D01*
X35405524Y-34076667D01*
X60002253Y-34076667D01*
X60002253Y-37991946D01*
X59559297Y-37998303D01*
X59163751Y-38013374D01*
X58853423Y-38035054D01*
X58666117Y-38061239D01*
X58644814Y-38067527D01*
X58415274Y-38135828D01*
X58182609Y-38186886D01*
X57959066Y-38247758D01*
X57805962Y-38324694D01*
X57713148Y-38380207D01*
X57696666Y-38369968D01*
X57629435Y-38375905D01*
X57452984Y-38446886D01*
X57205183Y-38564055D01*
X56923900Y-38708554D01*
X56647002Y-38861526D01*
X56412358Y-39004115D01*
X56379669Y-39025782D01*
X55985224Y-39325905D01*
X55590036Y-39686993D01*
X55216728Y-40081554D01*
X54887921Y-40482093D01*
X54626237Y-40861116D01*
X54454300Y-41191131D01*
X54394666Y-41438233D01*
X54363870Y-41596825D01*
X54335771Y-41642673D01*
X54265997Y-41775350D01*
X54259165Y-41804950D01*
X54227939Y-41957918D01*
X54181682Y-42162333D01*
X54143653Y-42411614D01*
X54116823Y-42757612D01*
X54102020Y-43150250D01*
X54100073Y-43539450D01*
X54111810Y-43875137D01*
X54138059Y-44107232D01*
X54148828Y-44148996D01*
X54218425Y-44404849D01*
X54251854Y-44575333D01*
X54310150Y-44809617D01*
X54395100Y-45041000D01*
X54468954Y-45231381D01*
X54496127Y-45347224D01*
X54495712Y-45350379D01*
X54542932Y-45443505D01*
X54609040Y-45508913D01*
X54714699Y-45644610D01*
X54733333Y-45713140D01*
X54790585Y-45812113D01*
X54944697Y-45996775D01*
X55169206Y-46236779D01*
X55333385Y-46401273D01*
X55660586Y-46721035D01*
X55886855Y-46939972D01*
X56032287Y-47075695D01*
X56116975Y-47145813D01*
X56161016Y-47167935D01*
X56184502Y-47159671D01*
X56191328Y-47153116D01*
X56268588Y-47178837D01*
X56383863Y-47284147D01*
X56520635Y-47410366D01*
X56605362Y-47454000D01*
X56710776Y-47497903D01*
X56898346Y-47608785D01*
X56993628Y-47671484D01*
X57195586Y-47794166D01*
X57483220Y-47951440D01*
X57813209Y-48121702D01*
X58142235Y-48283348D01*
X58426977Y-48414772D01*
X58624117Y-48494369D01*
X58668535Y-48506819D01*
X58791590Y-48549119D01*
X59006954Y-48638445D01*
X59136000Y-48695674D01*
X59498459Y-48853489D01*
X59762354Y-48954863D01*
X59898000Y-48989498D01*
X59986380Y-49040100D01*
X60088500Y-49124155D01*
X60200658Y-49205915D01*
X60236666Y-49201570D01*
X60303489Y-49207314D01*
X60475901Y-49275181D01*
X60711819Y-49384429D01*
X60969161Y-49514316D01*
X61205843Y-49644098D01*
X61379782Y-49753035D01*
X61422000Y-49785807D01*
X61557750Y-49879678D01*
X61615663Y-49899480D01*
X61744715Y-49958271D01*
X61964129Y-50114635D01*
X62244989Y-50345948D01*
X62558379Y-50629591D01*
X62602307Y-50671333D01*
X62887955Y-50990172D01*
X63131565Y-51345619D01*
X63296351Y-51680379D01*
X63336122Y-51814333D01*
X63364339Y-51949013D01*
X63409958Y-52166191D01*
X63416085Y-52195333D01*
X63464087Y-52580814D01*
X63471669Y-53035854D01*
X63442272Y-53497864D01*
X63379335Y-53904256D01*
X63309053Y-54142667D01*
X63252194Y-54292451D01*
X63239062Y-54333167D01*
X63200000Y-54439000D01*
X63161155Y-54544833D01*
X63053085Y-54823018D01*
X62909121Y-55062755D01*
X62827820Y-55151346D01*
X62715908Y-55287301D01*
X62692000Y-55363072D01*
X62631157Y-55476753D01*
X62472723Y-55659293D01*
X62252839Y-55875677D01*
X62007645Y-56090892D01*
X61773282Y-56269923D01*
X61718333Y-56306382D01*
X61403887Y-56497649D01*
X61188118Y-56609852D01*
X61088213Y-56634370D01*
X61083333Y-56624945D01*
X61031270Y-56628374D01*
X60967749Y-56673193D01*
X60768737Y-56763457D01*
X60443510Y-56829768D01*
X60033892Y-56869057D01*
X59581708Y-56878258D01*
X59128783Y-56854305D01*
X58891476Y-56825428D01*
X58577723Y-56748920D01*
X58208896Y-56617373D01*
X57845669Y-56456646D01*
X57548719Y-56292599D01*
X57423796Y-56199923D01*
X57310763Y-56119816D01*
X57273333Y-56128677D01*
X57220099Y-56107675D01*
X57080765Y-55989714D01*
X56892333Y-55807131D01*
X56695107Y-55595691D01*
X56557437Y-55426351D01*
X56511333Y-55342365D01*
X56453159Y-55229124D01*
X56380142Y-55155188D01*
X56203667Y-54931880D01*
X56039959Y-54590184D01*
X55905692Y-54181000D01*
X55817537Y-53755227D01*
X55792168Y-53363767D01*
X55792277Y-53360482D01*
X55803208Y-53043964D01*
X55435031Y-53081909D01*
X55192891Y-53114803D01*
X55024541Y-53152078D01*
X54994640Y-53164484D01*
X54869837Y-53204881D01*
X54651992Y-53248578D01*
X54595046Y-53257491D01*
X54341722Y-53300217D01*
X54142514Y-53342669D01*
X54120226Y-53348742D01*
X53918726Y-53398158D01*
X53762604Y-53429730D01*
X53508366Y-53492668D01*
X53346402Y-53546172D01*
X53221531Y-53607636D01*
X53177538Y-53699198D01*
X53199282Y-53875917D01*
X53224523Y-53989417D01*
X53286965Y-54268188D01*
X53338410Y-54511105D01*
X53348083Y-54560067D01*
X53400809Y-54756581D01*
X53444135Y-54856400D01*
X53507396Y-55017695D01*
X53523115Y-55090332D01*
X53577888Y-55255457D01*
X53684558Y-55480090D01*
X53710063Y-55526722D01*
X53805252Y-55720273D01*
X53840674Y-55843353D01*
X53836286Y-55858158D01*
X53859404Y-55934532D01*
X53926954Y-56003635D01*
X54034395Y-56124174D01*
X54056000Y-56180789D01*
X54113579Y-56329152D01*
X54272179Y-56568028D01*
X54510596Y-56870736D01*
X54807626Y-57210594D01*
X55142065Y-57560920D01*
X55193295Y-57611881D01*
X55453504Y-57863640D01*
X55662885Y-58056185D01*
X55797099Y-58167786D01*
X55834000Y-58183941D01*
X55887846Y-58188490D01*
X56018062Y-58283194D01*
X56024500Y-58288757D01*
X56188158Y-58411115D01*
X56299666Y-58463564D01*
X56424181Y-58522951D01*
X56532500Y-58606822D01*
X56644293Y-58684300D01*
X56680666Y-58672333D01*
X56732712Y-58670085D01*
X56850000Y-58757000D01*
X56971936Y-58847086D01*
X57019333Y-58844422D01*
X57070368Y-58831716D01*
X57131812Y-58871948D01*
X57312069Y-58965915D01*
X57406978Y-58990598D01*
X57599036Y-59044558D01*
X57672656Y-59080188D01*
X57893608Y-59155634D01*
X58281413Y-59210719D01*
X58834803Y-59245320D01*
X59517000Y-59259132D01*
X60129712Y-59254557D01*
X60608404Y-59230407D01*
X60987637Y-59183019D01*
X61301975Y-59108729D01*
X61466420Y-59052540D01*
X61653800Y-58984676D01*
X61759266Y-58952743D01*
X61760666Y-58952571D01*
X61947287Y-58901138D01*
X62226003Y-58788223D01*
X62543678Y-58639410D01*
X62847175Y-58480286D01*
X63083354Y-58336436D01*
X63157666Y-58279925D01*
X63314562Y-58168232D01*
X63411666Y-58131269D01*
X63507340Y-58072904D01*
X63688355Y-57918002D01*
X63926206Y-57695332D01*
X64192393Y-57433668D01*
X64458412Y-57161780D01*
X64695761Y-56908440D01*
X64875938Y-56702420D01*
X64970439Y-56572491D01*
X64978000Y-56550157D01*
X65037004Y-56415217D01*
X65100895Y-56347406D01*
X65215743Y-56204175D01*
X65357748Y-55965153D01*
X65497732Y-55688425D01*
X65606520Y-55432077D01*
X65654934Y-55254192D01*
X65655333Y-55243643D01*
X65711836Y-55065562D01*
X65756933Y-55006266D01*
X65816053Y-54920751D01*
X65801362Y-54904667D01*
X65787290Y-54837169D01*
X65833115Y-54674560D01*
X65834165Y-54671833D01*
X65944701Y-54253158D01*
X66011042Y-53715927D01*
X66034743Y-53104620D01*
X66017359Y-52463717D01*
X65960444Y-51837698D01*
X65865555Y-51271041D01*
X65734245Y-50808229D01*
X65695779Y-50713667D01*
X65595312Y-50454130D01*
X65527248Y-50233064D01*
X65423621Y-50003245D01*
X65309052Y-49860109D01*
X65185788Y-49714942D01*
X65147333Y-49618925D01*
X65081363Y-49480252D01*
X64899850Y-49267253D01*
X64627390Y-49000655D01*
X64288579Y-48701184D01*
X63908014Y-48389567D01*
X63510291Y-48086529D01*
X63120006Y-47812797D01*
X62761755Y-47589096D01*
X62692000Y-47549924D01*
X62241798Y-47311349D01*
X61805026Y-47094640D01*
X61426988Y-46921534D01*
X61168000Y-46818782D01*
X61061632Y-46776921D01*
X60998666Y-46750700D01*
X60743896Y-46646560D01*
X60494324Y-46549997D01*
X60314100Y-46485575D01*
X60279000Y-46475096D01*
X60154028Y-46429645D01*
X59941919Y-46341446D01*
X59855666Y-46303803D01*
X59624945Y-46207079D01*
X59453229Y-46144410D01*
X59419417Y-46135400D01*
X59242791Y-46073188D01*
X58969759Y-45946554D01*
X58647495Y-45780840D01*
X58323175Y-45601390D01*
X58043972Y-45433550D01*
X57857062Y-45302661D01*
X57837405Y-45285487D01*
X57692038Y-45163394D01*
X57615478Y-45123862D01*
X57612000Y-45130001D01*
X57570801Y-45126382D01*
X57463296Y-45013086D01*
X57313618Y-44823596D01*
X57145903Y-44591391D01*
X56984286Y-44349954D01*
X56852903Y-44132765D01*
X56775888Y-43973305D01*
X56773840Y-43967275D01*
X56726707Y-43740817D01*
X56699362Y-43441320D01*
X56691596Y-43117636D01*
X56703199Y-42818619D01*
X56733963Y-42593118D01*
X56780165Y-42491833D01*
X56816559Y-42393445D01*
X56807666Y-42374000D01*
X56822077Y-42270770D01*
X56850000Y-42247000D01*
X56904766Y-42152642D01*
X56895711Y-42125465D01*
X56919672Y-42026077D01*
X57021330Y-41906526D01*
X57148180Y-41746983D01*
X57188666Y-41627100D01*
X57213507Y-41541090D01*
X57238183Y-41548628D01*
X57320772Y-41522659D01*
X57483428Y-41404358D01*
X57639890Y-41266405D01*
X57844595Y-41085609D01*
X58005467Y-40965119D01*
X58070540Y-40934667D01*
X58193122Y-40884570D01*
X58282666Y-40819212D01*
X58561240Y-40656778D01*
X58965797Y-40524012D01*
X59454180Y-40430505D01*
X59984236Y-40385844D01*
X60196915Y-40383784D01*
X60551986Y-40396459D01*
X60850258Y-40421896D01*
X61045386Y-40455531D01*
X61085915Y-40471303D01*
X61266595Y-40551510D01*
X61332000Y-40567284D01*
X61498712Y-40620187D01*
X61719823Y-40722693D01*
X61942779Y-40845789D01*
X62115023Y-40960461D01*
X62184000Y-41037641D01*
X62235187Y-41078539D01*
X62258363Y-41068034D01*
X62346433Y-41104152D01*
X62509103Y-41241915D01*
X62716115Y-41450011D01*
X62937210Y-41697124D01*
X63142129Y-41951942D01*
X63229398Y-42072936D01*
X63346550Y-42220624D01*
X63435437Y-42240086D01*
X63525731Y-42174039D01*
X63653250Y-42076949D01*
X63708000Y-42055790D01*
X63796952Y-42018565D01*
X63980138Y-41913938D01*
X64131333Y-41819735D01*
X64351641Y-41682093D01*
X64508629Y-41590890D01*
X64554666Y-41569667D01*
X64658942Y-41519526D01*
X64844489Y-41405628D01*
X65056290Y-41264712D01*
X65239328Y-41133515D01*
X65338586Y-41048774D01*
X65341989Y-41043931D01*
X65324340Y-40937516D01*
X65230666Y-40758830D01*
X65200940Y-40713734D01*
X65026543Y-40457563D01*
X64858679Y-40208158D01*
X64857062Y-40205734D01*
X64385384Y-39635343D01*
X63756589Y-39098819D01*
X63496333Y-38917563D01*
X63220713Y-38737244D01*
X63002285Y-38598275D01*
X62876675Y-38523177D01*
X62861333Y-38516171D01*
X62755226Y-38479099D01*
X62692000Y-38453366D01*
X62436105Y-38348774D01*
X62186363Y-38252202D01*
X62006677Y-38188109D01*
X61972333Y-38177918D01*
X61605574Y-38094745D01*
X61252796Y-38039393D01*
X60864060Y-38007148D01*
X60389425Y-37993296D01*
X60002253Y-37991946D01*
X60002253Y-34076667D01*
X83223841Y-34076667D01*
X83223841Y-38350968D01*
X80641333Y-38350968D01*
X80641333Y-46650413D01*
X75836500Y-46639363D01*
X74949709Y-46637146D01*
X74113728Y-46634713D01*
X73343868Y-46632132D01*
X72655445Y-46629470D01*
X72063769Y-46626794D01*
X71584156Y-46624174D01*
X71231917Y-46621676D01*
X71022367Y-46619369D01*
X70968166Y-46617823D01*
X70955580Y-46533738D01*
X70943822Y-46296608D01*
X70933144Y-45922723D01*
X70923794Y-45428370D01*
X70916023Y-44829837D01*
X70910081Y-44143414D01*
X70906218Y-43385387D01*
X70904682Y-42572046D01*
X70904666Y-42479150D01*
X70904666Y-38350968D01*
X68322159Y-38350968D01*
X68322159Y-58884000D01*
X70904666Y-58884000D01*
X70904666Y-53973333D01*
X70905730Y-53078569D01*
X70908791Y-52236016D01*
X70913658Y-51460601D01*
X70920138Y-50767250D01*
X70928038Y-50170889D01*
X70937165Y-49686445D01*
X70947328Y-49328845D01*
X70958333Y-49113013D01*
X70968166Y-49052176D01*
X71062269Y-49050053D01*
X71310391Y-49047690D01*
X71697220Y-49045153D01*
X72207442Y-49042512D01*
X72825745Y-49039834D01*
X73536815Y-49037186D01*
X74325339Y-49034637D01*
X75176004Y-49032254D01*
X75836500Y-49030637D01*
X80641333Y-49019587D01*
X80641333Y-58884000D01*
X83223841Y-58884000D01*
X83223841Y-38350968D01*
X83223841Y-34076667D01*
X96319990Y-34076667D01*
X96319990Y-37994208D01*
X95826807Y-37994686D01*
X95333799Y-38001198D01*
X94874839Y-38013573D01*
X94483802Y-38031641D01*
X94194561Y-38055230D01*
X94075119Y-38073915D01*
X93798764Y-38135779D01*
X93558003Y-38186604D01*
X93516599Y-38194750D01*
X93336950Y-38237878D01*
X93255474Y-38268403D01*
X93141195Y-38305173D01*
X92936894Y-38348929D01*
X92914336Y-38352979D01*
X92685535Y-38413364D01*
X92523767Y-38490457D01*
X92519295Y-38494027D01*
X92426760Y-38545060D01*
X92410000Y-38529859D01*
X92345169Y-38526808D01*
X92186177Y-38591096D01*
X92156887Y-38605874D01*
X91972572Y-38693044D01*
X91862437Y-38730152D01*
X91858095Y-38730024D01*
X91753944Y-38761123D01*
X91549970Y-38849663D01*
X91294833Y-38971682D01*
X91037193Y-39103214D01*
X90825709Y-39220298D01*
X90716666Y-39292147D01*
X90577551Y-39380264D01*
X90518606Y-39395938D01*
X90410898Y-39444668D01*
X90248853Y-39566063D01*
X90243162Y-39570986D01*
X90097072Y-39688761D01*
X90019448Y-39733796D01*
X90017889Y-39733194D01*
X89930444Y-39762275D01*
X89751602Y-39875745D01*
X89518040Y-40047214D01*
X89266433Y-40250295D01*
X89114568Y-40383131D01*
X88828256Y-40650972D01*
X88511719Y-40960048D01*
X88187723Y-41286518D01*
X87879036Y-41606543D01*
X87608423Y-41896282D01*
X87398652Y-42131896D01*
X87272489Y-42289545D01*
X87246069Y-42339711D01*
X87188165Y-42461013D01*
X87076000Y-42585667D01*
X86948954Y-42735902D01*
X86906666Y-42842422D01*
X86847521Y-42979476D01*
X86782042Y-43049362D01*
X86679451Y-43183583D01*
X86531414Y-43439114D01*
X86355042Y-43779911D01*
X86167447Y-44169929D01*
X85985738Y-44573124D01*
X85827027Y-44953452D01*
X85708424Y-45274867D01*
X85675815Y-45379667D01*
X85591602Y-45669427D01*
X85521112Y-45904490D01*
X85486033Y-46014667D01*
X85442594Y-46153938D01*
X85407675Y-46315308D01*
X85369237Y-46559105D01*
X85349165Y-46700469D01*
X85310101Y-46929202D01*
X85271915Y-47075434D01*
X85260909Y-47095980D01*
X85248720Y-47190257D01*
X85241572Y-47422473D01*
X85238971Y-47761324D01*
X85240423Y-48175506D01*
X85245437Y-48633715D01*
X85253518Y-49104648D01*
X85264174Y-49556999D01*
X85276911Y-49959466D01*
X85291237Y-50280744D01*
X85306658Y-50489530D01*
X85315228Y-50544333D01*
X85361032Y-50737460D01*
X85416559Y-50998165D01*
X85427428Y-51052333D01*
X85475190Y-51292886D01*
X85510173Y-51468178D01*
X85515307Y-51493668D01*
X85609619Y-51836214D01*
X85765869Y-52269831D01*
X85967033Y-52758239D01*
X86196088Y-53265158D01*
X86436011Y-53754311D01*
X86669779Y-54189418D01*
X86880368Y-54534200D01*
X87038555Y-54739966D01*
X87177316Y-54907260D01*
X87244236Y-55031451D01*
X87245333Y-55041366D01*
X87303880Y-55133699D01*
X87464015Y-55317617D01*
X87702484Y-55570306D01*
X87996031Y-55868948D01*
X88321399Y-56190730D01*
X88655333Y-56512836D01*
X88974577Y-56812451D01*
X89255876Y-57066758D01*
X89475974Y-57252943D01*
X89573666Y-57325607D01*
X89784514Y-57474964D01*
X89931657Y-57595992D01*
X89964133Y-57631972D01*
X90071221Y-57714504D01*
X90091133Y-57718198D01*
X90205600Y-57762270D01*
X90398574Y-57865893D01*
X90462666Y-57904085D01*
X90855499Y-58126366D01*
X91280899Y-58338797D01*
X91690070Y-58519286D01*
X92034215Y-58645737D01*
X92191688Y-58686959D01*
X92389919Y-58761191D01*
X92466855Y-58811385D01*
X92561446Y-58867345D01*
X92579333Y-58855789D01*
X92649832Y-58850858D01*
X92827263Y-58896115D01*
X92918000Y-58926333D01*
X93124463Y-58991564D01*
X93244406Y-59014726D01*
X93256666Y-59009340D01*
X93324090Y-59008171D01*
X93465172Y-59052131D01*
X93775045Y-59131116D01*
X94218675Y-59192056D01*
X94761493Y-59234946D01*
X95368929Y-59259782D01*
X96006415Y-59266557D01*
X96639380Y-59255268D01*
X97233255Y-59225907D01*
X97753471Y-59178472D01*
X98165458Y-59112955D01*
X98380222Y-59052868D01*
X98534307Y-59005984D01*
X98590666Y-59009340D01*
X98661345Y-59006643D01*
X98839179Y-58956821D01*
X98929333Y-58926333D01*
X99135716Y-58862014D01*
X99255685Y-58841069D01*
X99268000Y-58847596D01*
X99333150Y-58841126D01*
X99492819Y-58771835D01*
X99521113Y-58757459D01*
X99712062Y-58665506D01*
X99834035Y-58618935D01*
X99838613Y-58618141D01*
X100112528Y-58540713D01*
X100487353Y-58376838D01*
X100931504Y-58145520D01*
X101413398Y-57865760D01*
X101901451Y-57556561D01*
X102364079Y-57236926D01*
X102769700Y-56925856D01*
X103029342Y-56698401D01*
X103248364Y-56501964D01*
X103423040Y-56367091D01*
X103515834Y-56322736D01*
X103516175Y-56322833D01*
X103583377Y-56281141D01*
X103586000Y-56258855D01*
X103640758Y-56161971D01*
X103786521Y-55978547D01*
X103995518Y-55742739D01*
X104072833Y-55660089D01*
X104301092Y-55412736D01*
X104480742Y-55205815D01*
X104581744Y-55074351D01*
X104592418Y-55054311D01*
X104657918Y-54942359D01*
X104795811Y-54742774D01*
X104951888Y-54531244D01*
X105121980Y-54292935D01*
X105240283Y-54100496D01*
X105278969Y-54004867D01*
X105338158Y-53875979D01*
X105408379Y-53802302D01*
X105494651Y-53696405D01*
X105492861Y-53650639D01*
X105507944Y-53563010D01*
X105588604Y-53451037D01*
X105675097Y-53335452D01*
X105674902Y-53296000D01*
X105677861Y-53231393D01*
X105749875Y-53069357D01*
X105790049Y-52994832D01*
X105904470Y-52766532D01*
X105975053Y-52579976D01*
X105981552Y-52550332D01*
X106033127Y-52371373D01*
X106060388Y-52316632D01*
X106110410Y-52189049D01*
X106186896Y-51940698D01*
X106277895Y-51615729D01*
X106371455Y-51258294D01*
X106455626Y-50912541D01*
X106517210Y-50629000D01*
X106542000Y-50409145D01*
X106560976Y-50055471D01*
X106574138Y-49603392D01*
X106581486Y-49088321D01*
X106583019Y-48545673D01*
X106578737Y-48010862D01*
X106568641Y-47519302D01*
X106552729Y-47106407D01*
X106531002Y-46807590D01*
X106517232Y-46708124D01*
X106455294Y-46381908D01*
X106417432Y-46187918D01*
X106396440Y-46091962D01*
X106385113Y-46059848D01*
X106380000Y-46057000D01*
X106355558Y-45987784D01*
X106339421Y-45913884D01*
X106289530Y-45716419D01*
X106211055Y-45460199D01*
X106127091Y-45215794D01*
X106060733Y-45053773D01*
X106053763Y-45041000D01*
X105993910Y-44880208D01*
X105986576Y-44842802D01*
X105934401Y-44690782D01*
X105817111Y-44430980D01*
X105654827Y-44101931D01*
X105467669Y-43742169D01*
X105275757Y-43390230D01*
X105099213Y-43084648D01*
X104958158Y-42863958D01*
X104940646Y-42839667D01*
X104775478Y-42603784D01*
X104646202Y-42397412D01*
X104611351Y-42331667D01*
X104514295Y-42192336D01*
X104330444Y-41979864D01*
X104096817Y-41736628D01*
X104059205Y-41699559D01*
X103834263Y-41464713D01*
X103667275Y-41262054D01*
X103588505Y-41129037D01*
X103586000Y-41113948D01*
X103558644Y-41033923D01*
X103532973Y-41044138D01*
X103462687Y-41026056D01*
X103304434Y-40909380D01*
X103050266Y-40687320D01*
X102692238Y-40353086D01*
X102431754Y-40103119D01*
X102337860Y-40039142D01*
X102316000Y-40055459D01*
X102261772Y-40048089D01*
X102127118Y-39949749D01*
X102083166Y-39911632D01*
X101840792Y-39711246D01*
X101596333Y-39530470D01*
X101406051Y-39413171D01*
X101141655Y-39265845D01*
X100838651Y-39106255D01*
X100532543Y-38952163D01*
X100258836Y-38821331D01*
X100053034Y-38731522D01*
X99950643Y-38700497D01*
X99945333Y-38704512D01*
X99893177Y-38705778D01*
X99839500Y-38670067D01*
X99668456Y-38579420D01*
X99394430Y-38478107D01*
X99080689Y-38387623D01*
X98878218Y-38343478D01*
X98684365Y-38299094D01*
X98580676Y-38261492D01*
X98463225Y-38226200D01*
X98245061Y-38184961D01*
X98151409Y-38170918D01*
X97881473Y-38124085D01*
X97659399Y-38070224D01*
X97617000Y-38056053D01*
X97461853Y-38030686D01*
X97171387Y-38012037D01*
X96779474Y-37999935D01*
X96319990Y-37994208D01*
X96319990Y-34076667D01*
X112010333Y-34076667D01*
X112010333Y-54735333D01*
X111968000Y-54777667D01*
X112010333Y-54820000D01*
X112052666Y-54777667D01*
X112010333Y-54735333D01*
X112010333Y-34076667D01*
X120942666Y-34076667D01*
X120942666Y-38349458D01*
X120934268Y-44870229D01*
X120932575Y-45910796D01*
X120930272Y-46905515D01*
X120927432Y-47840906D01*
X120924129Y-48703487D01*
X120920433Y-49479776D01*
X120916420Y-50156294D01*
X120912160Y-50719557D01*
X120907728Y-51156086D01*
X120903195Y-51452400D01*
X120898635Y-51595016D01*
X120897909Y-51602667D01*
X120870955Y-51813848D01*
X120835091Y-52103393D01*
X120818744Y-52237667D01*
X120771722Y-52593884D01*
X120729430Y-52854297D01*
X120697097Y-52988274D01*
X120688666Y-52999667D01*
X120667837Y-53046349D01*
X120628441Y-53206414D01*
X120581260Y-53423000D01*
X120522109Y-53627810D01*
X120447608Y-53830678D01*
X120378480Y-54011742D01*
X120350000Y-54110490D01*
X120309499Y-54247120D01*
X120209465Y-54464993D01*
X120082103Y-54703022D01*
X119959616Y-54900118D01*
X119888524Y-54985855D01*
X119779122Y-55120893D01*
X119757333Y-55193092D01*
X119700670Y-55295930D01*
X119550713Y-55478768D01*
X119337507Y-55705585D01*
X119291666Y-55751333D01*
X119073762Y-55957904D01*
X118910418Y-56096323D01*
X118829887Y-56143160D01*
X118826000Y-56137485D01*
X118773684Y-56125838D01*
X118677833Y-56189683D01*
X118539864Y-56282706D01*
X118334163Y-56397706D01*
X118116821Y-56506345D01*
X117943932Y-56580280D01*
X117875038Y-56595290D01*
X117789195Y-56615728D01*
X117611806Y-56677823D01*
X117598333Y-56682935D01*
X117158159Y-56798010D01*
X116605500Y-56863399D01*
X115989563Y-56879716D01*
X115359553Y-56847575D01*
X114764676Y-56767591D01*
X114256641Y-56641211D01*
X113837561Y-56475329D01*
X113422685Y-56264564D01*
X113041490Y-56029339D01*
X112723452Y-55790078D01*
X112498047Y-55567206D01*
X112394752Y-55381147D01*
X112391333Y-55348728D01*
X112345621Y-55274613D01*
X112306666Y-55285667D01*
X112232121Y-55269053D01*
X112222000Y-55219119D01*
X112163799Y-55076942D01*
X112052666Y-54947000D01*
X111926433Y-54807218D01*
X111883333Y-54717566D01*
X111850641Y-54600900D01*
X111767687Y-54391434D01*
X111714313Y-54270353D01*
X111473296Y-53616503D01*
X111281308Y-52833518D01*
X111145515Y-51956339D01*
X111080487Y-51179333D01*
X111076327Y-51019060D01*
X111072126Y-50704083D01*
X111067959Y-50249035D01*
X111063901Y-49668544D01*
X111060027Y-48977241D01*
X111056413Y-48189757D01*
X111053134Y-47320721D01*
X111050266Y-46384765D01*
X111047882Y-45396519D01*
X111046303Y-44531562D01*
X111036666Y-38349458D01*
X109787833Y-38361839D01*
X109347244Y-38366847D01*
X108971311Y-38372334D01*
X108690353Y-38377764D01*
X108534689Y-38382597D01*
X108513574Y-38384443D01*
X108507157Y-38469546D01*
X108502378Y-38709081D01*
X108499143Y-39088156D01*
X108497355Y-39591879D01*
X108496919Y-40205358D01*
X108497738Y-40913699D01*
X108499717Y-41702012D01*
X108502759Y-42555404D01*
X108506770Y-43458982D01*
X108511653Y-44397855D01*
X108517312Y-45357130D01*
X108523651Y-46321916D01*
X108530575Y-47277319D01*
X108537987Y-48208447D01*
X108545793Y-49100409D01*
X108553895Y-49938312D01*
X108562198Y-50707264D01*
X108570607Y-51392373D01*
X108579025Y-51978746D01*
X108587356Y-52451492D01*
X108595505Y-52795717D01*
X108603375Y-52996530D01*
X108607928Y-53042000D01*
X108688021Y-53371478D01*
X108771155Y-53791290D01*
X108784219Y-53865049D01*
X108844797Y-54007936D01*
X108861105Y-54027327D01*
X108908911Y-54151758D01*
X108920000Y-54269667D01*
X108946657Y-54445503D01*
X108983500Y-54516611D01*
X109055183Y-54644956D01*
X109057583Y-54657722D01*
X109087823Y-54774508D01*
X109089333Y-54777667D01*
X109124296Y-54883500D01*
X109194494Y-55073469D01*
X109323796Y-55335705D01*
X109475854Y-55602611D01*
X109614317Y-55806589D01*
X109632449Y-55828486D01*
X109719470Y-55947729D01*
X109698716Y-55971155D01*
X109682000Y-55963000D01*
X109645345Y-55967980D01*
X109714787Y-56068144D01*
X109745500Y-56102971D01*
X109876944Y-56276880D01*
X109935777Y-56412597D01*
X109936000Y-56417953D01*
X109985082Y-56483174D01*
X110020666Y-56471000D01*
X110096220Y-56486295D01*
X110105333Y-56531372D01*
X110162440Y-56632060D01*
X110317880Y-56822588D01*
X110547831Y-57075528D01*
X110825000Y-57360000D01*
X111101736Y-57630577D01*
X111329163Y-57843950D01*
X111484399Y-57979299D01*
X111544561Y-58015802D01*
X111544666Y-58014857D01*
X111599254Y-58022043D01*
X111733574Y-58118600D01*
X111763117Y-58143726D01*
X111925353Y-58267827D01*
X112032008Y-58319118D01*
X112038283Y-58318533D01*
X112143096Y-58352668D01*
X112222000Y-58406851D01*
X112383973Y-58508806D01*
X112629679Y-58630151D01*
X112920019Y-58755770D01*
X113215893Y-58870547D01*
X113478203Y-58959364D01*
X113667850Y-59007104D01*
X113745735Y-58998651D01*
X113746000Y-58996073D01*
X113798242Y-58999614D01*
X113864828Y-59046551D01*
X114049757Y-59125727D01*
X114372169Y-59187522D01*
X114801106Y-59231926D01*
X115305612Y-59258930D01*
X115854730Y-59268524D01*
X116417501Y-59260698D01*
X116962970Y-59235442D01*
X117460179Y-59192747D01*
X117878171Y-59132603D01*
X118185988Y-59055001D01*
X118205252Y-59047914D01*
X118352903Y-59008882D01*
X118402666Y-59023462D01*
X118454397Y-59023065D01*
X118515145Y-58980718D01*
X118695403Y-58886751D01*
X118790312Y-58862069D01*
X118998385Y-58798619D01*
X119080000Y-58756931D01*
X119252674Y-58676927D01*
X119317250Y-58660391D01*
X119461575Y-58604024D01*
X119654611Y-58491750D01*
X119655917Y-58490877D01*
X119825277Y-58384052D01*
X119924340Y-58333479D01*
X119926666Y-58333056D01*
X120095931Y-58258588D01*
X120349423Y-58079216D01*
X120661477Y-57818866D01*
X121006428Y-57501464D01*
X121358612Y-57150936D01*
X121692361Y-56791208D01*
X121982011Y-56446207D01*
X122060317Y-56344000D01*
X122423043Y-55775072D01*
X122760310Y-55092606D01*
X123049332Y-54352377D01*
X123267320Y-53610159D01*
X123357536Y-53169000D01*
X123385642Y-52976358D01*
X123410244Y-52755271D01*
X123431583Y-52493879D01*
X123449897Y-52180318D01*
X123465427Y-51802729D01*
X123478411Y-51349248D01*
X123489090Y-50808015D01*
X123497702Y-50167168D01*
X123504488Y-49414845D01*
X123509687Y-48539184D01*
X123513537Y-47528325D01*
X123516280Y-46370405D01*
X123517963Y-45223661D01*
X123518514Y-43824505D01*
X123516753Y-42582265D01*
X123512700Y-41498485D01*
X123506372Y-40574711D01*
X123497785Y-39812489D01*
X123486959Y-39213364D01*
X123473909Y-38778882D01*
X123458654Y-38510588D01*
X123441211Y-38410028D01*
X123440731Y-38409666D01*
X123329299Y-38390071D01*
X123081452Y-38373199D01*
X122730104Y-38360504D01*
X122308171Y-38353442D01*
X122149166Y-38352568D01*
X120942666Y-38349458D01*
X120942666Y-34076667D01*
X137114000Y-34076667D01*
X137114000Y-38352041D01*
X124837333Y-38352041D01*
X124837333Y-40725268D01*
X127215379Y-40722993D01*
X127981112Y-40725325D01*
X128612153Y-40733733D01*
X129100781Y-40747954D01*
X129439277Y-40767721D01*
X129619919Y-40792769D01*
X129648250Y-40806525D01*
X129655705Y-40901182D01*
X129662886Y-41154021D01*
X129669722Y-41553892D01*
X129676146Y-42089645D01*
X129682088Y-42750129D01*
X129687478Y-43524193D01*
X129692248Y-44400687D01*
X129696329Y-45368461D01*
X129699651Y-46416364D01*
X129702146Y-47533245D01*
X129703745Y-48707953D01*
X129704370Y-49867000D01*
X129705666Y-58841667D01*
X130996452Y-58865036D01*
X132287237Y-58888406D01*
X132330333Y-40723000D01*
X134722166Y-40723749D01*
X137114000Y-40724499D01*
X137114000Y-38352041D01*
X137114000Y-34076667D01*
X148925174Y-34076667D01*
X148925174Y-38350968D01*
X146342666Y-38350968D01*
X146342666Y-58884000D01*
X148925174Y-58884000D01*
X148925174Y-38350968D01*
X148925174Y-34076667D01*
X162852666Y-34076667D01*
X162852666Y-38352041D01*
X150576000Y-38352041D01*
X150576000Y-40725268D01*
X152954046Y-40722993D01*
X153719779Y-40725325D01*
X154350820Y-40733733D01*
X154839448Y-40747954D01*
X155177943Y-40767721D01*
X155358586Y-40792769D01*
X155386916Y-40806525D01*
X155394372Y-40901182D01*
X155401552Y-41154021D01*
X155408389Y-41553892D01*
X155414813Y-42089645D01*
X155420754Y-42750129D01*
X155426145Y-43524193D01*
X155430915Y-44400687D01*
X155434996Y-45368461D01*
X155438318Y-46416364D01*
X155440813Y-47533245D01*
X155442411Y-48707953D01*
X155443037Y-49867000D01*
X155444333Y-58841667D01*
X157984333Y-58841667D01*
X157985630Y-49867000D01*
X157986313Y-48647694D01*
X157987958Y-47475626D01*
X157990496Y-46361946D01*
X157993858Y-45317806D01*
X157997975Y-44354354D01*
X158002778Y-43482743D01*
X158008198Y-42714122D01*
X158014166Y-42059642D01*
X158020612Y-41530454D01*
X158027467Y-41137708D01*
X158034663Y-40892554D01*
X158041750Y-40806525D01*
X158144241Y-40779047D01*
X158408275Y-40756723D01*
X158826130Y-40739819D01*
X159390087Y-40728601D01*
X160092424Y-40723332D01*
X160474620Y-40722993D01*
X162852666Y-40725268D01*
X162852666Y-38352041D01*
X162852666Y-34076667D01*
X181376820Y-34076667D01*
X181376820Y-38019309D01*
X180870695Y-38022485D01*
X180405979Y-38030924D01*
X180017783Y-38044679D01*
X179741219Y-38063806D01*
X179659000Y-38074807D01*
X179258995Y-38149887D01*
X178981780Y-38209614D01*
X178782675Y-38263682D01*
X178770000Y-38267666D01*
X178554158Y-38325499D01*
X178425694Y-38353419D01*
X178139716Y-38423810D01*
X177846163Y-38519399D01*
X177610714Y-38617192D01*
X177521166Y-38670067D01*
X177430527Y-38710061D01*
X177415333Y-38688245D01*
X177363201Y-38688025D01*
X177246000Y-38775667D01*
X177124147Y-38864864D01*
X177076666Y-38860333D01*
X177024621Y-38858085D01*
X176907333Y-38945000D01*
X176785480Y-39034197D01*
X176738000Y-39029667D01*
X176685954Y-39027418D01*
X176568666Y-39114333D01*
X176446814Y-39203531D01*
X176399333Y-39199000D01*
X176348141Y-39193585D01*
X176251166Y-39264511D01*
X176120388Y-39365508D01*
X176060666Y-39390209D01*
X175968203Y-39430043D01*
X175777383Y-39545061D01*
X175526450Y-39710380D01*
X175253651Y-39901114D01*
X175087000Y-40023711D01*
X174905584Y-40174128D01*
X174654282Y-40400999D01*
X174356803Y-40680828D01*
X174036853Y-40990119D01*
X173718139Y-41305377D01*
X173424368Y-41603107D01*
X173179246Y-41859812D01*
X173006481Y-42051998D01*
X172929780Y-42156169D01*
X172928000Y-42163452D01*
X172871420Y-42276761D01*
X172730150Y-42444869D01*
X172674000Y-42501000D01*
X172514949Y-42671860D01*
X172426479Y-42802784D01*
X172420000Y-42827674D01*
X172369025Y-42953688D01*
X172301703Y-43044666D01*
X172178115Y-43221632D01*
X172014277Y-43504794D01*
X171835788Y-43844341D01*
X171668248Y-44190465D01*
X171537256Y-44493356D01*
X171489673Y-44624689D01*
X171405033Y-44854184D01*
X171325953Y-45014258D01*
X171309105Y-45036767D01*
X171247802Y-45181484D01*
X171234666Y-45297822D01*
X171209693Y-45470226D01*
X171175771Y-45537339D01*
X171104983Y-45669948D01*
X171097757Y-45699617D01*
X171042727Y-45981497D01*
X171000232Y-46169612D01*
X170980480Y-46226333D01*
X170953032Y-46308766D01*
X170909982Y-46548957D01*
X170862498Y-46869802D01*
X170823387Y-47098593D01*
X170785089Y-47244934D01*
X170774037Y-47265519D01*
X170760811Y-47361324D01*
X170753942Y-47593763D01*
X170752733Y-47930284D01*
X170756482Y-48338334D01*
X170764492Y-48785361D01*
X170776063Y-49238812D01*
X170790497Y-49666135D01*
X170807093Y-50034778D01*
X170825154Y-50312189D01*
X170842630Y-50459667D01*
X170894637Y-50723608D01*
X170931564Y-50925333D01*
X170963267Y-51083949D01*
X170980853Y-51137000D01*
X171006701Y-51202085D01*
X171054544Y-51408203D01*
X171094723Y-51602667D01*
X171130912Y-51760993D01*
X171150000Y-51814333D01*
X171173437Y-51884916D01*
X171195780Y-51989671D01*
X171258824Y-52190534D01*
X171358300Y-52413005D01*
X171447866Y-52605449D01*
X171487996Y-52732526D01*
X171488145Y-52736089D01*
X171526951Y-52864163D01*
X171627879Y-53096284D01*
X171768981Y-53389507D01*
X171928309Y-53700888D01*
X172083916Y-53987485D01*
X172213852Y-54206354D01*
X172293996Y-54312827D01*
X172399851Y-54434365D01*
X172420000Y-54490755D01*
X172477529Y-54624506D01*
X172636407Y-54851696D01*
X172876072Y-55148240D01*
X173175960Y-55490056D01*
X173515508Y-55853061D01*
X173874154Y-56213171D01*
X173966219Y-56301667D01*
X174306657Y-56625319D01*
X174556133Y-56859377D01*
X174746467Y-57030857D01*
X174909479Y-57166777D01*
X175076990Y-57294152D01*
X175280819Y-57440002D01*
X175433076Y-57547119D01*
X175632758Y-57674010D01*
X175919444Y-57839268D01*
X176259541Y-58025488D01*
X176619453Y-58215261D01*
X176965586Y-58391183D01*
X177264344Y-58535847D01*
X177482133Y-58631845D01*
X177584666Y-58661927D01*
X177681320Y-58682882D01*
X177887731Y-58745617D01*
X178091471Y-58813487D01*
X178387928Y-58909612D01*
X178650640Y-58984924D01*
X178768805Y-59012438D01*
X179031876Y-59063850D01*
X179193333Y-59097678D01*
X179600631Y-59170164D01*
X180067925Y-59219981D01*
X180629726Y-59249660D01*
X181320551Y-59261730D01*
X181437000Y-59262178D01*
X182258158Y-59253382D01*
X182918910Y-59222280D01*
X183426789Y-59168253D01*
X183789328Y-59090685D01*
X183871166Y-59062619D01*
X184035177Y-59010040D01*
X184103996Y-59009138D01*
X184104000Y-59009340D01*
X184174679Y-59006643D01*
X184352512Y-58956821D01*
X184442666Y-58926333D01*
X184649050Y-58862014D01*
X184769018Y-58841069D01*
X184781333Y-58847596D01*
X184846483Y-58841126D01*
X185006152Y-58771835D01*
X185034446Y-58757459D01*
X185225416Y-58665322D01*
X185347383Y-58618336D01*
X185351946Y-58617505D01*
X185420242Y-58603586D01*
X185529266Y-58569134D01*
X185728448Y-58497905D01*
X185839666Y-58457227D01*
X186028094Y-58392499D01*
X186134392Y-58364072D01*
X186136000Y-58364015D01*
X186224355Y-58313809D01*
X186326500Y-58229844D01*
X186438676Y-58147864D01*
X186474666Y-58151821D01*
X186536853Y-58137273D01*
X186698920Y-58043633D01*
X186898000Y-57910333D01*
X187118291Y-57763099D01*
X187271393Y-57675302D01*
X187321333Y-57664494D01*
X187377393Y-57645316D01*
X187520127Y-57538648D01*
X187620613Y-57453437D01*
X187809668Y-57297475D01*
X187947014Y-57202307D01*
X187980446Y-57188813D01*
X188066628Y-57133847D01*
X188240872Y-56989750D01*
X188469305Y-56784889D01*
X188527833Y-56730391D01*
X188754306Y-56523628D01*
X188924673Y-56378810D01*
X189009971Y-56320201D01*
X189014666Y-56322553D01*
X189062671Y-56292479D01*
X189185791Y-56162706D01*
X189289833Y-56041742D01*
X189507796Y-55787629D01*
X189769006Y-55492546D01*
X189924833Y-55320819D01*
X190113035Y-55103639D01*
X190243275Y-54929493D01*
X190284666Y-54845508D01*
X190341694Y-54731217D01*
X190454000Y-54608333D01*
X190580964Y-54459165D01*
X190623333Y-54354333D01*
X190680929Y-54226755D01*
X190793186Y-54099863D01*
X190903452Y-53973995D01*
X190920001Y-53903112D01*
X190937124Y-53817049D01*
X191025315Y-53696148D01*
X191126429Y-53571074D01*
X191147898Y-53519944D01*
X191163857Y-53443484D01*
X191229845Y-53261552D01*
X191325962Y-53022897D01*
X191432311Y-52776266D01*
X191528992Y-52570409D01*
X191558525Y-52513982D01*
X191628678Y-52307346D01*
X191639333Y-52210593D01*
X191668058Y-52047722D01*
X191698228Y-51995327D01*
X191769016Y-51862719D01*
X191776243Y-51833049D01*
X191860887Y-51444477D01*
X191918941Y-51264000D01*
X192004772Y-50951657D01*
X192073720Y-50505659D01*
X192124993Y-49960915D01*
X192157794Y-49352336D01*
X192171330Y-48714835D01*
X192164806Y-48083322D01*
X192137428Y-47492707D01*
X192088402Y-46977903D01*
X192024902Y-46607333D01*
X191970053Y-46350665D01*
X191934353Y-46167186D01*
X191868678Y-45900495D01*
X191810321Y-45722686D01*
X191766654Y-45566356D01*
X191778796Y-45506667D01*
X191778398Y-45454936D01*
X191736052Y-45394188D01*
X191639135Y-45214175D01*
X191611404Y-45119021D01*
X191576186Y-44973959D01*
X191514779Y-44796609D01*
X191410801Y-44543553D01*
X191288189Y-44262478D01*
X191193687Y-44032442D01*
X191137813Y-43865432D01*
X191131333Y-43828345D01*
X191073132Y-43714535D01*
X191000142Y-43640521D01*
X190885229Y-43498399D01*
X190753013Y-43271296D01*
X190708000Y-43178333D01*
X190581121Y-42937925D01*
X190454311Y-42755231D01*
X190415858Y-42716145D01*
X190306987Y-42590613D01*
X190284666Y-42527993D01*
X190225495Y-42420488D01*
X190055303Y-42208409D01*
X189785073Y-41904607D01*
X189425790Y-41521933D01*
X189416833Y-41512584D01*
X189304282Y-41378156D01*
X189268666Y-41309619D01*
X189214793Y-41206845D01*
X189100923Y-41108373D01*
X188998682Y-41071704D01*
X188982413Y-41079809D01*
X188938322Y-41058851D01*
X188930000Y-40991111D01*
X188891490Y-40869614D01*
X188851881Y-40850000D01*
X188753788Y-40796787D01*
X188572574Y-40657455D01*
X188353365Y-40467418D01*
X188074347Y-40225723D01*
X187786950Y-39995806D01*
X187605984Y-39864011D01*
X187396117Y-39711468D01*
X187247729Y-39583977D01*
X187216796Y-39548093D01*
X187160872Y-39505133D01*
X187153296Y-39529622D01*
X187101081Y-39541702D01*
X187003833Y-39473937D01*
X186878934Y-39391618D01*
X186645041Y-39259324D01*
X186346127Y-39099716D01*
X186026162Y-38935452D01*
X185729119Y-38789194D01*
X185498969Y-38683599D01*
X185392659Y-38643654D01*
X185274474Y-38604451D01*
X185120000Y-38547272D01*
X184910689Y-38478683D01*
X184598669Y-38389220D01*
X184246328Y-38295664D01*
X183916052Y-38214793D01*
X183744702Y-38177369D01*
X183517124Y-38129103D01*
X183299666Y-38080453D01*
X183113173Y-38058135D01*
X182792530Y-38040808D01*
X182372849Y-38028524D01*
X181889242Y-38021340D01*
X181376820Y-38019309D01*
X181376820Y-34076667D01*
X194926037Y-34076667D01*
X194926037Y-38346158D01*
X194550605Y-38347996D01*
X194269427Y-38352014D01*
X194113697Y-38357872D01*
X194093405Y-38360703D01*
X194086389Y-38446220D01*
X194080354Y-38686160D01*
X194075269Y-39065617D01*
X194071103Y-39569683D01*
X194067827Y-40183451D01*
X194065410Y-40892015D01*
X194063822Y-41680467D01*
X194063032Y-42533901D01*
X194063011Y-43437409D01*
X194063729Y-44376084D01*
X194065154Y-45335020D01*
X194067256Y-46299310D01*
X194070006Y-47254045D01*
X194073374Y-48184320D01*
X194077328Y-49075228D01*
X194081839Y-49911861D01*
X194086876Y-50679313D01*
X194092410Y-51362676D01*
X194098410Y-51947044D01*
X194104845Y-52417509D01*
X194111686Y-52759164D01*
X194118902Y-52957104D01*
X194123108Y-52999667D01*
X194163531Y-53136257D01*
X194179817Y-53169000D01*
X194200300Y-53242102D01*
X194231029Y-53418407D01*
X194231727Y-53423000D01*
X194303414Y-53753920D01*
X194421994Y-54155252D01*
X194570027Y-54580254D01*
X194730072Y-54982184D01*
X194884688Y-55314299D01*
X195016434Y-55529858D01*
X195019040Y-55533054D01*
X195101318Y-55643191D01*
X195070591Y-55648529D01*
X195026000Y-55625234D01*
X194989341Y-55629619D01*
X195058733Y-55729427D01*
X195089500Y-55764304D01*
X195220402Y-55932345D01*
X195279693Y-56055871D01*
X195280000Y-56061168D01*
X195337138Y-56178093D01*
X195449333Y-56301667D01*
X195576215Y-56449768D01*
X195618666Y-56552905D01*
X195674106Y-56645042D01*
X195821614Y-56818132D01*
X196032976Y-57044254D01*
X196279976Y-57295490D01*
X196534398Y-57543920D01*
X196768028Y-57761625D01*
X196952649Y-57920686D01*
X197060046Y-57993183D01*
X197074071Y-57993040D01*
X197153200Y-58016855D01*
X197269197Y-58121481D01*
X197419542Y-58248763D01*
X197526422Y-58291333D01*
X197662478Y-58350532D01*
X197737031Y-58420379D01*
X197842928Y-58506651D01*
X197888694Y-58504861D01*
X197975887Y-58520852D01*
X198097185Y-58608648D01*
X198238707Y-58716371D01*
X198315722Y-58746613D01*
X198375869Y-58746173D01*
X198479671Y-58774982D01*
X198673828Y-58847491D01*
X198793666Y-58894497D01*
X199012881Y-58973249D01*
X199174666Y-59019095D01*
X199341681Y-59052076D01*
X199577062Y-59099460D01*
X199598000Y-59103711D01*
X199911416Y-59164009D01*
X200184104Y-59205451D01*
X200462466Y-59231734D01*
X200792906Y-59246554D01*
X201221827Y-59253606D01*
X201503000Y-59255448D01*
X202222350Y-59249434D01*
X202793756Y-59222498D01*
X203237527Y-59172837D01*
X203573970Y-59098646D01*
X203683166Y-59061649D01*
X203847143Y-59011491D01*
X203915996Y-59015017D01*
X203916000Y-59015270D01*
X203981112Y-59009921D01*
X204140702Y-58941216D01*
X204169113Y-58926792D01*
X204353158Y-58839165D01*
X204462645Y-58800937D01*
X204466912Y-58800931D01*
X204595688Y-58767798D01*
X204826813Y-58668351D01*
X205117757Y-58523935D01*
X205425992Y-58355895D01*
X205708987Y-58185575D01*
X205762235Y-58150848D01*
X205990269Y-57980342D01*
X206270379Y-57742670D01*
X206575935Y-57464038D01*
X206880309Y-57170654D01*
X207156872Y-56888726D01*
X207378996Y-56644463D01*
X207520051Y-56464071D01*
X207556666Y-56384786D01*
X207614206Y-56258355D01*
X207726000Y-56132333D01*
X207853045Y-55982097D01*
X207895333Y-55875578D01*
X207954532Y-55739521D01*
X208024379Y-55664968D01*
X208110651Y-55559071D01*
X208108861Y-55513306D01*
X208124852Y-55426112D01*
X208212648Y-55304815D01*
X208320137Y-55163321D01*
X208349976Y-55086278D01*
X208368869Y-54974122D01*
X208419428Y-54820000D01*
X208475656Y-54664764D01*
X208491230Y-54608333D01*
X208511706Y-54535602D01*
X208573684Y-54346331D01*
X208650051Y-54121500D01*
X208731300Y-53866859D01*
X208775367Y-53690651D01*
X208774776Y-53634667D01*
X208772260Y-53578180D01*
X208798122Y-53528833D01*
X208835080Y-53455856D01*
X208867673Y-53355581D01*
X208896197Y-53217569D01*
X208920943Y-53031379D01*
X208942206Y-52786571D01*
X208960278Y-52472705D01*
X208975455Y-52079343D01*
X208988028Y-51596042D01*
X208998292Y-51012364D01*
X209006540Y-50317869D01*
X209013066Y-49502117D01*
X209018162Y-48554667D01*
X209022123Y-47465080D01*
X209025242Y-46222915D01*
X209026844Y-45392988D01*
X209028314Y-43972064D01*
X209027425Y-42709249D01*
X209024192Y-41605925D01*
X209018629Y-40663469D01*
X209010750Y-39883260D01*
X209000569Y-39266679D01*
X208988102Y-38815104D01*
X208973362Y-38529915D01*
X208956364Y-38412491D01*
X208954055Y-38409660D01*
X208842626Y-38390068D01*
X208594782Y-38373197D01*
X208243437Y-38360503D01*
X207821505Y-38353442D01*
X207662500Y-38352568D01*
X206456000Y-38349458D01*
X206447601Y-44954896D01*
X206445989Y-46002248D01*
X206443901Y-47003778D01*
X206441399Y-47946100D01*
X206438545Y-48815825D01*
X206435398Y-49599567D01*
X206432020Y-50283939D01*
X206428471Y-50855553D01*
X206424814Y-51301022D01*
X206421107Y-51606959D01*
X206417413Y-51759976D01*
X206416586Y-51772000D01*
X206348288Y-52341232D01*
X206278067Y-52796674D01*
X206209626Y-53115846D01*
X206179526Y-53211333D01*
X206126874Y-53384815D01*
X206076195Y-53592333D01*
X205934074Y-54027765D01*
X205697660Y-54521818D01*
X205398583Y-55019902D01*
X205068476Y-55467429D01*
X204851239Y-55706349D01*
X204621510Y-55925219D01*
X204445149Y-56078172D01*
X204349175Y-56142439D01*
X204339333Y-56137727D01*
X204288191Y-56128679D01*
X204188068Y-56200649D01*
X204051496Y-56294309D01*
X203844238Y-56408202D01*
X203624606Y-56513758D01*
X203450908Y-56582408D01*
X203387237Y-56593015D01*
X203302304Y-56615304D01*
X203125501Y-56678801D01*
X203111666Y-56684117D01*
X202717033Y-56791369D01*
X202227365Y-56856352D01*
X201680750Y-56881078D01*
X201115277Y-56867559D01*
X200569031Y-56817807D01*
X200080100Y-56733833D01*
X199686571Y-56617651D01*
X199449833Y-56490682D01*
X199359029Y-56451800D01*
X199344000Y-56473755D01*
X199292710Y-56477040D01*
X199195833Y-56405489D01*
X199059335Y-56306800D01*
X198990950Y-56286533D01*
X198894775Y-56246966D01*
X198737341Y-56130326D01*
X198723032Y-56118029D01*
X198570493Y-56003161D01*
X198479916Y-55967744D01*
X198476094Y-55970128D01*
X198402766Y-55939377D01*
X198270113Y-55816046D01*
X198117485Y-55645167D01*
X197984230Y-55471775D01*
X197909697Y-55340901D01*
X197904666Y-55316145D01*
X197871958Y-55256262D01*
X197850237Y-55269541D01*
X197793084Y-55224337D01*
X197686274Y-55061498D01*
X197548765Y-54818198D01*
X197399515Y-54531610D01*
X197257480Y-54238908D01*
X197141619Y-53977265D01*
X197070889Y-53783857D01*
X197058000Y-53716048D01*
X197025531Y-53560501D01*
X196999105Y-53519327D01*
X196928317Y-53386719D01*
X196921090Y-53357049D01*
X196866060Y-53075169D01*
X196823565Y-52887055D01*
X196803813Y-52830333D01*
X196775658Y-52747468D01*
X196738004Y-52505376D01*
X196692258Y-52113811D01*
X196671577Y-51913205D01*
X196661696Y-51731401D01*
X196652069Y-51394893D01*
X196642841Y-50918308D01*
X196634155Y-50316276D01*
X196626158Y-49603425D01*
X196618994Y-48794384D01*
X196612806Y-47903782D01*
X196607742Y-46946247D01*
X196603944Y-45936408D01*
X196601558Y-44888893D01*
X196601469Y-44829333D01*
X196592057Y-38352333D01*
X195364529Y-38346841D01*
X194926037Y-38346158D01*
X194926037Y-34076667D01*
X215617033Y-34076667D01*
X215617033Y-38347178D01*
X214666590Y-38347808D01*
X213778391Y-38349317D01*
X212966155Y-38351640D01*
X212243601Y-38354708D01*
X211624449Y-38358454D01*
X211122419Y-38362811D01*
X210751230Y-38367712D01*
X210524602Y-38373089D01*
X210456500Y-38377721D01*
X210410506Y-38444330D01*
X210378682Y-38620479D01*
X210359450Y-38923929D01*
X210351233Y-39372441D01*
X210350666Y-39568987D01*
X210350666Y-40725190D01*
X212806000Y-40723000D01*
X215261333Y-40720810D01*
X215261333Y-58884000D01*
X217844061Y-58884000D01*
X217843864Y-49803500D01*
X217843666Y-40723000D01*
X222669666Y-40723000D01*
X222669666Y-38352333D01*
X216616000Y-38347496D01*
X215617033Y-38347178D01*
X215617033Y-34076667D01*
X225844666Y-34076667D01*
X225844666Y-63202000D01*
X2070666Y-63202000D01*
X2070666Y-63202000D01*
G37*
X2070666Y-63202000D02*
X2070666Y-34076667D01*
X5910003Y-34076667D01*
X5910003Y-38341796D01*
X5575529Y-38343325D01*
X5357645Y-38349638D01*
X5287824Y-38358190D01*
X5282420Y-38443785D01*
X5277222Y-38688375D01*
X5272272Y-39081619D01*
X5267613Y-39613181D01*
X5263286Y-40272719D01*
X5259335Y-41049896D01*
X5255802Y-41934372D01*
X5252730Y-42915808D01*
X5250160Y-43983865D01*
X5248135Y-45128205D01*
X5246699Y-46338487D01*
X5245892Y-47604374D01*
X5245728Y-48610190D01*
X5246140Y-58841667D01*
X8251506Y-58849092D01*
X8963805Y-58848626D01*
X9635095Y-58843960D01*
X10243385Y-58835564D01*
X10766686Y-58823912D01*
X11183008Y-58809474D01*
X11470361Y-58792724D01*
X11595603Y-58777302D01*
X11886057Y-58717051D01*
X12156115Y-58672723D01*
X12188333Y-58668720D01*
X12406150Y-58624770D01*
X12707445Y-58541371D01*
X12950333Y-58462622D01*
X13215819Y-58372062D01*
X13407635Y-58310032D01*
X13480439Y-58290663D01*
X13581023Y-58261020D01*
X13781636Y-58173144D01*
X14034270Y-58051009D01*
X14290913Y-57918590D01*
X14503558Y-57799862D01*
X14622500Y-57720342D01*
X14734684Y-57641763D01*
X14770666Y-57650325D01*
X14828687Y-57642586D01*
X14983204Y-57544061D01*
X15204904Y-57377300D01*
X15464473Y-57164855D01*
X15732597Y-56929275D01*
X15850166Y-56819890D01*
X16044478Y-56619526D01*
X16175132Y-56454585D01*
X16210000Y-56379072D01*
X16269037Y-56247501D01*
X16341191Y-56171188D01*
X16449250Y-56033814D01*
X16583706Y-55803796D01*
X16710267Y-55546569D01*
X16794635Y-55327573D01*
X16805283Y-55285667D01*
X16847346Y-55144988D01*
X16896221Y-55008289D01*
X16978533Y-54742061D01*
X17048295Y-54395387D01*
X17113615Y-53931000D01*
X17164003Y-53255120D01*
X17134726Y-52614122D01*
X17020560Y-51933837D01*
X16952684Y-51645000D01*
X16870710Y-51380122D01*
X16753514Y-51077716D01*
X16618656Y-50774102D01*
X16483695Y-50505598D01*
X16366191Y-50308524D01*
X16283704Y-50219199D01*
X16264532Y-50221689D01*
X16217424Y-50205083D01*
X16210000Y-50148233D01*
X16151493Y-49998715D01*
X16040666Y-49867000D01*
X15914319Y-49725774D01*
X15871333Y-49633744D01*
X15815923Y-49531889D01*
X15674816Y-49361915D01*
X15575000Y-49257400D01*
X15406549Y-49098132D01*
X15299196Y-49014280D01*
X15278666Y-49012520D01*
X15223687Y-48995500D01*
X15086045Y-48890880D01*
X15026287Y-48839102D01*
X14560678Y-48498181D01*
X14021374Y-48218257D01*
X13648833Y-48085511D01*
X13543000Y-48046667D01*
X13432470Y-48023968D01*
X13338389Y-48014917D01*
X13154707Y-47973571D01*
X13133804Y-47891191D01*
X13277228Y-47778500D01*
X13302298Y-47765131D01*
X13522033Y-47623226D01*
X13761854Y-47429505D01*
X13810574Y-47384407D01*
X13982338Y-47240004D01*
X14103273Y-47174612D01*
X14128074Y-47178297D01*
X14171051Y-47156860D01*
X14178000Y-47097478D01*
X14238306Y-46935142D01*
X14301244Y-46864450D01*
X14396157Y-46740442D01*
X14534933Y-46507284D01*
X14693980Y-46211146D01*
X14849707Y-45898197D01*
X14978524Y-45614605D01*
X15056839Y-45406539D01*
X15066916Y-45365975D01*
X15097492Y-45236302D01*
X15109817Y-45210333D01*
X15147380Y-45131524D01*
X15178061Y-44918315D01*
X15200909Y-44605537D01*
X15214976Y-44228021D01*
X15219311Y-43820597D01*
X15212965Y-43418095D01*
X15194986Y-43055346D01*
X15174472Y-42839667D01*
X15102215Y-42469568D01*
X14978690Y-42047313D01*
X14821117Y-41615597D01*
X14646715Y-41217118D01*
X14472706Y-40894570D01*
X14316309Y-40690652D01*
X14303055Y-40679053D01*
X14197470Y-40552921D01*
X14178000Y-40492602D01*
X14115671Y-40385521D01*
X13955376Y-40214793D01*
X13737155Y-40014894D01*
X13501047Y-39820303D01*
X13287092Y-39665497D01*
X13135329Y-39584953D01*
X13119666Y-39581288D01*
X12988730Y-39519470D01*
X12908000Y-39459836D01*
X12675883Y-39318969D01*
X12422989Y-39237986D01*
X12420278Y-39237616D01*
X12314523Y-39179827D01*
X12209500Y-39095178D01*
X12097371Y-39013765D01*
X12061333Y-39018718D01*
X11996545Y-39023560D01*
X11837568Y-38960226D01*
X11807333Y-38945000D01*
X11637907Y-38867842D01*
X11554996Y-38850603D01*
X11553333Y-38854403D01*
X11482699Y-38854281D01*
X11304895Y-38805994D01*
X11213488Y-38775251D01*
X10994710Y-38701940D01*
X10852269Y-38661415D01*
X10831079Y-38658424D01*
X10725688Y-38644347D01*
X10554958Y-38610204D01*
X10299026Y-38564206D01*
X10027201Y-38528061D01*
X9776031Y-38499958D01*
X9445662Y-38460773D01*
X9225000Y-38433623D01*
X9025213Y-38417330D01*
X8704815Y-38401276D01*
X8293457Y-38386030D01*
X7820788Y-38372160D01*
X7316458Y-38360233D01*
X6810117Y-38350818D01*
X6331415Y-38344483D01*
X5910003Y-38341796D01*
X5910003Y-34076667D01*
X20512927Y-34076667D01*
X20512927Y-38346114D01*
X20137689Y-38347830D01*
X19856775Y-38351666D01*
X19701340Y-38357297D01*
X19681158Y-38360031D01*
X19675752Y-38445389D01*
X19670548Y-38689744D01*
X19665589Y-39082758D01*
X19660917Y-39614097D01*
X19656576Y-40273422D01*
X19652607Y-41050399D01*
X19649054Y-41934689D01*
X19645958Y-42915957D01*
X19643364Y-43983866D01*
X19641313Y-45128079D01*
X19639848Y-46338261D01*
X19639012Y-47604074D01*
X19638824Y-48610190D01*
X19639000Y-58841667D01*
X20930505Y-58865040D01*
X22222011Y-58888414D01*
X22200505Y-48620374D01*
X22179000Y-38352333D01*
X20951333Y-38346841D01*
X20512927Y-38346114D01*
X20512927Y-34076667D01*
X35405524Y-34076667D01*
X35405524Y-38008256D01*
X34917940Y-38010281D01*
X34425653Y-38017019D01*
X33961565Y-38028163D01*
X33558580Y-38043403D01*
X33249600Y-38062432D01*
X33067528Y-38084942D01*
X33058666Y-38087082D01*
X32808425Y-38145559D01*
X32600125Y-38187554D01*
X32404516Y-38230938D01*
X32296666Y-38267666D01*
X32181306Y-38305082D01*
X31977042Y-38348922D01*
X31958000Y-38352333D01*
X31737054Y-38403114D01*
X31588240Y-38458043D01*
X31584125Y-38460551D01*
X31468907Y-38521637D01*
X31450000Y-38527682D01*
X31343919Y-38564283D01*
X31280666Y-38589967D01*
X31005556Y-38697789D01*
X30785803Y-38768641D01*
X30675722Y-38786690D01*
X30579012Y-38828887D01*
X30457185Y-38924018D01*
X30320968Y-39019242D01*
X30248694Y-39027805D01*
X30167385Y-39045814D01*
X30097031Y-39112287D01*
X29972144Y-39219974D01*
X29911127Y-39241333D01*
X29789088Y-39289399D01*
X29570502Y-39416810D01*
X29292047Y-39598389D01*
X28990399Y-39808957D01*
X28702236Y-40023336D01*
X28464234Y-40216348D01*
X28380833Y-40291852D01*
X28204126Y-40450553D01*
X28088856Y-40534186D01*
X28063333Y-40534760D01*
X28011273Y-40555197D01*
X27875052Y-40670482D01*
X27684609Y-40850344D01*
X27469882Y-41064509D01*
X27260810Y-41282706D01*
X27087331Y-41474662D01*
X26979384Y-41610107D01*
X26958513Y-41651887D01*
X26900806Y-41756014D01*
X26756462Y-41932524D01*
X26620449Y-42077667D01*
X26436637Y-42279393D01*
X26315099Y-42442080D01*
X26285936Y-42509044D01*
X26228276Y-42632984D01*
X26132520Y-42740049D01*
X25997467Y-42913318D01*
X25873439Y-43149903D01*
X25864223Y-43172666D01*
X25773677Y-43351236D01*
X25693340Y-43426465D01*
X25678370Y-43423497D01*
X25613266Y-43444613D01*
X25608000Y-43478732D01*
X25574195Y-43601428D01*
X25485702Y-43826895D01*
X25365672Y-44097562D01*
X25164643Y-44536769D01*
X25034596Y-44839880D01*
X24969729Y-45019833D01*
X24930666Y-45125667D01*
X24891945Y-45238751D01*
X24888333Y-45252667D01*
X24853949Y-45352547D01*
X24850105Y-45358500D01*
X24819520Y-45445638D01*
X24768859Y-45666257D01*
X24731943Y-45845333D01*
X24695691Y-46003662D01*
X24676480Y-46057000D01*
X24650276Y-46125084D01*
X24635915Y-46184000D01*
X24598123Y-46357043D01*
X24552783Y-46565000D01*
X24514045Y-46791616D01*
X24473218Y-47104600D01*
X24449734Y-47327000D01*
X24421835Y-47598781D01*
X24397604Y-47791142D01*
X24384485Y-47855804D01*
X24376060Y-47948848D01*
X24375007Y-48172911D01*
X24380135Y-48489895D01*
X24390254Y-48861701D01*
X24404176Y-49250233D01*
X24420710Y-49617390D01*
X24438667Y-49925076D01*
X24455212Y-50121000D01*
X24493289Y-50410335D01*
X24542674Y-50718705D01*
X24594906Y-51000816D01*
X24641522Y-51211375D01*
X24674061Y-51305090D01*
X24676666Y-51306333D01*
X24701060Y-51375617D01*
X24717442Y-51450793D01*
X24793321Y-51735685D01*
X24922479Y-52108811D01*
X25089730Y-52536039D01*
X25279889Y-52983240D01*
X25477769Y-53416281D01*
X25668185Y-53801033D01*
X25835951Y-54103366D01*
X25965880Y-54289148D01*
X25989000Y-54311658D01*
X25989000Y-54396667D01*
X25946666Y-54439000D01*
X25989000Y-54481333D01*
X26031333Y-54439000D01*
X25989000Y-54396667D01*
X25989000Y-54311658D01*
X25991375Y-54313971D01*
X26097286Y-54450995D01*
X26116000Y-54520911D01*
X26173684Y-54650775D01*
X26285333Y-54777667D01*
X26411815Y-54920609D01*
X26454666Y-55015441D01*
X26509173Y-55114437D01*
X26652791Y-55296417D01*
X26855671Y-55523858D01*
X26878000Y-55547584D01*
X27085618Y-55780546D01*
X27236589Y-55975562D01*
X27300833Y-56093452D01*
X27301333Y-56099043D01*
X27329069Y-56166292D01*
X27347797Y-56156425D01*
X27424306Y-56190905D01*
X27591396Y-56321791D01*
X27820227Y-56525442D01*
X27961631Y-56659589D01*
X28252768Y-56930688D01*
X28538355Y-57178186D01*
X28770501Y-57361162D01*
X28832979Y-57404136D01*
X29061489Y-57562535D01*
X29247125Y-57711012D01*
X29277479Y-57739574D01*
X29383827Y-57824509D01*
X29418000Y-57818592D01*
X29470269Y-57821559D01*
X29587333Y-57910333D01*
X29709378Y-57996969D01*
X29757963Y-57986955D01*
X29792849Y-57970258D01*
X29821463Y-58005063D01*
X29918496Y-58087189D01*
X30101689Y-58200375D01*
X30324872Y-58321020D01*
X30541874Y-58425524D01*
X30706527Y-58490284D01*
X30772659Y-58491698D01*
X30772666Y-58491304D01*
X30825082Y-58497688D01*
X30942000Y-58587667D01*
X31064161Y-58680150D01*
X31111333Y-58682477D01*
X31173334Y-58671304D01*
X31288093Y-58718641D01*
X31515656Y-58809672D01*
X31684327Y-58853038D01*
X31885229Y-58903963D01*
X31994400Y-58949537D01*
X32144693Y-59015789D01*
X32169666Y-59021725D01*
X32308093Y-59048979D01*
X32508333Y-59089998D01*
X32929197Y-59165087D01*
X33372694Y-59216336D01*
X33881686Y-59246959D01*
X34499034Y-59260166D01*
X34794333Y-59261292D01*
X35510535Y-59253585D01*
X36079604Y-59229199D01*
X36523094Y-59186233D01*
X36862560Y-59122786D01*
X37059166Y-59061649D01*
X37223271Y-59009732D01*
X37291998Y-59009182D01*
X37292000Y-59009340D01*
X37362679Y-59006643D01*
X37540512Y-58956821D01*
X37630666Y-58926333D01*
X37836896Y-58863760D01*
X37956911Y-58847059D01*
X37969333Y-58855789D01*
X38021140Y-58853955D01*
X38081812Y-58811385D01*
X38259063Y-58719916D01*
X38369887Y-58691238D01*
X38571971Y-58624169D01*
X38659576Y-58569753D01*
X38792117Y-58485269D01*
X38838705Y-58471109D01*
X38984092Y-58427142D01*
X39209373Y-58326778D01*
X39450002Y-58201999D01*
X39641433Y-58084787D01*
X39683833Y-58052350D01*
X39796701Y-57981274D01*
X39832000Y-57996636D01*
X39884582Y-57997110D01*
X40012184Y-57902817D01*
X40022500Y-57893535D01*
X40189027Y-57758658D01*
X40307248Y-57688276D01*
X40475022Y-57591353D01*
X40720788Y-57398629D01*
X41020529Y-57134373D01*
X41350230Y-56822853D01*
X41685873Y-56488340D01*
X42003441Y-56155101D01*
X42278918Y-55847407D01*
X42488288Y-55589526D01*
X42607532Y-55405728D01*
X42626000Y-55345157D01*
X42684369Y-55230199D01*
X42761820Y-55151346D01*
X42911563Y-54978549D01*
X42977122Y-54865813D01*
X43090607Y-54645426D01*
X43161412Y-54523667D01*
X43373177Y-54159604D01*
X43530583Y-53845090D01*
X43613260Y-53621393D01*
X43617830Y-53598978D01*
X43681904Y-53410046D01*
X43726666Y-53338333D01*
X43806355Y-53176664D01*
X43835689Y-53058703D01*
X43882958Y-52886084D01*
X43922040Y-52818404D01*
X43969623Y-52694219D01*
X43980666Y-52576333D01*
X44005267Y-52402829D01*
X44039562Y-52333994D01*
X44109336Y-52201316D01*
X44116168Y-52171716D01*
X44144775Y-52017916D01*
X44184651Y-51814333D01*
X44283826Y-51274946D01*
X44352995Y-50779089D01*
X44398533Y-50264704D01*
X44426820Y-49669732D01*
X44435211Y-49375936D01*
X44434376Y-49003080D01*
X44413632Y-48726413D01*
X44375801Y-48578568D01*
X44365244Y-48566408D01*
X44271468Y-48557606D01*
X44028715Y-48549507D01*
X43657343Y-48542166D01*
X43177707Y-48535641D01*
X42610164Y-48529988D01*
X41975070Y-48525265D01*
X41292782Y-48521528D01*
X40583655Y-48518833D01*
X39868045Y-48517238D01*
X39166310Y-48516800D01*
X38498804Y-48517574D01*
X37885885Y-48519618D01*
X37347908Y-48522989D01*
X36905231Y-48527744D01*
X36578208Y-48533938D01*
X36387196Y-48541630D01*
X36360666Y-48544083D01*
X36325512Y-48630522D01*
X36298812Y-48868016D01*
X36281873Y-49238439D01*
X36276000Y-49719511D01*
X36276000Y-50884355D01*
X38921833Y-50883768D01*
X41567666Y-50883182D01*
X41550639Y-51221758D01*
X41530875Y-51473685D01*
X41500594Y-51721306D01*
X41467750Y-51909628D01*
X41440480Y-51983667D01*
X41416598Y-52053446D01*
X41398376Y-52138445D01*
X41337863Y-52355662D01*
X41307400Y-52434778D01*
X41240523Y-52620249D01*
X41222738Y-52688743D01*
X41137041Y-52923358D01*
X40972795Y-53234243D01*
X40759628Y-53567388D01*
X40680625Y-53677000D01*
X40514848Y-53912452D01*
X40385651Y-54118633D01*
X40350783Y-54185000D01*
X40267563Y-54303775D01*
X40109336Y-54484450D01*
X39906155Y-54697521D01*
X39688070Y-54913483D01*
X39485136Y-55102833D01*
X39327403Y-55236068D01*
X39244925Y-55283682D01*
X39239333Y-55276168D01*
X39185864Y-55291172D01*
X39048254Y-55401141D01*
X38921833Y-55518998D01*
X38736031Y-55691331D01*
X38601950Y-55798918D01*
X38562000Y-55818090D01*
X38473099Y-55853868D01*
X38290012Y-55957505D01*
X38138666Y-56051598D01*
X37918237Y-56190088D01*
X37761235Y-56283282D01*
X37715333Y-56306168D01*
X37609177Y-56344141D01*
X37546000Y-56369967D01*
X37348137Y-56448438D01*
X37137103Y-56525228D01*
X36983505Y-56575089D01*
X36953333Y-56581905D01*
X36851752Y-56612007D01*
X36675955Y-56675460D01*
X36129959Y-56831141D01*
X35492467Y-56931167D01*
X34834115Y-56968733D01*
X34225541Y-56937036D01*
X34117000Y-56921940D01*
X33800535Y-56872236D01*
X33501549Y-56825084D01*
X33408620Y-56810365D01*
X33197675Y-56769327D01*
X33067836Y-56730340D01*
X33062828Y-56727572D01*
X32944300Y-56688314D01*
X32738231Y-56643600D01*
X32720000Y-56640333D01*
X32499054Y-56589552D01*
X32350240Y-56534623D01*
X32346125Y-56532115D01*
X32231026Y-56472532D01*
X32212000Y-56467152D01*
X32051333Y-56413210D01*
X31814449Y-56304605D01*
X31569259Y-56175566D01*
X31383672Y-56060320D01*
X31347265Y-56031315D01*
X31233473Y-55946477D01*
X31196000Y-55947326D01*
X31136460Y-55940699D01*
X30982047Y-55852024D01*
X30769066Y-55706330D01*
X30533825Y-55528644D01*
X30312631Y-55343996D01*
X30285833Y-55319906D01*
X30121552Y-55182074D01*
X30023157Y-55121586D01*
X30010666Y-55127304D01*
X29956722Y-55099232D01*
X29813433Y-54973737D01*
X29608616Y-54775656D01*
X29545000Y-54711554D01*
X29325004Y-54479009D01*
X29161054Y-54288548D01*
X29082322Y-54174535D01*
X29079333Y-54162955D01*
X29022582Y-54060174D01*
X28883383Y-53906691D01*
X28857536Y-53882258D01*
X28554172Y-53537095D01*
X28220359Y-53037884D01*
X27863240Y-52395683D01*
X27740871Y-52153000D01*
X27373627Y-51249549D01*
X27110760Y-50262105D01*
X26965127Y-49249147D01*
X26940486Y-48512333D01*
X26956178Y-48135748D01*
X26987248Y-47718379D01*
X27028454Y-47311197D01*
X27074553Y-46965174D01*
X27120303Y-46731281D01*
X27125522Y-46713167D01*
X27143842Y-46628500D01*
X27176174Y-46518098D01*
X27246172Y-46304102D01*
X27301333Y-46141667D01*
X27387471Y-45886254D01*
X27449068Y-45694294D01*
X27466350Y-45633667D01*
X27511435Y-45512248D01*
X27604353Y-45298524D01*
X27664431Y-45168000D01*
X27768767Y-44936221D01*
X27835296Y-44770581D01*
X27847405Y-44727733D01*
X27904004Y-44623548D01*
X27957500Y-44562633D01*
X28049038Y-44439372D01*
X28063333Y-44393311D01*
X28108387Y-44294308D01*
X28224652Y-44105321D01*
X28338500Y-43937121D01*
X28509269Y-43688225D01*
X28650296Y-43473664D01*
X28705890Y-43383045D01*
X28798986Y-43278137D01*
X28854057Y-43277613D01*
X28900556Y-43258988D01*
X28910000Y-43187448D01*
X28947775Y-43089307D01*
X28994666Y-43093667D01*
X29072690Y-43087051D01*
X29079333Y-43056501D01*
X29138722Y-42937848D01*
X29293976Y-42746840D01*
X29510733Y-42519349D01*
X29754626Y-42291249D01*
X29991289Y-42098414D01*
X30010666Y-42084297D01*
X30446958Y-41776175D01*
X30754283Y-41573150D01*
X30935149Y-41473604D01*
X30974867Y-41462198D01*
X31087131Y-41395992D01*
X31101867Y-41376335D01*
X31195166Y-41299611D01*
X31376397Y-41190355D01*
X31598661Y-41072248D01*
X31815059Y-40968972D01*
X31978691Y-40904210D01*
X32042666Y-40901274D01*
X32094600Y-40906585D01*
X32148500Y-40871401D01*
X32319543Y-40780753D01*
X32593570Y-40679440D01*
X32907311Y-40588956D01*
X33109782Y-40544812D01*
X33308778Y-40497619D01*
X33419435Y-40455340D01*
X33583510Y-40408147D01*
X33880389Y-40372387D01*
X34273933Y-40348035D01*
X34728001Y-40335064D01*
X35206453Y-40333446D01*
X35673147Y-40343155D01*
X36091945Y-40364164D01*
X36426705Y-40396446D01*
X36641287Y-40439974D01*
X36681153Y-40457764D01*
X36810426Y-40503266D01*
X37022541Y-40550894D01*
X37038000Y-40553667D01*
X37258945Y-40604447D01*
X37407760Y-40659376D01*
X37411875Y-40661885D01*
X37527092Y-40722970D01*
X37546000Y-40729016D01*
X37652081Y-40765616D01*
X37715333Y-40791300D01*
X37925310Y-40874751D01*
X38151063Y-40957168D01*
X38329166Y-41016076D01*
X38392666Y-41031318D01*
X38481022Y-41081524D01*
X38583166Y-41165489D01*
X38695343Y-41247469D01*
X38731333Y-41243512D01*
X38793511Y-41258029D01*
X38955531Y-41351631D01*
X39153798Y-41484390D01*
X39388113Y-41641606D01*
X39568902Y-41749253D01*
X39645958Y-41781333D01*
X39743220Y-41837345D01*
X39901605Y-41977308D01*
X39958154Y-42034450D01*
X40116290Y-42182314D01*
X40222654Y-42250215D01*
X40239828Y-42248394D01*
X40312999Y-42280018D01*
X40449318Y-42402434D01*
X40608887Y-42572063D01*
X40751807Y-42745327D01*
X40838180Y-42878648D01*
X40848000Y-42912656D01*
X40884305Y-42954983D01*
X40899287Y-42943602D01*
X40974100Y-42975274D01*
X41110989Y-43111737D01*
X41217088Y-43241738D01*
X41382829Y-43436224D01*
X41517630Y-43554525D01*
X41567968Y-43572691D01*
X41670955Y-43504416D01*
X41858671Y-43340387D01*
X42104393Y-43107835D01*
X42381399Y-42833987D01*
X42662964Y-42546071D01*
X42922366Y-42271316D01*
X43132881Y-42036950D01*
X43267786Y-41870203D01*
X43303333Y-41804514D01*
X43258376Y-41728313D01*
X43218666Y-41739000D01*
X43146937Y-41718894D01*
X43134000Y-41654333D01*
X43094176Y-41562886D01*
X43049333Y-41569666D01*
X42974502Y-41553423D01*
X42964666Y-41504882D01*
X42913059Y-41410509D01*
X42777952Y-41244988D01*
X42588920Y-41038053D01*
X42375536Y-40819436D01*
X42167375Y-40618869D01*
X41994011Y-40466085D01*
X41885018Y-40390817D01*
X41862703Y-40397015D01*
X41826715Y-40410891D01*
X41799203Y-40378414D01*
X41703326Y-40288722D01*
X41507069Y-40133614D01*
X41250324Y-39942533D01*
X40972980Y-39744921D01*
X40714929Y-39570220D01*
X40633338Y-39517917D01*
X40404617Y-39387223D01*
X40096010Y-39227867D01*
X39746650Y-39057994D01*
X39395667Y-38895748D01*
X39082196Y-38759275D01*
X38845368Y-38666718D01*
X38731333Y-38636002D01*
X38637475Y-38587621D01*
X38583166Y-38546433D01*
X38492711Y-38497838D01*
X38477333Y-38513474D01*
X38412483Y-38516465D01*
X38253373Y-38452150D01*
X38223333Y-38437000D01*
X38053948Y-38360283D01*
X37971009Y-38344061D01*
X37969333Y-38348063D01*
X37901426Y-38352222D01*
X37738587Y-38302746D01*
X37497541Y-38232112D01*
X37208134Y-38173612D01*
X37167087Y-38167516D01*
X36900627Y-38120014D01*
X36680311Y-38063761D01*
X36650767Y-38053448D01*
X36511025Y-38033540D01*
X36234969Y-38019577D01*
X35855501Y-38011252D01*
X35405524Y-38008256D01*
X35405524Y-34076667D01*
X60002253Y-34076667D01*
X60002253Y-37991946D01*
X59559297Y-37998303D01*
X59163751Y-38013374D01*
X58853423Y-38035054D01*
X58666117Y-38061239D01*
X58644814Y-38067527D01*
X58415274Y-38135828D01*
X58182609Y-38186886D01*
X57959066Y-38247758D01*
X57805962Y-38324694D01*
X57713148Y-38380207D01*
X57696666Y-38369968D01*
X57629435Y-38375905D01*
X57452984Y-38446886D01*
X57205183Y-38564055D01*
X56923900Y-38708554D01*
X56647002Y-38861526D01*
X56412358Y-39004115D01*
X56379669Y-39025782D01*
X55985224Y-39325905D01*
X55590036Y-39686993D01*
X55216728Y-40081554D01*
X54887921Y-40482093D01*
X54626237Y-40861116D01*
X54454300Y-41191131D01*
X54394666Y-41438233D01*
X54363870Y-41596825D01*
X54335771Y-41642673D01*
X54265997Y-41775350D01*
X54259165Y-41804950D01*
X54227939Y-41957918D01*
X54181682Y-42162333D01*
X54143653Y-42411614D01*
X54116823Y-42757612D01*
X54102020Y-43150250D01*
X54100073Y-43539450D01*
X54111810Y-43875137D01*
X54138059Y-44107232D01*
X54148828Y-44148996D01*
X54218425Y-44404849D01*
X54251854Y-44575333D01*
X54310150Y-44809617D01*
X54395100Y-45041000D01*
X54468954Y-45231381D01*
X54496127Y-45347224D01*
X54495712Y-45350379D01*
X54542932Y-45443505D01*
X54609040Y-45508913D01*
X54714699Y-45644610D01*
X54733333Y-45713140D01*
X54790585Y-45812113D01*
X54944697Y-45996775D01*
X55169206Y-46236779D01*
X55333385Y-46401273D01*
X55660586Y-46721035D01*
X55886855Y-46939972D01*
X56032287Y-47075695D01*
X56116975Y-47145813D01*
X56161016Y-47167935D01*
X56184502Y-47159671D01*
X56191328Y-47153116D01*
X56268588Y-47178837D01*
X56383863Y-47284147D01*
X56520635Y-47410366D01*
X56605362Y-47454000D01*
X56710776Y-47497903D01*
X56898346Y-47608785D01*
X56993628Y-47671484D01*
X57195586Y-47794166D01*
X57483220Y-47951440D01*
X57813209Y-48121702D01*
X58142235Y-48283348D01*
X58426977Y-48414772D01*
X58624117Y-48494369D01*
X58668535Y-48506819D01*
X58791590Y-48549119D01*
X59006954Y-48638445D01*
X59136000Y-48695674D01*
X59498459Y-48853489D01*
X59762354Y-48954863D01*
X59898000Y-48989498D01*
X59986380Y-49040100D01*
X60088500Y-49124155D01*
X60200658Y-49205915D01*
X60236666Y-49201570D01*
X60303489Y-49207314D01*
X60475901Y-49275181D01*
X60711819Y-49384429D01*
X60969161Y-49514316D01*
X61205843Y-49644098D01*
X61379782Y-49753035D01*
X61422000Y-49785807D01*
X61557750Y-49879678D01*
X61615663Y-49899480D01*
X61744715Y-49958271D01*
X61964129Y-50114635D01*
X62244989Y-50345948D01*
X62558379Y-50629591D01*
X62602307Y-50671333D01*
X62887955Y-50990172D01*
X63131565Y-51345619D01*
X63296351Y-51680379D01*
X63336122Y-51814333D01*
X63364339Y-51949013D01*
X63409958Y-52166191D01*
X63416085Y-52195333D01*
X63464087Y-52580814D01*
X63471669Y-53035854D01*
X63442272Y-53497864D01*
X63379335Y-53904256D01*
X63309053Y-54142667D01*
X63252194Y-54292451D01*
X63239062Y-54333167D01*
X63200000Y-54439000D01*
X63161155Y-54544833D01*
X63053085Y-54823018D01*
X62909121Y-55062755D01*
X62827820Y-55151346D01*
X62715908Y-55287301D01*
X62692000Y-55363072D01*
X62631157Y-55476753D01*
X62472723Y-55659293D01*
X62252839Y-55875677D01*
X62007645Y-56090892D01*
X61773282Y-56269923D01*
X61718333Y-56306382D01*
X61403887Y-56497649D01*
X61188118Y-56609852D01*
X61088213Y-56634370D01*
X61083333Y-56624945D01*
X61031270Y-56628374D01*
X60967749Y-56673193D01*
X60768737Y-56763457D01*
X60443510Y-56829768D01*
X60033892Y-56869057D01*
X59581708Y-56878258D01*
X59128783Y-56854305D01*
X58891476Y-56825428D01*
X58577723Y-56748920D01*
X58208896Y-56617373D01*
X57845669Y-56456646D01*
X57548719Y-56292599D01*
X57423796Y-56199923D01*
X57310763Y-56119816D01*
X57273333Y-56128677D01*
X57220099Y-56107675D01*
X57080765Y-55989714D01*
X56892333Y-55807131D01*
X56695107Y-55595691D01*
X56557437Y-55426351D01*
X56511333Y-55342365D01*
X56453159Y-55229124D01*
X56380142Y-55155188D01*
X56203667Y-54931880D01*
X56039959Y-54590184D01*
X55905692Y-54181000D01*
X55817537Y-53755227D01*
X55792168Y-53363767D01*
X55792277Y-53360482D01*
X55803208Y-53043964D01*
X55435031Y-53081909D01*
X55192891Y-53114803D01*
X55024541Y-53152078D01*
X54994640Y-53164484D01*
X54869837Y-53204881D01*
X54651992Y-53248578D01*
X54595046Y-53257491D01*
X54341722Y-53300217D01*
X54142514Y-53342669D01*
X54120226Y-53348742D01*
X53918726Y-53398158D01*
X53762604Y-53429730D01*
X53508366Y-53492668D01*
X53346402Y-53546172D01*
X53221531Y-53607636D01*
X53177538Y-53699198D01*
X53199282Y-53875917D01*
X53224523Y-53989417D01*
X53286965Y-54268188D01*
X53338410Y-54511105D01*
X53348083Y-54560067D01*
X53400809Y-54756581D01*
X53444135Y-54856400D01*
X53507396Y-55017695D01*
X53523115Y-55090332D01*
X53577888Y-55255457D01*
X53684558Y-55480090D01*
X53710063Y-55526722D01*
X53805252Y-55720273D01*
X53840674Y-55843353D01*
X53836286Y-55858158D01*
X53859404Y-55934532D01*
X53926954Y-56003635D01*
X54034395Y-56124174D01*
X54056000Y-56180789D01*
X54113579Y-56329152D01*
X54272179Y-56568028D01*
X54510596Y-56870736D01*
X54807626Y-57210594D01*
X55142065Y-57560920D01*
X55193295Y-57611881D01*
X55453504Y-57863640D01*
X55662885Y-58056185D01*
X55797099Y-58167786D01*
X55834000Y-58183941D01*
X55887846Y-58188490D01*
X56018062Y-58283194D01*
X56024500Y-58288757D01*
X56188158Y-58411115D01*
X56299666Y-58463564D01*
X56424181Y-58522951D01*
X56532500Y-58606822D01*
X56644293Y-58684300D01*
X56680666Y-58672333D01*
X56732712Y-58670085D01*
X56850000Y-58757000D01*
X56971936Y-58847086D01*
X57019333Y-58844422D01*
X57070368Y-58831716D01*
X57131812Y-58871948D01*
X57312069Y-58965915D01*
X57406978Y-58990598D01*
X57599036Y-59044558D01*
X57672656Y-59080188D01*
X57893608Y-59155634D01*
X58281413Y-59210719D01*
X58834803Y-59245320D01*
X59517000Y-59259132D01*
X60129712Y-59254557D01*
X60608404Y-59230407D01*
X60987637Y-59183019D01*
X61301975Y-59108729D01*
X61466420Y-59052540D01*
X61653800Y-58984676D01*
X61759266Y-58952743D01*
X61760666Y-58952571D01*
X61947287Y-58901138D01*
X62226003Y-58788223D01*
X62543678Y-58639410D01*
X62847175Y-58480286D01*
X63083354Y-58336436D01*
X63157666Y-58279925D01*
X63314562Y-58168232D01*
X63411666Y-58131269D01*
X63507340Y-58072904D01*
X63688355Y-57918002D01*
X63926206Y-57695332D01*
X64192393Y-57433668D01*
X64458412Y-57161780D01*
X64695761Y-56908440D01*
X64875938Y-56702420D01*
X64970439Y-56572491D01*
X64978000Y-56550157D01*
X65037004Y-56415217D01*
X65100895Y-56347406D01*
X65215743Y-56204175D01*
X65357748Y-55965153D01*
X65497732Y-55688425D01*
X65606520Y-55432077D01*
X65654934Y-55254192D01*
X65655333Y-55243643D01*
X65711836Y-55065562D01*
X65756933Y-55006266D01*
X65816053Y-54920751D01*
X65801362Y-54904667D01*
X65787290Y-54837169D01*
X65833115Y-54674560D01*
X65834165Y-54671833D01*
X65944701Y-54253158D01*
X66011042Y-53715927D01*
X66034743Y-53104620D01*
X66017359Y-52463717D01*
X65960444Y-51837698D01*
X65865555Y-51271041D01*
X65734245Y-50808229D01*
X65695779Y-50713667D01*
X65595312Y-50454130D01*
X65527248Y-50233064D01*
X65423621Y-50003245D01*
X65309052Y-49860109D01*
X65185788Y-49714942D01*
X65147333Y-49618925D01*
X65081363Y-49480252D01*
X64899850Y-49267253D01*
X64627390Y-49000655D01*
X64288579Y-48701184D01*
X63908014Y-48389567D01*
X63510291Y-48086529D01*
X63120006Y-47812797D01*
X62761755Y-47589096D01*
X62692000Y-47549924D01*
X62241798Y-47311349D01*
X61805026Y-47094640D01*
X61426988Y-46921534D01*
X61168000Y-46818782D01*
X61061632Y-46776921D01*
X60998666Y-46750700D01*
X60743896Y-46646560D01*
X60494324Y-46549997D01*
X60314100Y-46485575D01*
X60279000Y-46475096D01*
X60154028Y-46429645D01*
X59941919Y-46341446D01*
X59855666Y-46303803D01*
X59624945Y-46207079D01*
X59453229Y-46144410D01*
X59419417Y-46135400D01*
X59242791Y-46073188D01*
X58969759Y-45946554D01*
X58647495Y-45780840D01*
X58323175Y-45601390D01*
X58043972Y-45433550D01*
X57857062Y-45302661D01*
X57837405Y-45285487D01*
X57692038Y-45163394D01*
X57615478Y-45123862D01*
X57612000Y-45130001D01*
X57570801Y-45126382D01*
X57463296Y-45013086D01*
X57313618Y-44823596D01*
X57145903Y-44591391D01*
X56984286Y-44349954D01*
X56852903Y-44132765D01*
X56775888Y-43973305D01*
X56773840Y-43967275D01*
X56726707Y-43740817D01*
X56699362Y-43441320D01*
X56691596Y-43117636D01*
X56703199Y-42818619D01*
X56733963Y-42593118D01*
X56780165Y-42491833D01*
X56816559Y-42393445D01*
X56807666Y-42374000D01*
X56822077Y-42270770D01*
X56850000Y-42247000D01*
X56904766Y-42152642D01*
X56895711Y-42125465D01*
X56919672Y-42026077D01*
X57021330Y-41906526D01*
X57148180Y-41746983D01*
X57188666Y-41627100D01*
X57213507Y-41541090D01*
X57238183Y-41548628D01*
X57320772Y-41522659D01*
X57483428Y-41404358D01*
X57639890Y-41266405D01*
X57844595Y-41085609D01*
X58005467Y-40965119D01*
X58070540Y-40934667D01*
X58193122Y-40884570D01*
X58282666Y-40819212D01*
X58561240Y-40656778D01*
X58965797Y-40524012D01*
X59454180Y-40430505D01*
X59984236Y-40385844D01*
X60196915Y-40383784D01*
X60551986Y-40396459D01*
X60850258Y-40421896D01*
X61045386Y-40455531D01*
X61085915Y-40471303D01*
X61266595Y-40551510D01*
X61332000Y-40567284D01*
X61498712Y-40620187D01*
X61719823Y-40722693D01*
X61942779Y-40845789D01*
X62115023Y-40960461D01*
X62184000Y-41037641D01*
X62235187Y-41078539D01*
X62258363Y-41068034D01*
X62346433Y-41104152D01*
X62509103Y-41241915D01*
X62716115Y-41450011D01*
X62937210Y-41697124D01*
X63142129Y-41951942D01*
X63229398Y-42072936D01*
X63346550Y-42220624D01*
X63435437Y-42240086D01*
X63525731Y-42174039D01*
X63653250Y-42076949D01*
X63708000Y-42055790D01*
X63796952Y-42018565D01*
X63980138Y-41913938D01*
X64131333Y-41819735D01*
X64351641Y-41682093D01*
X64508629Y-41590890D01*
X64554666Y-41569667D01*
X64658942Y-41519526D01*
X64844489Y-41405628D01*
X65056290Y-41264712D01*
X65239328Y-41133515D01*
X65338586Y-41048774D01*
X65341989Y-41043931D01*
X65324340Y-40937516D01*
X65230666Y-40758830D01*
X65200940Y-40713734D01*
X65026543Y-40457563D01*
X64858679Y-40208158D01*
X64857062Y-40205734D01*
X64385384Y-39635343D01*
X63756589Y-39098819D01*
X63496333Y-38917563D01*
X63220713Y-38737244D01*
X63002285Y-38598275D01*
X62876675Y-38523177D01*
X62861333Y-38516171D01*
X62755226Y-38479099D01*
X62692000Y-38453366D01*
X62436105Y-38348774D01*
X62186363Y-38252202D01*
X62006677Y-38188109D01*
X61972333Y-38177918D01*
X61605574Y-38094745D01*
X61252796Y-38039393D01*
X60864060Y-38007148D01*
X60389425Y-37993296D01*
X60002253Y-37991946D01*
X60002253Y-34076667D01*
X83223841Y-34076667D01*
X83223841Y-38350968D01*
X80641333Y-38350968D01*
X80641333Y-46650413D01*
X75836500Y-46639363D01*
X74949709Y-46637146D01*
X74113728Y-46634713D01*
X73343868Y-46632132D01*
X72655445Y-46629470D01*
X72063769Y-46626794D01*
X71584156Y-46624174D01*
X71231917Y-46621676D01*
X71022367Y-46619369D01*
X70968166Y-46617823D01*
X70955580Y-46533738D01*
X70943822Y-46296608D01*
X70933144Y-45922723D01*
X70923794Y-45428370D01*
X70916023Y-44829837D01*
X70910081Y-44143414D01*
X70906218Y-43385387D01*
X70904682Y-42572046D01*
X70904666Y-42479150D01*
X70904666Y-38350968D01*
X68322159Y-38350968D01*
X68322159Y-58884000D01*
X70904666Y-58884000D01*
X70904666Y-53973333D01*
X70905730Y-53078569D01*
X70908791Y-52236016D01*
X70913658Y-51460601D01*
X70920138Y-50767250D01*
X70928038Y-50170889D01*
X70937165Y-49686445D01*
X70947328Y-49328845D01*
X70958333Y-49113013D01*
X70968166Y-49052176D01*
X71062269Y-49050053D01*
X71310391Y-49047690D01*
X71697220Y-49045153D01*
X72207442Y-49042512D01*
X72825745Y-49039834D01*
X73536815Y-49037186D01*
X74325339Y-49034637D01*
X75176004Y-49032254D01*
X75836500Y-49030637D01*
X80641333Y-49019587D01*
X80641333Y-58884000D01*
X83223841Y-58884000D01*
X83223841Y-38350968D01*
X83223841Y-34076667D01*
X96319990Y-34076667D01*
X96319990Y-37994208D01*
X95826807Y-37994686D01*
X95333799Y-38001198D01*
X94874839Y-38013573D01*
X94483802Y-38031641D01*
X94194561Y-38055230D01*
X94075119Y-38073915D01*
X93798764Y-38135779D01*
X93558003Y-38186604D01*
X93516599Y-38194750D01*
X93336950Y-38237878D01*
X93255474Y-38268403D01*
X93141195Y-38305173D01*
X92936894Y-38348929D01*
X92914336Y-38352979D01*
X92685535Y-38413364D01*
X92523767Y-38490457D01*
X92519295Y-38494027D01*
X92426760Y-38545060D01*
X92410000Y-38529859D01*
X92345169Y-38526808D01*
X92186177Y-38591096D01*
X92156887Y-38605874D01*
X91972572Y-38693044D01*
X91862437Y-38730152D01*
X91858095Y-38730024D01*
X91753944Y-38761123D01*
X91549970Y-38849663D01*
X91294833Y-38971682D01*
X91037193Y-39103214D01*
X90825709Y-39220298D01*
X90716666Y-39292147D01*
X90577551Y-39380264D01*
X90518606Y-39395938D01*
X90410898Y-39444668D01*
X90248853Y-39566063D01*
X90243162Y-39570986D01*
X90097072Y-39688761D01*
X90019448Y-39733796D01*
X90017889Y-39733194D01*
X89930444Y-39762275D01*
X89751602Y-39875745D01*
X89518040Y-40047214D01*
X89266433Y-40250295D01*
X89114568Y-40383131D01*
X88828256Y-40650972D01*
X88511719Y-40960048D01*
X88187723Y-41286518D01*
X87879036Y-41606543D01*
X87608423Y-41896282D01*
X87398652Y-42131896D01*
X87272489Y-42289545D01*
X87246069Y-42339711D01*
X87188165Y-42461013D01*
X87076000Y-42585667D01*
X86948954Y-42735902D01*
X86906666Y-42842422D01*
X86847521Y-42979476D01*
X86782042Y-43049362D01*
X86679451Y-43183583D01*
X86531414Y-43439114D01*
X86355042Y-43779911D01*
X86167447Y-44169929D01*
X85985738Y-44573124D01*
X85827027Y-44953452D01*
X85708424Y-45274867D01*
X85675815Y-45379667D01*
X85591602Y-45669427D01*
X85521112Y-45904490D01*
X85486033Y-46014667D01*
X85442594Y-46153938D01*
X85407675Y-46315308D01*
X85369237Y-46559105D01*
X85349165Y-46700469D01*
X85310101Y-46929202D01*
X85271915Y-47075434D01*
X85260909Y-47095980D01*
X85248720Y-47190257D01*
X85241572Y-47422473D01*
X85238971Y-47761324D01*
X85240423Y-48175506D01*
X85245437Y-48633715D01*
X85253518Y-49104648D01*
X85264174Y-49556999D01*
X85276911Y-49959466D01*
X85291237Y-50280744D01*
X85306658Y-50489530D01*
X85315228Y-50544333D01*
X85361032Y-50737460D01*
X85416559Y-50998165D01*
X85427428Y-51052333D01*
X85475190Y-51292886D01*
X85510173Y-51468178D01*
X85515307Y-51493668D01*
X85609619Y-51836214D01*
X85765869Y-52269831D01*
X85967033Y-52758239D01*
X86196088Y-53265158D01*
X86436011Y-53754311D01*
X86669779Y-54189418D01*
X86880368Y-54534200D01*
X87038555Y-54739966D01*
X87177316Y-54907260D01*
X87244236Y-55031451D01*
X87245333Y-55041366D01*
X87303880Y-55133699D01*
X87464015Y-55317617D01*
X87702484Y-55570306D01*
X87996031Y-55868948D01*
X88321399Y-56190730D01*
X88655333Y-56512836D01*
X88974577Y-56812451D01*
X89255876Y-57066758D01*
X89475974Y-57252943D01*
X89573666Y-57325607D01*
X89784514Y-57474964D01*
X89931657Y-57595992D01*
X89964133Y-57631972D01*
X90071221Y-57714504D01*
X90091133Y-57718198D01*
X90205600Y-57762270D01*
X90398574Y-57865893D01*
X90462666Y-57904085D01*
X90855499Y-58126366D01*
X91280899Y-58338797D01*
X91690070Y-58519286D01*
X92034215Y-58645737D01*
X92191688Y-58686959D01*
X92389919Y-58761191D01*
X92466855Y-58811385D01*
X92561446Y-58867345D01*
X92579333Y-58855789D01*
X92649832Y-58850858D01*
X92827263Y-58896115D01*
X92918000Y-58926333D01*
X93124463Y-58991564D01*
X93244406Y-59014726D01*
X93256666Y-59009340D01*
X93324090Y-59008171D01*
X93465172Y-59052131D01*
X93775045Y-59131116D01*
X94218675Y-59192056D01*
X94761493Y-59234946D01*
X95368929Y-59259782D01*
X96006415Y-59266557D01*
X96639380Y-59255268D01*
X97233255Y-59225907D01*
X97753471Y-59178472D01*
X98165458Y-59112955D01*
X98380222Y-59052868D01*
X98534307Y-59005984D01*
X98590666Y-59009340D01*
X98661345Y-59006643D01*
X98839179Y-58956821D01*
X98929333Y-58926333D01*
X99135716Y-58862014D01*
X99255685Y-58841069D01*
X99268000Y-58847596D01*
X99333150Y-58841126D01*
X99492819Y-58771835D01*
X99521113Y-58757459D01*
X99712062Y-58665506D01*
X99834035Y-58618935D01*
X99838613Y-58618141D01*
X100112528Y-58540713D01*
X100487353Y-58376838D01*
X100931504Y-58145520D01*
X101413398Y-57865760D01*
X101901451Y-57556561D01*
X102364079Y-57236926D01*
X102769700Y-56925856D01*
X103029342Y-56698401D01*
X103248364Y-56501964D01*
X103423040Y-56367091D01*
X103515834Y-56322736D01*
X103516175Y-56322833D01*
X103583377Y-56281141D01*
X103586000Y-56258855D01*
X103640758Y-56161971D01*
X103786521Y-55978547D01*
X103995518Y-55742739D01*
X104072833Y-55660089D01*
X104301092Y-55412736D01*
X104480742Y-55205815D01*
X104581744Y-55074351D01*
X104592418Y-55054311D01*
X104657918Y-54942359D01*
X104795811Y-54742774D01*
X104951888Y-54531244D01*
X105121980Y-54292935D01*
X105240283Y-54100496D01*
X105278969Y-54004867D01*
X105338158Y-53875979D01*
X105408379Y-53802302D01*
X105494651Y-53696405D01*
X105492861Y-53650639D01*
X105507944Y-53563010D01*
X105588604Y-53451037D01*
X105675097Y-53335452D01*
X105674902Y-53296000D01*
X105677861Y-53231393D01*
X105749875Y-53069357D01*
X105790049Y-52994832D01*
X105904470Y-52766532D01*
X105975053Y-52579976D01*
X105981552Y-52550332D01*
X106033127Y-52371373D01*
X106060388Y-52316632D01*
X106110410Y-52189049D01*
X106186896Y-51940698D01*
X106277895Y-51615729D01*
X106371455Y-51258294D01*
X106455626Y-50912541D01*
X106517210Y-50629000D01*
X106542000Y-50409145D01*
X106560976Y-50055471D01*
X106574138Y-49603392D01*
X106581486Y-49088321D01*
X106583019Y-48545673D01*
X106578737Y-48010862D01*
X106568641Y-47519302D01*
X106552729Y-47106407D01*
X106531002Y-46807590D01*
X106517232Y-46708124D01*
X106455294Y-46381908D01*
X106417432Y-46187918D01*
X106396440Y-46091962D01*
X106385113Y-46059848D01*
X106380000Y-46057000D01*
X106355558Y-45987784D01*
X106339421Y-45913884D01*
X106289530Y-45716419D01*
X106211055Y-45460199D01*
X106127091Y-45215794D01*
X106060733Y-45053773D01*
X106053763Y-45041000D01*
X105993910Y-44880208D01*
X105986576Y-44842802D01*
X105934401Y-44690782D01*
X105817111Y-44430980D01*
X105654827Y-44101931D01*
X105467669Y-43742169D01*
X105275757Y-43390230D01*
X105099213Y-43084648D01*
X104958158Y-42863958D01*
X104940646Y-42839667D01*
X104775478Y-42603784D01*
X104646202Y-42397412D01*
X104611351Y-42331667D01*
X104514295Y-42192336D01*
X104330444Y-41979864D01*
X104096817Y-41736628D01*
X104059205Y-41699559D01*
X103834263Y-41464713D01*
X103667275Y-41262054D01*
X103588505Y-41129037D01*
X103586000Y-41113948D01*
X103558644Y-41033923D01*
X103532973Y-41044138D01*
X103462687Y-41026056D01*
X103304434Y-40909380D01*
X103050266Y-40687320D01*
X102692238Y-40353086D01*
X102431754Y-40103119D01*
X102337860Y-40039142D01*
X102316000Y-40055459D01*
X102261772Y-40048089D01*
X102127118Y-39949749D01*
X102083166Y-39911632D01*
X101840792Y-39711246D01*
X101596333Y-39530470D01*
X101406051Y-39413171D01*
X101141655Y-39265845D01*
X100838651Y-39106255D01*
X100532543Y-38952163D01*
X100258836Y-38821331D01*
X100053034Y-38731522D01*
X99950643Y-38700497D01*
X99945333Y-38704512D01*
X99893177Y-38705778D01*
X99839500Y-38670067D01*
X99668456Y-38579420D01*
X99394430Y-38478107D01*
X99080689Y-38387623D01*
X98878218Y-38343478D01*
X98684365Y-38299094D01*
X98580676Y-38261492D01*
X98463225Y-38226200D01*
X98245061Y-38184961D01*
X98151409Y-38170918D01*
X97881473Y-38124085D01*
X97659399Y-38070224D01*
X97617000Y-38056053D01*
X97461853Y-38030686D01*
X97171387Y-38012037D01*
X96779474Y-37999935D01*
X96319990Y-37994208D01*
X96319990Y-34076667D01*
X112010333Y-34076667D01*
X112010333Y-54735333D01*
X111968000Y-54777667D01*
X112010333Y-54820000D01*
X112052666Y-54777667D01*
X112010333Y-54735333D01*
X112010333Y-34076667D01*
X120942666Y-34076667D01*
X120942666Y-38349458D01*
X120934268Y-44870229D01*
X120932575Y-45910796D01*
X120930272Y-46905515D01*
X120927432Y-47840906D01*
X120924129Y-48703487D01*
X120920433Y-49479776D01*
X120916420Y-50156294D01*
X120912160Y-50719557D01*
X120907728Y-51156086D01*
X120903195Y-51452400D01*
X120898635Y-51595016D01*
X120897909Y-51602667D01*
X120870955Y-51813848D01*
X120835091Y-52103393D01*
X120818744Y-52237667D01*
X120771722Y-52593884D01*
X120729430Y-52854297D01*
X120697097Y-52988274D01*
X120688666Y-52999667D01*
X120667837Y-53046349D01*
X120628441Y-53206414D01*
X120581260Y-53423000D01*
X120522109Y-53627810D01*
X120447608Y-53830678D01*
X120378480Y-54011742D01*
X120350000Y-54110490D01*
X120309499Y-54247120D01*
X120209465Y-54464993D01*
X120082103Y-54703022D01*
X119959616Y-54900118D01*
X119888524Y-54985855D01*
X119779122Y-55120893D01*
X119757333Y-55193092D01*
X119700670Y-55295930D01*
X119550713Y-55478768D01*
X119337507Y-55705585D01*
X119291666Y-55751333D01*
X119073762Y-55957904D01*
X118910418Y-56096323D01*
X118829887Y-56143160D01*
X118826000Y-56137485D01*
X118773684Y-56125838D01*
X118677833Y-56189683D01*
X118539864Y-56282706D01*
X118334163Y-56397706D01*
X118116821Y-56506345D01*
X117943932Y-56580280D01*
X117875038Y-56595290D01*
X117789195Y-56615728D01*
X117611806Y-56677823D01*
X117598333Y-56682935D01*
X117158159Y-56798010D01*
X116605500Y-56863399D01*
X115989563Y-56879716D01*
X115359553Y-56847575D01*
X114764676Y-56767591D01*
X114256641Y-56641211D01*
X113837561Y-56475329D01*
X113422685Y-56264564D01*
X113041490Y-56029339D01*
X112723452Y-55790078D01*
X112498047Y-55567206D01*
X112394752Y-55381147D01*
X112391333Y-55348728D01*
X112345621Y-55274613D01*
X112306666Y-55285667D01*
X112232121Y-55269053D01*
X112222000Y-55219119D01*
X112163799Y-55076942D01*
X112052666Y-54947000D01*
X111926433Y-54807218D01*
X111883333Y-54717566D01*
X111850641Y-54600900D01*
X111767687Y-54391434D01*
X111714313Y-54270353D01*
X111473296Y-53616503D01*
X111281308Y-52833518D01*
X111145515Y-51956339D01*
X111080487Y-51179333D01*
X111076327Y-51019060D01*
X111072126Y-50704083D01*
X111067959Y-50249035D01*
X111063901Y-49668544D01*
X111060027Y-48977241D01*
X111056413Y-48189757D01*
X111053134Y-47320721D01*
X111050266Y-46384765D01*
X111047882Y-45396519D01*
X111046303Y-44531562D01*
X111036666Y-38349458D01*
X109787833Y-38361839D01*
X109347244Y-38366847D01*
X108971311Y-38372334D01*
X108690353Y-38377764D01*
X108534689Y-38382597D01*
X108513574Y-38384443D01*
X108507157Y-38469546D01*
X108502378Y-38709081D01*
X108499143Y-39088156D01*
X108497355Y-39591879D01*
X108496919Y-40205358D01*
X108497738Y-40913699D01*
X108499717Y-41702012D01*
X108502759Y-42555404D01*
X108506770Y-43458982D01*
X108511653Y-44397855D01*
X108517312Y-45357130D01*
X108523651Y-46321916D01*
X108530575Y-47277319D01*
X108537987Y-48208447D01*
X108545793Y-49100409D01*
X108553895Y-49938312D01*
X108562198Y-50707264D01*
X108570607Y-51392373D01*
X108579025Y-51978746D01*
X108587356Y-52451492D01*
X108595505Y-52795717D01*
X108603375Y-52996530D01*
X108607928Y-53042000D01*
X108688021Y-53371478D01*
X108771155Y-53791290D01*
X108784219Y-53865049D01*
X108844797Y-54007936D01*
X108861105Y-54027327D01*
X108908911Y-54151758D01*
X108920000Y-54269667D01*
X108946657Y-54445503D01*
X108983500Y-54516611D01*
X109055183Y-54644956D01*
X109057583Y-54657722D01*
X109087823Y-54774508D01*
X109089333Y-54777667D01*
X109124296Y-54883500D01*
X109194494Y-55073469D01*
X109323796Y-55335705D01*
X109475854Y-55602611D01*
X109614317Y-55806589D01*
X109632449Y-55828486D01*
X109719470Y-55947729D01*
X109698716Y-55971155D01*
X109682000Y-55963000D01*
X109645345Y-55967980D01*
X109714787Y-56068144D01*
X109745500Y-56102971D01*
X109876944Y-56276880D01*
X109935777Y-56412597D01*
X109936000Y-56417953D01*
X109985082Y-56483174D01*
X110020666Y-56471000D01*
X110096220Y-56486295D01*
X110105333Y-56531372D01*
X110162440Y-56632060D01*
X110317880Y-56822588D01*
X110547831Y-57075528D01*
X110825000Y-57360000D01*
X111101736Y-57630577D01*
X111329163Y-57843950D01*
X111484399Y-57979299D01*
X111544561Y-58015802D01*
X111544666Y-58014857D01*
X111599254Y-58022043D01*
X111733574Y-58118600D01*
X111763117Y-58143726D01*
X111925353Y-58267827D01*
X112032008Y-58319118D01*
X112038283Y-58318533D01*
X112143096Y-58352668D01*
X112222000Y-58406851D01*
X112383973Y-58508806D01*
X112629679Y-58630151D01*
X112920019Y-58755770D01*
X113215893Y-58870547D01*
X113478203Y-58959364D01*
X113667850Y-59007104D01*
X113745735Y-58998651D01*
X113746000Y-58996073D01*
X113798242Y-58999614D01*
X113864828Y-59046551D01*
X114049757Y-59125727D01*
X114372169Y-59187522D01*
X114801106Y-59231926D01*
X115305612Y-59258930D01*
X115854730Y-59268524D01*
X116417501Y-59260698D01*
X116962970Y-59235442D01*
X117460179Y-59192747D01*
X117878171Y-59132603D01*
X118185988Y-59055001D01*
X118205252Y-59047914D01*
X118352903Y-59008882D01*
X118402666Y-59023462D01*
X118454397Y-59023065D01*
X118515145Y-58980718D01*
X118695403Y-58886751D01*
X118790312Y-58862069D01*
X118998385Y-58798619D01*
X119080000Y-58756931D01*
X119252674Y-58676927D01*
X119317250Y-58660391D01*
X119461575Y-58604024D01*
X119654611Y-58491750D01*
X119655917Y-58490877D01*
X119825277Y-58384052D01*
X119924340Y-58333479D01*
X119926666Y-58333056D01*
X120095931Y-58258588D01*
X120349423Y-58079216D01*
X120661477Y-57818866D01*
X121006428Y-57501464D01*
X121358612Y-57150936D01*
X121692361Y-56791208D01*
X121982011Y-56446207D01*
X122060317Y-56344000D01*
X122423043Y-55775072D01*
X122760310Y-55092606D01*
X123049332Y-54352377D01*
X123267320Y-53610159D01*
X123357536Y-53169000D01*
X123385642Y-52976358D01*
X123410244Y-52755271D01*
X123431583Y-52493879D01*
X123449897Y-52180318D01*
X123465427Y-51802729D01*
X123478411Y-51349248D01*
X123489090Y-50808015D01*
X123497702Y-50167168D01*
X123504488Y-49414845D01*
X123509687Y-48539184D01*
X123513537Y-47528325D01*
X123516280Y-46370405D01*
X123517963Y-45223661D01*
X123518514Y-43824505D01*
X123516753Y-42582265D01*
X123512700Y-41498485D01*
X123506372Y-40574711D01*
X123497785Y-39812489D01*
X123486959Y-39213364D01*
X123473909Y-38778882D01*
X123458654Y-38510588D01*
X123441211Y-38410028D01*
X123440731Y-38409666D01*
X123329299Y-38390071D01*
X123081452Y-38373199D01*
X122730104Y-38360504D01*
X122308171Y-38353442D01*
X122149166Y-38352568D01*
X120942666Y-38349458D01*
X120942666Y-34076667D01*
X137114000Y-34076667D01*
X137114000Y-38352041D01*
X124837333Y-38352041D01*
X124837333Y-40725268D01*
X127215379Y-40722993D01*
X127981112Y-40725325D01*
X128612153Y-40733733D01*
X129100781Y-40747954D01*
X129439277Y-40767721D01*
X129619919Y-40792769D01*
X129648250Y-40806525D01*
X129655705Y-40901182D01*
X129662886Y-41154021D01*
X129669722Y-41553892D01*
X129676146Y-42089645D01*
X129682088Y-42750129D01*
X129687478Y-43524193D01*
X129692248Y-44400687D01*
X129696329Y-45368461D01*
X129699651Y-46416364D01*
X129702146Y-47533245D01*
X129703745Y-48707953D01*
X129704370Y-49867000D01*
X129705666Y-58841667D01*
X130996452Y-58865036D01*
X132287237Y-58888406D01*
X132330333Y-40723000D01*
X134722166Y-40723749D01*
X137114000Y-40724499D01*
X137114000Y-38352041D01*
X137114000Y-34076667D01*
X148925174Y-34076667D01*
X148925174Y-38350968D01*
X146342666Y-38350968D01*
X146342666Y-58884000D01*
X148925174Y-58884000D01*
X148925174Y-38350968D01*
X148925174Y-34076667D01*
X162852666Y-34076667D01*
X162852666Y-38352041D01*
X150576000Y-38352041D01*
X150576000Y-40725268D01*
X152954046Y-40722993D01*
X153719779Y-40725325D01*
X154350820Y-40733733D01*
X154839448Y-40747954D01*
X155177943Y-40767721D01*
X155358586Y-40792769D01*
X155386916Y-40806525D01*
X155394372Y-40901182D01*
X155401552Y-41154021D01*
X155408389Y-41553892D01*
X155414813Y-42089645D01*
X155420754Y-42750129D01*
X155426145Y-43524193D01*
X155430915Y-44400687D01*
X155434996Y-45368461D01*
X155438318Y-46416364D01*
X155440813Y-47533245D01*
X155442411Y-48707953D01*
X155443037Y-49867000D01*
X155444333Y-58841667D01*
X157984333Y-58841667D01*
X157985630Y-49867000D01*
X157986313Y-48647694D01*
X157987958Y-47475626D01*
X157990496Y-46361946D01*
X157993858Y-45317806D01*
X157997975Y-44354354D01*
X158002778Y-43482743D01*
X158008198Y-42714122D01*
X158014166Y-42059642D01*
X158020612Y-41530454D01*
X158027467Y-41137708D01*
X158034663Y-40892554D01*
X158041750Y-40806525D01*
X158144241Y-40779047D01*
X158408275Y-40756723D01*
X158826130Y-40739819D01*
X159390087Y-40728601D01*
X160092424Y-40723332D01*
X160474620Y-40722993D01*
X162852666Y-40725268D01*
X162852666Y-38352041D01*
X162852666Y-34076667D01*
X181376820Y-34076667D01*
X181376820Y-38019309D01*
X180870695Y-38022485D01*
X180405979Y-38030924D01*
X180017783Y-38044679D01*
X179741219Y-38063806D01*
X179659000Y-38074807D01*
X179258995Y-38149887D01*
X178981780Y-38209614D01*
X178782675Y-38263682D01*
X178770000Y-38267666D01*
X178554158Y-38325499D01*
X178425694Y-38353419D01*
X178139716Y-38423810D01*
X177846163Y-38519399D01*
X177610714Y-38617192D01*
X177521166Y-38670067D01*
X177430527Y-38710061D01*
X177415333Y-38688245D01*
X177363201Y-38688025D01*
X177246000Y-38775667D01*
X177124147Y-38864864D01*
X177076666Y-38860333D01*
X177024621Y-38858085D01*
X176907333Y-38945000D01*
X176785480Y-39034197D01*
X176738000Y-39029667D01*
X176685954Y-39027418D01*
X176568666Y-39114333D01*
X176446814Y-39203531D01*
X176399333Y-39199000D01*
X176348141Y-39193585D01*
X176251166Y-39264511D01*
X176120388Y-39365508D01*
X176060666Y-39390209D01*
X175968203Y-39430043D01*
X175777383Y-39545061D01*
X175526450Y-39710380D01*
X175253651Y-39901114D01*
X175087000Y-40023711D01*
X174905584Y-40174128D01*
X174654282Y-40400999D01*
X174356803Y-40680828D01*
X174036853Y-40990119D01*
X173718139Y-41305377D01*
X173424368Y-41603107D01*
X173179246Y-41859812D01*
X173006481Y-42051998D01*
X172929780Y-42156169D01*
X172928000Y-42163452D01*
X172871420Y-42276761D01*
X172730150Y-42444869D01*
X172674000Y-42501000D01*
X172514949Y-42671860D01*
X172426479Y-42802784D01*
X172420000Y-42827674D01*
X172369025Y-42953688D01*
X172301703Y-43044666D01*
X172178115Y-43221632D01*
X172014277Y-43504794D01*
X171835788Y-43844341D01*
X171668248Y-44190465D01*
X171537256Y-44493356D01*
X171489673Y-44624689D01*
X171405033Y-44854184D01*
X171325953Y-45014258D01*
X171309105Y-45036767D01*
X171247802Y-45181484D01*
X171234666Y-45297822D01*
X171209693Y-45470226D01*
X171175771Y-45537339D01*
X171104983Y-45669948D01*
X171097757Y-45699617D01*
X171042727Y-45981497D01*
X171000232Y-46169612D01*
X170980480Y-46226333D01*
X170953032Y-46308766D01*
X170909982Y-46548957D01*
X170862498Y-46869802D01*
X170823387Y-47098593D01*
X170785089Y-47244934D01*
X170774037Y-47265519D01*
X170760811Y-47361324D01*
X170753942Y-47593763D01*
X170752733Y-47930284D01*
X170756482Y-48338334D01*
X170764492Y-48785361D01*
X170776063Y-49238812D01*
X170790497Y-49666135D01*
X170807093Y-50034778D01*
X170825154Y-50312189D01*
X170842630Y-50459667D01*
X170894637Y-50723608D01*
X170931564Y-50925333D01*
X170963267Y-51083949D01*
X170980853Y-51137000D01*
X171006701Y-51202085D01*
X171054544Y-51408203D01*
X171094723Y-51602667D01*
X171130912Y-51760993D01*
X171150000Y-51814333D01*
X171173437Y-51884916D01*
X171195780Y-51989671D01*
X171258824Y-52190534D01*
X171358300Y-52413005D01*
X171447866Y-52605449D01*
X171487996Y-52732526D01*
X171488145Y-52736089D01*
X171526951Y-52864163D01*
X171627879Y-53096284D01*
X171768981Y-53389507D01*
X171928309Y-53700888D01*
X172083916Y-53987485D01*
X172213852Y-54206354D01*
X172293996Y-54312827D01*
X172399851Y-54434365D01*
X172420000Y-54490755D01*
X172477529Y-54624506D01*
X172636407Y-54851696D01*
X172876072Y-55148240D01*
X173175960Y-55490056D01*
X173515508Y-55853061D01*
X173874154Y-56213171D01*
X173966219Y-56301667D01*
X174306657Y-56625319D01*
X174556133Y-56859377D01*
X174746467Y-57030857D01*
X174909479Y-57166777D01*
X175076990Y-57294152D01*
X175280819Y-57440002D01*
X175433076Y-57547119D01*
X175632758Y-57674010D01*
X175919444Y-57839268D01*
X176259541Y-58025488D01*
X176619453Y-58215261D01*
X176965586Y-58391183D01*
X177264344Y-58535847D01*
X177482133Y-58631845D01*
X177584666Y-58661927D01*
X177681320Y-58682882D01*
X177887731Y-58745617D01*
X178091471Y-58813487D01*
X178387928Y-58909612D01*
X178650640Y-58984924D01*
X178768805Y-59012438D01*
X179031876Y-59063850D01*
X179193333Y-59097678D01*
X179600631Y-59170164D01*
X180067925Y-59219981D01*
X180629726Y-59249660D01*
X181320551Y-59261730D01*
X181437000Y-59262178D01*
X182258158Y-59253382D01*
X182918910Y-59222280D01*
X183426789Y-59168253D01*
X183789328Y-59090685D01*
X183871166Y-59062619D01*
X184035177Y-59010040D01*
X184103996Y-59009138D01*
X184104000Y-59009340D01*
X184174679Y-59006643D01*
X184352512Y-58956821D01*
X184442666Y-58926333D01*
X184649050Y-58862014D01*
X184769018Y-58841069D01*
X184781333Y-58847596D01*
X184846483Y-58841126D01*
X185006152Y-58771835D01*
X185034446Y-58757459D01*
X185225416Y-58665322D01*
X185347383Y-58618336D01*
X185351946Y-58617505D01*
X185420242Y-58603586D01*
X185529266Y-58569134D01*
X185728448Y-58497905D01*
X185839666Y-58457227D01*
X186028094Y-58392499D01*
X186134392Y-58364072D01*
X186136000Y-58364015D01*
X186224355Y-58313809D01*
X186326500Y-58229844D01*
X186438676Y-58147864D01*
X186474666Y-58151821D01*
X186536853Y-58137273D01*
X186698920Y-58043633D01*
X186898000Y-57910333D01*
X187118291Y-57763099D01*
X187271393Y-57675302D01*
X187321333Y-57664494D01*
X187377393Y-57645316D01*
X187520127Y-57538648D01*
X187620613Y-57453437D01*
X187809668Y-57297475D01*
X187947014Y-57202307D01*
X187980446Y-57188813D01*
X188066628Y-57133847D01*
X188240872Y-56989750D01*
X188469305Y-56784889D01*
X188527833Y-56730391D01*
X188754306Y-56523628D01*
X188924673Y-56378810D01*
X189009971Y-56320201D01*
X189014666Y-56322553D01*
X189062671Y-56292479D01*
X189185791Y-56162706D01*
X189289833Y-56041742D01*
X189507796Y-55787629D01*
X189769006Y-55492546D01*
X189924833Y-55320819D01*
X190113035Y-55103639D01*
X190243275Y-54929493D01*
X190284666Y-54845508D01*
X190341694Y-54731217D01*
X190454000Y-54608333D01*
X190580964Y-54459165D01*
X190623333Y-54354333D01*
X190680929Y-54226755D01*
X190793186Y-54099863D01*
X190903452Y-53973995D01*
X190920001Y-53903112D01*
X190937124Y-53817049D01*
X191025315Y-53696148D01*
X191126429Y-53571074D01*
X191147898Y-53519944D01*
X191163857Y-53443484D01*
X191229845Y-53261552D01*
X191325962Y-53022897D01*
X191432311Y-52776266D01*
X191528992Y-52570409D01*
X191558525Y-52513982D01*
X191628678Y-52307346D01*
X191639333Y-52210593D01*
X191668058Y-52047722D01*
X191698228Y-51995327D01*
X191769016Y-51862719D01*
X191776243Y-51833049D01*
X191860887Y-51444477D01*
X191918941Y-51264000D01*
X192004772Y-50951657D01*
X192073720Y-50505659D01*
X192124993Y-49960915D01*
X192157794Y-49352336D01*
X192171330Y-48714835D01*
X192164806Y-48083322D01*
X192137428Y-47492707D01*
X192088402Y-46977903D01*
X192024902Y-46607333D01*
X191970053Y-46350665D01*
X191934353Y-46167186D01*
X191868678Y-45900495D01*
X191810321Y-45722686D01*
X191766654Y-45566356D01*
X191778796Y-45506667D01*
X191778398Y-45454936D01*
X191736052Y-45394188D01*
X191639135Y-45214175D01*
X191611404Y-45119021D01*
X191576186Y-44973959D01*
X191514779Y-44796609D01*
X191410801Y-44543553D01*
X191288189Y-44262478D01*
X191193687Y-44032442D01*
X191137813Y-43865432D01*
X191131333Y-43828345D01*
X191073132Y-43714535D01*
X191000142Y-43640521D01*
X190885229Y-43498399D01*
X190753013Y-43271296D01*
X190708000Y-43178333D01*
X190581121Y-42937925D01*
X190454311Y-42755231D01*
X190415858Y-42716145D01*
X190306987Y-42590613D01*
X190284666Y-42527993D01*
X190225495Y-42420488D01*
X190055303Y-42208409D01*
X189785073Y-41904607D01*
X189425790Y-41521933D01*
X189416833Y-41512584D01*
X189304282Y-41378156D01*
X189268666Y-41309619D01*
X189214793Y-41206845D01*
X189100923Y-41108373D01*
X188998682Y-41071704D01*
X188982413Y-41079809D01*
X188938322Y-41058851D01*
X188930000Y-40991111D01*
X188891490Y-40869614D01*
X188851881Y-40850000D01*
X188753788Y-40796787D01*
X188572574Y-40657455D01*
X188353365Y-40467418D01*
X188074347Y-40225723D01*
X187786950Y-39995806D01*
X187605984Y-39864011D01*
X187396117Y-39711468D01*
X187247729Y-39583977D01*
X187216796Y-39548093D01*
X187160872Y-39505133D01*
X187153296Y-39529622D01*
X187101081Y-39541702D01*
X187003833Y-39473937D01*
X186878934Y-39391618D01*
X186645041Y-39259324D01*
X186346127Y-39099716D01*
X186026162Y-38935452D01*
X185729119Y-38789194D01*
X185498969Y-38683599D01*
X185392659Y-38643654D01*
X185274474Y-38604451D01*
X185120000Y-38547272D01*
X184910689Y-38478683D01*
X184598669Y-38389220D01*
X184246328Y-38295664D01*
X183916052Y-38214793D01*
X183744702Y-38177369D01*
X183517124Y-38129103D01*
X183299666Y-38080453D01*
X183113173Y-38058135D01*
X182792530Y-38040808D01*
X182372849Y-38028524D01*
X181889242Y-38021340D01*
X181376820Y-38019309D01*
X181376820Y-34076667D01*
X194926037Y-34076667D01*
X194926037Y-38346158D01*
X194550605Y-38347996D01*
X194269427Y-38352014D01*
X194113697Y-38357872D01*
X194093405Y-38360703D01*
X194086389Y-38446220D01*
X194080354Y-38686160D01*
X194075269Y-39065617D01*
X194071103Y-39569683D01*
X194067827Y-40183451D01*
X194065410Y-40892015D01*
X194063822Y-41680467D01*
X194063032Y-42533901D01*
X194063011Y-43437409D01*
X194063729Y-44376084D01*
X194065154Y-45335020D01*
X194067256Y-46299310D01*
X194070006Y-47254045D01*
X194073374Y-48184320D01*
X194077328Y-49075228D01*
X194081839Y-49911861D01*
X194086876Y-50679313D01*
X194092410Y-51362676D01*
X194098410Y-51947044D01*
X194104845Y-52417509D01*
X194111686Y-52759164D01*
X194118902Y-52957104D01*
X194123108Y-52999667D01*
X194163531Y-53136257D01*
X194179817Y-53169000D01*
X194200300Y-53242102D01*
X194231029Y-53418407D01*
X194231727Y-53423000D01*
X194303414Y-53753920D01*
X194421994Y-54155252D01*
X194570027Y-54580254D01*
X194730072Y-54982184D01*
X194884688Y-55314299D01*
X195016434Y-55529858D01*
X195019040Y-55533054D01*
X195101318Y-55643191D01*
X195070591Y-55648529D01*
X195026000Y-55625234D01*
X194989341Y-55629619D01*
X195058733Y-55729427D01*
X195089500Y-55764304D01*
X195220402Y-55932345D01*
X195279693Y-56055871D01*
X195280000Y-56061168D01*
X195337138Y-56178093D01*
X195449333Y-56301667D01*
X195576215Y-56449768D01*
X195618666Y-56552905D01*
X195674106Y-56645042D01*
X195821614Y-56818132D01*
X196032976Y-57044254D01*
X196279976Y-57295490D01*
X196534398Y-57543920D01*
X196768028Y-57761625D01*
X196952649Y-57920686D01*
X197060046Y-57993183D01*
X197074071Y-57993040D01*
X197153200Y-58016855D01*
X197269197Y-58121481D01*
X197419542Y-58248763D01*
X197526422Y-58291333D01*
X197662478Y-58350532D01*
X197737031Y-58420379D01*
X197842928Y-58506651D01*
X197888694Y-58504861D01*
X197975887Y-58520852D01*
X198097185Y-58608648D01*
X198238707Y-58716371D01*
X198315722Y-58746613D01*
X198375869Y-58746173D01*
X198479671Y-58774982D01*
X198673828Y-58847491D01*
X198793666Y-58894497D01*
X199012881Y-58973249D01*
X199174666Y-59019095D01*
X199341681Y-59052076D01*
X199577062Y-59099460D01*
X199598000Y-59103711D01*
X199911416Y-59164009D01*
X200184104Y-59205451D01*
X200462466Y-59231734D01*
X200792906Y-59246554D01*
X201221827Y-59253606D01*
X201503000Y-59255448D01*
X202222350Y-59249434D01*
X202793756Y-59222498D01*
X203237527Y-59172837D01*
X203573970Y-59098646D01*
X203683166Y-59061649D01*
X203847143Y-59011491D01*
X203915996Y-59015017D01*
X203916000Y-59015270D01*
X203981112Y-59009921D01*
X204140702Y-58941216D01*
X204169113Y-58926792D01*
X204353158Y-58839165D01*
X204462645Y-58800937D01*
X204466912Y-58800931D01*
X204595688Y-58767798D01*
X204826813Y-58668351D01*
X205117757Y-58523935D01*
X205425992Y-58355895D01*
X205708987Y-58185575D01*
X205762235Y-58150848D01*
X205990269Y-57980342D01*
X206270379Y-57742670D01*
X206575935Y-57464038D01*
X206880309Y-57170654D01*
X207156872Y-56888726D01*
X207378996Y-56644463D01*
X207520051Y-56464071D01*
X207556666Y-56384786D01*
X207614206Y-56258355D01*
X207726000Y-56132333D01*
X207853045Y-55982097D01*
X207895333Y-55875578D01*
X207954532Y-55739521D01*
X208024379Y-55664968D01*
X208110651Y-55559071D01*
X208108861Y-55513306D01*
X208124852Y-55426112D01*
X208212648Y-55304815D01*
X208320137Y-55163321D01*
X208349976Y-55086278D01*
X208368869Y-54974122D01*
X208419428Y-54820000D01*
X208475656Y-54664764D01*
X208491230Y-54608333D01*
X208511706Y-54535602D01*
X208573684Y-54346331D01*
X208650051Y-54121500D01*
X208731300Y-53866859D01*
X208775367Y-53690651D01*
X208774776Y-53634667D01*
X208772260Y-53578180D01*
X208798122Y-53528833D01*
X208835080Y-53455856D01*
X208867673Y-53355581D01*
X208896197Y-53217569D01*
X208920943Y-53031379D01*
X208942206Y-52786571D01*
X208960278Y-52472705D01*
X208975455Y-52079343D01*
X208988028Y-51596042D01*
X208998292Y-51012364D01*
X209006540Y-50317869D01*
X209013066Y-49502117D01*
X209018162Y-48554667D01*
X209022123Y-47465080D01*
X209025242Y-46222915D01*
X209026844Y-45392988D01*
X209028314Y-43972064D01*
X209027425Y-42709249D01*
X209024192Y-41605925D01*
X209018629Y-40663469D01*
X209010750Y-39883260D01*
X209000569Y-39266679D01*
X208988102Y-38815104D01*
X208973362Y-38529915D01*
X208956364Y-38412491D01*
X208954055Y-38409660D01*
X208842626Y-38390068D01*
X208594782Y-38373197D01*
X208243437Y-38360503D01*
X207821505Y-38353442D01*
X207662500Y-38352568D01*
X206456000Y-38349458D01*
X206447601Y-44954896D01*
X206445989Y-46002248D01*
X206443901Y-47003778D01*
X206441399Y-47946100D01*
X206438545Y-48815825D01*
X206435398Y-49599567D01*
X206432020Y-50283939D01*
X206428471Y-50855553D01*
X206424814Y-51301022D01*
X206421107Y-51606959D01*
X206417413Y-51759976D01*
X206416586Y-51772000D01*
X206348288Y-52341232D01*
X206278067Y-52796674D01*
X206209626Y-53115846D01*
X206179526Y-53211333D01*
X206126874Y-53384815D01*
X206076195Y-53592333D01*
X205934074Y-54027765D01*
X205697660Y-54521818D01*
X205398583Y-55019902D01*
X205068476Y-55467429D01*
X204851239Y-55706349D01*
X204621510Y-55925219D01*
X204445149Y-56078172D01*
X204349175Y-56142439D01*
X204339333Y-56137727D01*
X204288191Y-56128679D01*
X204188068Y-56200649D01*
X204051496Y-56294309D01*
X203844238Y-56408202D01*
X203624606Y-56513758D01*
X203450908Y-56582408D01*
X203387237Y-56593015D01*
X203302304Y-56615304D01*
X203125501Y-56678801D01*
X203111666Y-56684117D01*
X202717033Y-56791369D01*
X202227365Y-56856352D01*
X201680750Y-56881078D01*
X201115277Y-56867559D01*
X200569031Y-56817807D01*
X200080100Y-56733833D01*
X199686571Y-56617651D01*
X199449833Y-56490682D01*
X199359029Y-56451800D01*
X199344000Y-56473755D01*
X199292710Y-56477040D01*
X199195833Y-56405489D01*
X199059335Y-56306800D01*
X198990950Y-56286533D01*
X198894775Y-56246966D01*
X198737341Y-56130326D01*
X198723032Y-56118029D01*
X198570493Y-56003161D01*
X198479916Y-55967744D01*
X198476094Y-55970128D01*
X198402766Y-55939377D01*
X198270113Y-55816046D01*
X198117485Y-55645167D01*
X197984230Y-55471775D01*
X197909697Y-55340901D01*
X197904666Y-55316145D01*
X197871958Y-55256262D01*
X197850237Y-55269541D01*
X197793084Y-55224337D01*
X197686274Y-55061498D01*
X197548765Y-54818198D01*
X197399515Y-54531610D01*
X197257480Y-54238908D01*
X197141619Y-53977265D01*
X197070889Y-53783857D01*
X197058000Y-53716048D01*
X197025531Y-53560501D01*
X196999105Y-53519327D01*
X196928317Y-53386719D01*
X196921090Y-53357049D01*
X196866060Y-53075169D01*
X196823565Y-52887055D01*
X196803813Y-52830333D01*
X196775658Y-52747468D01*
X196738004Y-52505376D01*
X196692258Y-52113811D01*
X196671577Y-51913205D01*
X196661696Y-51731401D01*
X196652069Y-51394893D01*
X196642841Y-50918308D01*
X196634155Y-50316276D01*
X196626158Y-49603425D01*
X196618994Y-48794384D01*
X196612806Y-47903782D01*
X196607742Y-46946247D01*
X196603944Y-45936408D01*
X196601558Y-44888893D01*
X196601469Y-44829333D01*
X196592057Y-38352333D01*
X195364529Y-38346841D01*
X194926037Y-38346158D01*
X194926037Y-34076667D01*
X215617033Y-34076667D01*
X215617033Y-38347178D01*
X214666590Y-38347808D01*
X213778391Y-38349317D01*
X212966155Y-38351640D01*
X212243601Y-38354708D01*
X211624449Y-38358454D01*
X211122419Y-38362811D01*
X210751230Y-38367712D01*
X210524602Y-38373089D01*
X210456500Y-38377721D01*
X210410506Y-38444330D01*
X210378682Y-38620479D01*
X210359450Y-38923929D01*
X210351233Y-39372441D01*
X210350666Y-39568987D01*
X210350666Y-40725190D01*
X212806000Y-40723000D01*
X215261333Y-40720810D01*
X215261333Y-58884000D01*
X217844061Y-58884000D01*
X217843864Y-49803500D01*
X217843666Y-40723000D01*
X222669666Y-40723000D01*
X222669666Y-38352333D01*
X216616000Y-38347496D01*
X215617033Y-38347178D01*
X215617033Y-34076667D01*
X225844666Y-34076667D01*
X225844666Y-63202000D01*
X2070666Y-63202000D01*
%LPC*%
D11*
X4000000Y-4000000D03*
X4000000Y-18000000D03*
X224000000Y-4000000D03*
X224000000Y-18000000D03*
X19000000Y-60000000D03*
X57000000Y-41000000D03*
X57000000Y-79000000D03*
X171000000Y-41000000D03*
X171000000Y-79000000D03*
X209000000Y-60000000D03*
M02*
