G04 #@! TF.GenerationSoftware,KiCad,Pcbnew,(5.1.2)-1*
G04 #@! TF.CreationDate,2020-05-19T15:32:55-05:00*
G04 #@! TF.ProjectId,plaid_bottom,706c6169-645f-4626-9f74-746f6d2e6b69,rev?*
G04 #@! TF.SameCoordinates,PX2faf080PY2faf080*
G04 #@! TF.FileFunction,Legend,Bot*
G04 #@! TF.FilePolarity,Positive*
%FSLAX46Y46*%
G04 Gerber Fmt 4.6, Leading zero omitted, Abs format (unit mm)*
G04 Created by KiCad (PCBNEW (5.1.2)-1) date 2020-05-19 15:32:55*
%MOMM*%
%LPD*%
G04 APERTURE LIST*
%ADD10C,0.010000*%
%ADD11C,4.800000*%
G04 APERTURE END LIST*
D10*
G36*
X191610258Y-57866290D02*
G01*
X191205202Y-57989155D01*
X190841678Y-58211081D01*
X190541747Y-58520932D01*
X190327473Y-58907574D01*
X190220918Y-59359872D01*
X190244144Y-59866691D01*
X190288392Y-60059871D01*
X190491873Y-60501542D01*
X190811673Y-60848208D01*
X191215615Y-61086245D01*
X191671519Y-61202024D01*
X192147209Y-61181920D01*
X192578516Y-61029667D01*
X192859740Y-60833697D01*
X193125684Y-60573844D01*
X193205666Y-60472040D01*
X193346806Y-60248885D01*
X193423730Y-60043208D01*
X193455001Y-59786414D01*
X193459666Y-59533334D01*
X192824666Y-59533334D01*
X192752060Y-59906156D01*
X192557287Y-60209561D01*
X192274915Y-60422715D01*
X191939512Y-60524783D01*
X191585646Y-60494932D01*
X191378598Y-60404887D01*
X191136044Y-60182360D01*
X190954059Y-59871514D01*
X190877585Y-59550493D01*
X190877333Y-59533333D01*
X190952556Y-59171801D01*
X191153621Y-58856909D01*
X191443625Y-58627013D01*
X191785662Y-58520468D01*
X191854899Y-58517333D01*
X192187117Y-58595214D01*
X192484366Y-58801796D01*
X192707902Y-59096490D01*
X192818981Y-59438705D01*
X192824666Y-59533334D01*
X193459666Y-59533334D01*
X193449519Y-59197073D01*
X193406598Y-58960218D01*
X193312188Y-58753429D01*
X193204534Y-58588127D01*
X192853982Y-58203403D01*
X192456710Y-57962279D01*
X192034781Y-57853619D01*
X191610258Y-57866290D01*
X191610258Y-57866290D01*
G37*
X191610258Y-57866290D02*
X191205202Y-57989155D01*
X190841678Y-58211081D01*
X190541747Y-58520932D01*
X190327473Y-58907574D01*
X190220918Y-59359872D01*
X190244144Y-59866691D01*
X190288392Y-60059871D01*
X190491873Y-60501542D01*
X190811673Y-60848208D01*
X191215615Y-61086245D01*
X191671519Y-61202024D01*
X192147209Y-61181920D01*
X192578516Y-61029667D01*
X192859740Y-60833697D01*
X193125684Y-60573844D01*
X193205666Y-60472040D01*
X193346806Y-60248885D01*
X193423730Y-60043208D01*
X193455001Y-59786414D01*
X193459666Y-59533334D01*
X192824666Y-59533334D01*
X192752060Y-59906156D01*
X192557287Y-60209561D01*
X192274915Y-60422715D01*
X191939512Y-60524783D01*
X191585646Y-60494932D01*
X191378598Y-60404887D01*
X191136044Y-60182360D01*
X190954059Y-59871514D01*
X190877585Y-59550493D01*
X190877333Y-59533333D01*
X190952556Y-59171801D01*
X191153621Y-58856909D01*
X191443625Y-58627013D01*
X191785662Y-58520468D01*
X191854899Y-58517333D01*
X192187117Y-58595214D01*
X192484366Y-58801796D01*
X192707902Y-59096490D01*
X192818981Y-59438705D01*
X192824666Y-59533334D01*
X193459666Y-59533334D01*
X193449519Y-59197073D01*
X193406598Y-58960218D01*
X193312188Y-58753429D01*
X193204534Y-58588127D01*
X192853982Y-58203403D01*
X192456710Y-57962279D01*
X192034781Y-57853619D01*
X191610258Y-57866290D01*
G36*
X178177333Y-61819334D02*
G01*
X186474666Y-61819334D01*
X186474666Y-59872000D01*
X178177333Y-59872000D01*
X178177333Y-61819334D01*
X178177333Y-61819334D01*
G37*
X178177333Y-61819334D02*
X186474666Y-61819334D01*
X186474666Y-59872000D01*
X178177333Y-59872000D01*
X178177333Y-61819334D01*
G36*
X145900479Y-60003778D02*
G01*
X145720995Y-60131704D01*
X145477678Y-60356330D01*
X145144255Y-60686719D01*
X145051185Y-60779491D01*
X144394704Y-61433174D01*
X144754852Y-61753851D01*
X145029113Y-61993150D01*
X145215759Y-62122941D01*
X145354150Y-62145746D01*
X145483648Y-62064086D01*
X145643613Y-61880483D01*
X145696786Y-61814193D01*
X145949335Y-61532982D01*
X146260802Y-61232284D01*
X146485581Y-61040611D01*
X146946590Y-60676334D01*
X146505572Y-60277811D01*
X146318677Y-60109568D01*
X146173045Y-60001773D01*
X146042404Y-59963489D01*
X145900479Y-60003778D01*
X145900479Y-60003778D01*
G37*
X145900479Y-60003778D02*
X145720995Y-60131704D01*
X145477678Y-60356330D01*
X145144255Y-60686719D01*
X145051185Y-60779491D01*
X144394704Y-61433174D01*
X144754852Y-61753851D01*
X145029113Y-61993150D01*
X145215759Y-62122941D01*
X145354150Y-62145746D01*
X145483648Y-62064086D01*
X145643613Y-61880483D01*
X145696786Y-61814193D01*
X145949335Y-61532982D01*
X146260802Y-61232284D01*
X146485581Y-61040611D01*
X146946590Y-60676334D01*
X146505572Y-60277811D01*
X146318677Y-60109568D01*
X146173045Y-60001773D01*
X146042404Y-59963489D01*
X145900479Y-60003778D01*
G36*
X147864043Y-61169267D02*
G01*
X147592659Y-61387662D01*
X147259480Y-61695266D01*
X146909431Y-62049815D01*
X146782536Y-62186738D01*
X146418072Y-62587598D01*
X146867202Y-62963645D01*
X147096683Y-63151276D01*
X147272480Y-63286626D01*
X147357736Y-63341362D01*
X147358666Y-63341471D01*
X147431042Y-63283175D01*
X147579825Y-63128724D01*
X147770239Y-62914493D01*
X148045287Y-62621076D01*
X148359515Y-62322987D01*
X148552869Y-62158968D01*
X148966260Y-61832201D01*
X148485567Y-61450867D01*
X148223687Y-61252608D01*
X148052193Y-61152884D01*
X147936463Y-61136010D01*
X147864043Y-61169267D01*
X147864043Y-61169267D01*
G37*
X147864043Y-61169267D02*
X147592659Y-61387662D01*
X147259480Y-61695266D01*
X146909431Y-62049815D01*
X146782536Y-62186738D01*
X146418072Y-62587598D01*
X146867202Y-62963645D01*
X147096683Y-63151276D01*
X147272480Y-63286626D01*
X147357736Y-63341362D01*
X147358666Y-63341471D01*
X147431042Y-63283175D01*
X147579825Y-63128724D01*
X147770239Y-62914493D01*
X148045287Y-62621076D01*
X148359515Y-62322987D01*
X148552869Y-62158968D01*
X148966260Y-61832201D01*
X148485567Y-61450867D01*
X148223687Y-61252608D01*
X148052193Y-61152884D01*
X147936463Y-61136010D01*
X147864043Y-61169267D01*
G36*
X166862577Y-63168490D02*
G01*
X166734402Y-63352498D01*
X166574243Y-63639733D01*
X166395817Y-64002528D01*
X166212841Y-64413212D01*
X166039032Y-64844117D01*
X165908619Y-65206000D01*
X165665723Y-65925667D01*
X166016028Y-66065415D01*
X166309860Y-66182483D01*
X166652640Y-66318846D01*
X166802275Y-66378306D01*
X167238217Y-66551449D01*
X167292139Y-66264020D01*
X167372323Y-65971715D01*
X167515355Y-65577272D01*
X167702093Y-65126713D01*
X167913394Y-64666060D01*
X168130116Y-64241335D01*
X168144118Y-64215735D01*
X168432441Y-63691136D01*
X167738054Y-63422570D01*
X167413795Y-63297105D01*
X167145341Y-63193136D01*
X166975416Y-63127214D01*
X166945050Y-63115380D01*
X166862577Y-63168490D01*
X166862577Y-63168490D01*
G37*
X166862577Y-63168490D02*
X166734402Y-63352498D01*
X166574243Y-63639733D01*
X166395817Y-64002528D01*
X166212841Y-64413212D01*
X166039032Y-64844117D01*
X165908619Y-65206000D01*
X165665723Y-65925667D01*
X166016028Y-66065415D01*
X166309860Y-66182483D01*
X166652640Y-66318846D01*
X166802275Y-66378306D01*
X167238217Y-66551449D01*
X167292139Y-66264020D01*
X167372323Y-65971715D01*
X167515355Y-65577272D01*
X167702093Y-65126713D01*
X167913394Y-64666060D01*
X168130116Y-64241335D01*
X168144118Y-64215735D01*
X168432441Y-63691136D01*
X167738054Y-63422570D01*
X167413795Y-63297105D01*
X167145341Y-63193136D01*
X166975416Y-63127214D01*
X166945050Y-63115380D01*
X166862577Y-63168490D01*
G36*
X169799939Y-64511037D02*
G01*
X169608490Y-64857507D01*
X169395823Y-65280597D01*
X169185399Y-65729532D01*
X169000679Y-66153540D01*
X168865122Y-66501845D01*
X168828395Y-66613671D01*
X168826604Y-66772163D01*
X168925126Y-66836817D01*
X169071013Y-66885380D01*
X169327753Y-66976941D01*
X169647863Y-67094465D01*
X169758701Y-67135814D01*
X170441735Y-67391670D01*
X170543707Y-67010408D01*
X170642525Y-66723795D01*
X170807206Y-66334627D01*
X171017369Y-65886074D01*
X171252637Y-65421309D01*
X171492630Y-64983503D01*
X171534905Y-64910642D01*
X171748303Y-64546505D01*
X171385651Y-64420361D01*
X171085785Y-64311563D01*
X170737942Y-64179175D01*
X170580969Y-64117317D01*
X170138938Y-63940417D01*
X169799939Y-64511037D01*
X169799939Y-64511037D01*
G37*
X169799939Y-64511037D02*
X169608490Y-64857507D01*
X169395823Y-65280597D01*
X169185399Y-65729532D01*
X169000679Y-66153540D01*
X168865122Y-66501845D01*
X168828395Y-66613671D01*
X168826604Y-66772163D01*
X168925126Y-66836817D01*
X169071013Y-66885380D01*
X169327753Y-66976941D01*
X169647863Y-67094465D01*
X169758701Y-67135814D01*
X170441735Y-67391670D01*
X170543707Y-67010408D01*
X170642525Y-66723795D01*
X170807206Y-66334627D01*
X171017369Y-65886074D01*
X171252637Y-65421309D01*
X171492630Y-64983503D01*
X171534905Y-64910642D01*
X171748303Y-64546505D01*
X171385651Y-64420361D01*
X171085785Y-64311563D01*
X170737942Y-64179175D01*
X170580969Y-64117317D01*
X170138938Y-63940417D01*
X169799939Y-64511037D01*
G36*
X39916666Y-67576667D02*
G01*
X52362666Y-67576667D01*
X52362666Y-65375334D01*
X39916666Y-65375334D01*
X39916666Y-67576667D01*
X39916666Y-67576667D01*
G37*
X39916666Y-67576667D02*
X52362666Y-67576667D01*
X52362666Y-65375334D01*
X39916666Y-65375334D01*
X39916666Y-67576667D01*
G36*
X72174666Y-67576667D02*
G01*
X84620666Y-67576667D01*
X84620666Y-65375334D01*
X72174666Y-65375334D01*
X72174666Y-67576667D01*
X72174666Y-67576667D01*
G37*
X72174666Y-67576667D02*
X84620666Y-67576667D01*
X84620666Y-65375334D01*
X72174666Y-65375334D01*
X72174666Y-67576667D01*
G36*
X57780809Y-66582234D02*
G01*
X57492183Y-66886334D01*
X57173488Y-67246941D01*
X56841364Y-67642313D01*
X56512452Y-68050710D01*
X56203391Y-68450390D01*
X55930822Y-68819611D01*
X55711384Y-69136633D01*
X55561718Y-69379713D01*
X55498464Y-69527110D01*
X55503665Y-69557476D01*
X55579257Y-69620307D01*
X55758169Y-69766980D01*
X56012328Y-69974526D01*
X56266517Y-70181612D01*
X56995367Y-70774825D01*
X57305114Y-70245320D01*
X58073438Y-69070955D01*
X58930496Y-68017381D01*
X59123770Y-67809988D01*
X59767308Y-67136405D01*
X59388154Y-66804577D01*
X59113602Y-66567518D01*
X58832485Y-66329717D01*
X58700988Y-66220775D01*
X58392977Y-65968801D01*
X57780809Y-66582234D01*
X57780809Y-66582234D01*
G37*
X57780809Y-66582234D02*
X57492183Y-66886334D01*
X57173488Y-67246941D01*
X56841364Y-67642313D01*
X56512452Y-68050710D01*
X56203391Y-68450390D01*
X55930822Y-68819611D01*
X55711384Y-69136633D01*
X55561718Y-69379713D01*
X55498464Y-69527110D01*
X55503665Y-69557476D01*
X55579257Y-69620307D01*
X55758169Y-69766980D01*
X56012328Y-69974526D01*
X56266517Y-70181612D01*
X56995367Y-70774825D01*
X57305114Y-70245320D01*
X58073438Y-69070955D01*
X58930496Y-68017381D01*
X59123770Y-67809988D01*
X59767308Y-67136405D01*
X59388154Y-66804577D01*
X59113602Y-66567518D01*
X58832485Y-66329717D01*
X58700988Y-66220775D01*
X58392977Y-65968801D01*
X57780809Y-66582234D01*
G36*
X66041712Y-66181645D02*
G01*
X65861214Y-66287585D01*
X65611763Y-66446166D01*
X65327753Y-66634464D01*
X65043576Y-66829550D01*
X64793626Y-67008499D01*
X64612297Y-67148385D01*
X64575833Y-67179838D01*
X64419534Y-67350625D01*
X64410845Y-67466899D01*
X64550489Y-67558401D01*
X64585391Y-67572253D01*
X64720359Y-67673000D01*
X64915311Y-67879627D01*
X65137823Y-68156117D01*
X65250464Y-68310991D01*
X65537388Y-68700442D01*
X65872671Y-69126842D01*
X66191605Y-69508320D01*
X66242671Y-69566334D01*
X66496635Y-69842446D01*
X66785630Y-70141876D01*
X67084034Y-70439892D01*
X67366223Y-70711768D01*
X67606573Y-70932774D01*
X67779460Y-71078182D01*
X67856666Y-71123952D01*
X67942327Y-71079258D01*
X68132648Y-70963178D01*
X68391280Y-70798078D01*
X68474693Y-70743684D01*
X68791291Y-70540700D01*
X69094262Y-70353925D01*
X69323960Y-70220031D01*
X69345252Y-70208462D01*
X69640118Y-70050424D01*
X69225771Y-69746265D01*
X68866470Y-69449858D01*
X68443825Y-69049303D01*
X67990408Y-68580001D01*
X67538791Y-68077354D01*
X67121545Y-67576763D01*
X66771242Y-67113628D01*
X66675397Y-66974318D01*
X66461764Y-66655012D01*
X66284402Y-66391682D01*
X66163237Y-66213797D01*
X66118862Y-66151274D01*
X66041712Y-66181645D01*
X66041712Y-66181645D01*
G37*
X66041712Y-66181645D02*
X65861214Y-66287585D01*
X65611763Y-66446166D01*
X65327753Y-66634464D01*
X65043576Y-66829550D01*
X64793626Y-67008499D01*
X64612297Y-67148385D01*
X64575833Y-67179838D01*
X64419534Y-67350625D01*
X64410845Y-67466899D01*
X64550489Y-67558401D01*
X64585391Y-67572253D01*
X64720359Y-67673000D01*
X64915311Y-67879627D01*
X65137823Y-68156117D01*
X65250464Y-68310991D01*
X65537388Y-68700442D01*
X65872671Y-69126842D01*
X66191605Y-69508320D01*
X66242671Y-69566334D01*
X66496635Y-69842446D01*
X66785630Y-70141876D01*
X67084034Y-70439892D01*
X67366223Y-70711768D01*
X67606573Y-70932774D01*
X67779460Y-71078182D01*
X67856666Y-71123952D01*
X67942327Y-71079258D01*
X68132648Y-70963178D01*
X68391280Y-70798078D01*
X68474693Y-70743684D01*
X68791291Y-70540700D01*
X69094262Y-70353925D01*
X69323960Y-70220031D01*
X69345252Y-70208462D01*
X69640118Y-70050424D01*
X69225771Y-69746265D01*
X68866470Y-69449858D01*
X68443825Y-69049303D01*
X67990408Y-68580001D01*
X67538791Y-68077354D01*
X67121545Y-67576763D01*
X66771242Y-67113628D01*
X66675397Y-66974318D01*
X66461764Y-66655012D01*
X66284402Y-66391682D01*
X66163237Y-66213797D01*
X66118862Y-66151274D01*
X66041712Y-66181645D01*
G36*
X30158833Y-60493363D02*
G01*
X29955526Y-60523604D01*
X29636591Y-60565592D01*
X29254713Y-60612534D01*
X29037330Y-60637958D01*
X28559931Y-60699190D01*
X28232386Y-60759670D01*
X28035413Y-60826805D01*
X27949727Y-60908000D01*
X27956047Y-61010658D01*
X27972968Y-61046685D01*
X28110397Y-61234020D01*
X28185711Y-61307497D01*
X28217295Y-61349900D01*
X28243477Y-61429646D01*
X28264747Y-61561309D01*
X28281596Y-61759463D01*
X28294515Y-62038684D01*
X28303994Y-62413546D01*
X28310524Y-62898622D01*
X28314597Y-63508489D01*
X28316703Y-64257720D01*
X28317332Y-65160891D01*
X28317333Y-65216367D01*
X28316263Y-66000191D01*
X28313202Y-66729465D01*
X28308369Y-67387268D01*
X28301986Y-67956680D01*
X28294275Y-68420781D01*
X28285456Y-68762649D01*
X28275751Y-68965365D01*
X28267670Y-69016000D01*
X28180641Y-68970957D01*
X27988634Y-68850184D01*
X27725279Y-68675219D01*
X27573522Y-68571500D01*
X27168267Y-68264922D01*
X26690198Y-67860155D01*
X26173640Y-67390139D01*
X25652918Y-66887817D01*
X25162355Y-66386128D01*
X24736278Y-65918015D01*
X24459927Y-65583404D01*
X24225992Y-65281137D01*
X24017790Y-65012168D01*
X23866360Y-64816595D01*
X23821025Y-64758074D01*
X23760934Y-64691586D01*
X23700758Y-64675394D01*
X23621726Y-64727759D01*
X23505065Y-64866945D01*
X23332006Y-65111212D01*
X23090588Y-65468667D01*
X22496125Y-66354698D01*
X23125902Y-67113849D01*
X23834924Y-67926536D01*
X24609345Y-68739458D01*
X25423037Y-69529183D01*
X26249874Y-70272282D01*
X27063727Y-70945324D01*
X27838470Y-71524878D01*
X28547975Y-71987513D01*
X28584601Y-72009109D01*
X28952879Y-72224935D01*
X29693439Y-71658008D01*
X30434000Y-71091082D01*
X30434000Y-60445822D01*
X30158833Y-60493363D01*
X30158833Y-60493363D01*
G37*
X30158833Y-60493363D02*
X29955526Y-60523604D01*
X29636591Y-60565592D01*
X29254713Y-60612534D01*
X29037330Y-60637958D01*
X28559931Y-60699190D01*
X28232386Y-60759670D01*
X28035413Y-60826805D01*
X27949727Y-60908000D01*
X27956047Y-61010658D01*
X27972968Y-61046685D01*
X28110397Y-61234020D01*
X28185711Y-61307497D01*
X28217295Y-61349900D01*
X28243477Y-61429646D01*
X28264747Y-61561309D01*
X28281596Y-61759463D01*
X28294515Y-62038684D01*
X28303994Y-62413546D01*
X28310524Y-62898622D01*
X28314597Y-63508489D01*
X28316703Y-64257720D01*
X28317332Y-65160891D01*
X28317333Y-65216367D01*
X28316263Y-66000191D01*
X28313202Y-66729465D01*
X28308369Y-67387268D01*
X28301986Y-67956680D01*
X28294275Y-68420781D01*
X28285456Y-68762649D01*
X28275751Y-68965365D01*
X28267670Y-69016000D01*
X28180641Y-68970957D01*
X27988634Y-68850184D01*
X27725279Y-68675219D01*
X27573522Y-68571500D01*
X27168267Y-68264922D01*
X26690198Y-67860155D01*
X26173640Y-67390139D01*
X25652918Y-66887817D01*
X25162355Y-66386128D01*
X24736278Y-65918015D01*
X24459927Y-65583404D01*
X24225992Y-65281137D01*
X24017790Y-65012168D01*
X23866360Y-64816595D01*
X23821025Y-64758074D01*
X23760934Y-64691586D01*
X23700758Y-64675394D01*
X23621726Y-64727759D01*
X23505065Y-64866945D01*
X23332006Y-65111212D01*
X23090588Y-65468667D01*
X22496125Y-66354698D01*
X23125902Y-67113849D01*
X23834924Y-67926536D01*
X24609345Y-68739458D01*
X25423037Y-69529183D01*
X26249874Y-70272282D01*
X27063727Y-70945324D01*
X27838470Y-71524878D01*
X28547975Y-71987513D01*
X28584601Y-72009109D01*
X28952879Y-72224935D01*
X29693439Y-71658008D01*
X30434000Y-71091082D01*
X30434000Y-60445822D01*
X30158833Y-60493363D01*
G36*
X33530266Y-60740959D02*
G01*
X33097778Y-60768630D01*
X32712566Y-60797719D01*
X32413671Y-60824973D01*
X32240134Y-60847141D01*
X32229541Y-60849316D01*
X32036295Y-60947322D01*
X31984592Y-61096516D01*
X32085309Y-61255640D01*
X32116203Y-61279200D01*
X32175434Y-61327071D01*
X32220059Y-61391495D01*
X32252145Y-61494948D01*
X32273762Y-61659905D01*
X32286979Y-61908841D01*
X32293864Y-62264233D01*
X32296486Y-62748555D01*
X32296905Y-63242301D01*
X32301481Y-63841365D01*
X32314100Y-64436556D01*
X32333329Y-64988069D01*
X32357733Y-65456096D01*
X32385879Y-65800832D01*
X32390524Y-65841000D01*
X32611527Y-67020192D01*
X32974953Y-68152715D01*
X33469815Y-69208329D01*
X33826576Y-69794179D01*
X34038100Y-70074211D01*
X34339711Y-70427256D01*
X34697654Y-70818223D01*
X35078172Y-71212021D01*
X35447510Y-71573560D01*
X35771913Y-71867749D01*
X35982570Y-72035434D01*
X36233666Y-72213740D01*
X36487666Y-72022009D01*
X36666473Y-71889027D01*
X36938120Y-71689318D01*
X37258259Y-71455421D01*
X37443374Y-71320774D01*
X38145082Y-70811269D01*
X37528041Y-70405682D01*
X36985932Y-70002753D01*
X36448135Y-69519672D01*
X35957421Y-68999866D01*
X35556564Y-68486762D01*
X35406110Y-68251295D01*
X35083760Y-67591408D01*
X34810719Y-66817397D01*
X34602991Y-65981167D01*
X34493225Y-65290667D01*
X34461662Y-64895348D01*
X34442695Y-64387215D01*
X34435626Y-63804588D01*
X34439755Y-63185792D01*
X34454385Y-62569150D01*
X34478815Y-61992983D01*
X34512348Y-61495615D01*
X34554283Y-61115369D01*
X34571211Y-61015000D01*
X34636866Y-60676334D01*
X33530266Y-60740959D01*
X33530266Y-60740959D01*
G37*
X33530266Y-60740959D02*
X33097778Y-60768630D01*
X32712566Y-60797719D01*
X32413671Y-60824973D01*
X32240134Y-60847141D01*
X32229541Y-60849316D01*
X32036295Y-60947322D01*
X31984592Y-61096516D01*
X32085309Y-61255640D01*
X32116203Y-61279200D01*
X32175434Y-61327071D01*
X32220059Y-61391495D01*
X32252145Y-61494948D01*
X32273762Y-61659905D01*
X32286979Y-61908841D01*
X32293864Y-62264233D01*
X32296486Y-62748555D01*
X32296905Y-63242301D01*
X32301481Y-63841365D01*
X32314100Y-64436556D01*
X32333329Y-64988069D01*
X32357733Y-65456096D01*
X32385879Y-65800832D01*
X32390524Y-65841000D01*
X32611527Y-67020192D01*
X32974953Y-68152715D01*
X33469815Y-69208329D01*
X33826576Y-69794179D01*
X34038100Y-70074211D01*
X34339711Y-70427256D01*
X34697654Y-70818223D01*
X35078172Y-71212021D01*
X35447510Y-71573560D01*
X35771913Y-71867749D01*
X35982570Y-72035434D01*
X36233666Y-72213740D01*
X36487666Y-72022009D01*
X36666473Y-71889027D01*
X36938120Y-71689318D01*
X37258259Y-71455421D01*
X37443374Y-71320774D01*
X38145082Y-70811269D01*
X37528041Y-70405682D01*
X36985932Y-70002753D01*
X36448135Y-69519672D01*
X35957421Y-68999866D01*
X35556564Y-68486762D01*
X35406110Y-68251295D01*
X35083760Y-67591408D01*
X34810719Y-66817397D01*
X34602991Y-65981167D01*
X34493225Y-65290667D01*
X34461662Y-64895348D01*
X34442695Y-64387215D01*
X34435626Y-63804588D01*
X34439755Y-63185792D01*
X34454385Y-62569150D01*
X34478815Y-61992983D01*
X34512348Y-61495615D01*
X34554283Y-61115369D01*
X34571211Y-61015000D01*
X34636866Y-60676334D01*
X33530266Y-60740959D01*
G36*
X95521500Y-60493363D02*
G01*
X95318193Y-60523604D01*
X94999258Y-60565592D01*
X94617380Y-60612534D01*
X94399997Y-60637958D01*
X93922598Y-60699190D01*
X93595053Y-60759670D01*
X93398079Y-60826805D01*
X93312394Y-60908000D01*
X93318713Y-61010658D01*
X93335634Y-61046685D01*
X93473063Y-61234020D01*
X93548377Y-61307497D01*
X93579962Y-61349900D01*
X93606143Y-61429646D01*
X93627413Y-61561309D01*
X93644262Y-61759463D01*
X93657181Y-62038684D01*
X93666660Y-62413546D01*
X93673191Y-62898622D01*
X93677264Y-63508489D01*
X93679369Y-64257720D01*
X93679998Y-65160891D01*
X93680000Y-65216367D01*
X93678930Y-66000191D01*
X93675868Y-66729465D01*
X93671035Y-67387268D01*
X93664653Y-67956680D01*
X93656942Y-68420781D01*
X93648123Y-68762649D01*
X93638418Y-68965365D01*
X93630337Y-69016000D01*
X93543308Y-68970957D01*
X93351300Y-68850184D01*
X93087946Y-68675219D01*
X92936189Y-68571500D01*
X92530934Y-68264922D01*
X92052865Y-67860155D01*
X91536307Y-67390139D01*
X91015584Y-66887817D01*
X90525022Y-66386128D01*
X90098944Y-65918015D01*
X89822594Y-65583404D01*
X89588659Y-65281137D01*
X89380457Y-65012168D01*
X89229027Y-64816595D01*
X89183691Y-64758074D01*
X89123600Y-64691586D01*
X89063424Y-64675394D01*
X88984392Y-64727759D01*
X88867732Y-64866945D01*
X88694672Y-65111212D01*
X88453254Y-65468667D01*
X87858792Y-66354698D01*
X88488569Y-67113849D01*
X89197591Y-67926536D01*
X89972011Y-68739458D01*
X90785704Y-69529183D01*
X91612540Y-70272282D01*
X92426394Y-70945324D01*
X93201137Y-71524878D01*
X93910642Y-71987513D01*
X93947267Y-72009109D01*
X94315545Y-72224935D01*
X95056106Y-71658008D01*
X95796666Y-71091082D01*
X95796666Y-60445822D01*
X95521500Y-60493363D01*
X95521500Y-60493363D01*
G37*
X95521500Y-60493363D02*
X95318193Y-60523604D01*
X94999258Y-60565592D01*
X94617380Y-60612534D01*
X94399997Y-60637958D01*
X93922598Y-60699190D01*
X93595053Y-60759670D01*
X93398079Y-60826805D01*
X93312394Y-60908000D01*
X93318713Y-61010658D01*
X93335634Y-61046685D01*
X93473063Y-61234020D01*
X93548377Y-61307497D01*
X93579962Y-61349900D01*
X93606143Y-61429646D01*
X93627413Y-61561309D01*
X93644262Y-61759463D01*
X93657181Y-62038684D01*
X93666660Y-62413546D01*
X93673191Y-62898622D01*
X93677264Y-63508489D01*
X93679369Y-64257720D01*
X93679998Y-65160891D01*
X93680000Y-65216367D01*
X93678930Y-66000191D01*
X93675868Y-66729465D01*
X93671035Y-67387268D01*
X93664653Y-67956680D01*
X93656942Y-68420781D01*
X93648123Y-68762649D01*
X93638418Y-68965365D01*
X93630337Y-69016000D01*
X93543308Y-68970957D01*
X93351300Y-68850184D01*
X93087946Y-68675219D01*
X92936189Y-68571500D01*
X92530934Y-68264922D01*
X92052865Y-67860155D01*
X91536307Y-67390139D01*
X91015584Y-66887817D01*
X90525022Y-66386128D01*
X90098944Y-65918015D01*
X89822594Y-65583404D01*
X89588659Y-65281137D01*
X89380457Y-65012168D01*
X89229027Y-64816595D01*
X89183691Y-64758074D01*
X89123600Y-64691586D01*
X89063424Y-64675394D01*
X88984392Y-64727759D01*
X88867732Y-64866945D01*
X88694672Y-65111212D01*
X88453254Y-65468667D01*
X87858792Y-66354698D01*
X88488569Y-67113849D01*
X89197591Y-67926536D01*
X89972011Y-68739458D01*
X90785704Y-69529183D01*
X91612540Y-70272282D01*
X92426394Y-70945324D01*
X93201137Y-71524878D01*
X93910642Y-71987513D01*
X93947267Y-72009109D01*
X94315545Y-72224935D01*
X95056106Y-71658008D01*
X95796666Y-71091082D01*
X95796666Y-60445822D01*
X95521500Y-60493363D01*
G36*
X98892933Y-60740959D02*
G01*
X98460445Y-60768630D01*
X98075232Y-60797719D01*
X97776337Y-60824973D01*
X97602801Y-60847141D01*
X97592208Y-60849316D01*
X97398962Y-60947322D01*
X97347258Y-61096516D01*
X97447976Y-61255640D01*
X97478870Y-61279200D01*
X97538101Y-61327071D01*
X97582725Y-61391495D01*
X97614812Y-61494948D01*
X97636429Y-61659905D01*
X97649645Y-61908841D01*
X97656531Y-62264233D01*
X97659153Y-62748555D01*
X97659572Y-63242301D01*
X97664148Y-63841365D01*
X97676767Y-64436556D01*
X97695996Y-64988069D01*
X97720400Y-65456096D01*
X97748545Y-65800832D01*
X97753191Y-65841000D01*
X97974194Y-67020192D01*
X98337620Y-68152715D01*
X98832482Y-69208329D01*
X99189243Y-69794179D01*
X99400767Y-70074211D01*
X99702378Y-70427256D01*
X100060321Y-70818223D01*
X100440839Y-71212021D01*
X100810177Y-71573560D01*
X101134580Y-71867749D01*
X101345237Y-72035434D01*
X101596333Y-72213740D01*
X101850333Y-72022009D01*
X102029140Y-71889027D01*
X102300786Y-71689318D01*
X102620926Y-71455421D01*
X102806041Y-71320774D01*
X103507749Y-70811269D01*
X102890708Y-70405682D01*
X102348599Y-70002753D01*
X101810802Y-69519672D01*
X101320088Y-68999866D01*
X100919231Y-68486762D01*
X100768777Y-68251295D01*
X100446427Y-67591408D01*
X100173386Y-66817397D01*
X99965658Y-65981167D01*
X99855892Y-65290667D01*
X99824328Y-64895348D01*
X99805361Y-64387215D01*
X99798292Y-63804588D01*
X99802422Y-63185792D01*
X99817052Y-62569150D01*
X99841482Y-61992983D01*
X99875015Y-61495615D01*
X99916950Y-61115369D01*
X99933878Y-61015000D01*
X99999533Y-60676334D01*
X98892933Y-60740959D01*
X98892933Y-60740959D01*
G37*
X98892933Y-60740959D02*
X98460445Y-60768630D01*
X98075232Y-60797719D01*
X97776337Y-60824973D01*
X97602801Y-60847141D01*
X97592208Y-60849316D01*
X97398962Y-60947322D01*
X97347258Y-61096516D01*
X97447976Y-61255640D01*
X97478870Y-61279200D01*
X97538101Y-61327071D01*
X97582725Y-61391495D01*
X97614812Y-61494948D01*
X97636429Y-61659905D01*
X97649645Y-61908841D01*
X97656531Y-62264233D01*
X97659153Y-62748555D01*
X97659572Y-63242301D01*
X97664148Y-63841365D01*
X97676767Y-64436556D01*
X97695996Y-64988069D01*
X97720400Y-65456096D01*
X97748545Y-65800832D01*
X97753191Y-65841000D01*
X97974194Y-67020192D01*
X98337620Y-68152715D01*
X98832482Y-69208329D01*
X99189243Y-69794179D01*
X99400767Y-70074211D01*
X99702378Y-70427256D01*
X100060321Y-70818223D01*
X100440839Y-71212021D01*
X100810177Y-71573560D01*
X101134580Y-71867749D01*
X101345237Y-72035434D01*
X101596333Y-72213740D01*
X101850333Y-72022009D01*
X102029140Y-71889027D01*
X102300786Y-71689318D01*
X102620926Y-71455421D01*
X102806041Y-71320774D01*
X103507749Y-70811269D01*
X102890708Y-70405682D01*
X102348599Y-70002753D01*
X101810802Y-69519672D01*
X101320088Y-68999866D01*
X100919231Y-68486762D01*
X100768777Y-68251295D01*
X100446427Y-67591408D01*
X100173386Y-66817397D01*
X99965658Y-65981167D01*
X99855892Y-65290667D01*
X99824328Y-64895348D01*
X99805361Y-64387215D01*
X99798292Y-63804588D01*
X99802422Y-63185792D01*
X99817052Y-62569150D01*
X99841482Y-61992983D01*
X99875015Y-61495615D01*
X99916950Y-61115369D01*
X99933878Y-61015000D01*
X99999533Y-60676334D01*
X98892933Y-60740959D01*
G36*
X108643566Y-60987431D02*
G01*
X107981714Y-61724771D01*
X108354834Y-62068700D01*
X108522005Y-62241177D01*
X108677697Y-62449059D01*
X108839772Y-62722640D01*
X109026089Y-63092215D01*
X109254509Y-63588078D01*
X109266822Y-63615540D01*
X109511171Y-64138127D01*
X109792869Y-64704462D01*
X110079265Y-65250829D01*
X110337710Y-65713509D01*
X110369700Y-65767805D01*
X110933709Y-66717162D01*
X110202078Y-67295081D01*
X109934718Y-67518446D01*
X109574322Y-67837331D01*
X109147389Y-68227319D01*
X108680419Y-68663991D01*
X108199910Y-69122932D01*
X107872428Y-69441675D01*
X106274410Y-71010351D01*
X107068038Y-71842285D01*
X107861666Y-72674220D01*
X108495350Y-71924610D01*
X109066782Y-71271453D01*
X109684060Y-70605792D01*
X110310580Y-69965076D01*
X110909743Y-69386749D01*
X111436978Y-68915018D01*
X112133623Y-68323496D01*
X112823744Y-69052561D01*
X113883021Y-70070089D01*
X115055755Y-71000687D01*
X116359953Y-71857773D01*
X117305537Y-72391855D01*
X118113408Y-72822254D01*
X119673598Y-71255550D01*
X118381965Y-70601306D01*
X117431483Y-70090902D01*
X116599589Y-69575974D01*
X115838189Y-69022149D01*
X115099191Y-68395059D01*
X114505068Y-67830667D01*
X113758801Y-67054177D01*
X113130034Y-66310460D01*
X112584836Y-65556511D01*
X112129737Y-64820077D01*
X111970010Y-64529350D01*
X111788317Y-64178075D01*
X111600994Y-63800531D01*
X111424377Y-63430998D01*
X111274806Y-63103754D01*
X111168616Y-62853078D01*
X111122144Y-62713249D01*
X111121333Y-62704233D01*
X111202994Y-62695843D01*
X111435951Y-62688090D01*
X111802171Y-62681180D01*
X112283616Y-62675318D01*
X112862251Y-62670712D01*
X113520042Y-62667566D01*
X114238952Y-62666088D01*
X114465666Y-62666000D01*
X117810000Y-62666000D01*
X117810000Y-60634000D01*
X113894166Y-60632607D01*
X112978787Y-60632153D01*
X112217124Y-60631028D01*
X111593561Y-60628528D01*
X111092481Y-60623948D01*
X110698268Y-60616584D01*
X110395304Y-60605729D01*
X110167973Y-60590680D01*
X110000658Y-60570731D01*
X109877743Y-60545178D01*
X109783611Y-60513314D01*
X109702644Y-60474436D01*
X109641876Y-60440653D01*
X109305419Y-60250091D01*
X108643566Y-60987431D01*
X108643566Y-60987431D01*
G37*
X108643566Y-60987431D02*
X107981714Y-61724771D01*
X108354834Y-62068700D01*
X108522005Y-62241177D01*
X108677697Y-62449059D01*
X108839772Y-62722640D01*
X109026089Y-63092215D01*
X109254509Y-63588078D01*
X109266822Y-63615540D01*
X109511171Y-64138127D01*
X109792869Y-64704462D01*
X110079265Y-65250829D01*
X110337710Y-65713509D01*
X110369700Y-65767805D01*
X110933709Y-66717162D01*
X110202078Y-67295081D01*
X109934718Y-67518446D01*
X109574322Y-67837331D01*
X109147389Y-68227319D01*
X108680419Y-68663991D01*
X108199910Y-69122932D01*
X107872428Y-69441675D01*
X106274410Y-71010351D01*
X107068038Y-71842285D01*
X107861666Y-72674220D01*
X108495350Y-71924610D01*
X109066782Y-71271453D01*
X109684060Y-70605792D01*
X110310580Y-69965076D01*
X110909743Y-69386749D01*
X111436978Y-68915018D01*
X112133623Y-68323496D01*
X112823744Y-69052561D01*
X113883021Y-70070089D01*
X115055755Y-71000687D01*
X116359953Y-71857773D01*
X117305537Y-72391855D01*
X118113408Y-72822254D01*
X119673598Y-71255550D01*
X118381965Y-70601306D01*
X117431483Y-70090902D01*
X116599589Y-69575974D01*
X115838189Y-69022149D01*
X115099191Y-68395059D01*
X114505068Y-67830667D01*
X113758801Y-67054177D01*
X113130034Y-66310460D01*
X112584836Y-65556511D01*
X112129737Y-64820077D01*
X111970010Y-64529350D01*
X111788317Y-64178075D01*
X111600994Y-63800531D01*
X111424377Y-63430998D01*
X111274806Y-63103754D01*
X111168616Y-62853078D01*
X111122144Y-62713249D01*
X111121333Y-62704233D01*
X111202994Y-62695843D01*
X111435951Y-62688090D01*
X111802171Y-62681180D01*
X112283616Y-62675318D01*
X112862251Y-62670712D01*
X113520042Y-62667566D01*
X114238952Y-62666088D01*
X114465666Y-62666000D01*
X117810000Y-62666000D01*
X117810000Y-60634000D01*
X113894166Y-60632607D01*
X112978787Y-60632153D01*
X112217124Y-60631028D01*
X111593561Y-60628528D01*
X111092481Y-60623948D01*
X110698268Y-60616584D01*
X110395304Y-60605729D01*
X110167973Y-60590680D01*
X110000658Y-60570731D01*
X109877743Y-60545178D01*
X109783611Y-60513314D01*
X109702644Y-60474436D01*
X109641876Y-60440653D01*
X109305419Y-60250091D01*
X108643566Y-60987431D01*
G36*
X126573392Y-62433167D02*
G01*
X126819414Y-62910972D01*
X127130728Y-63516350D01*
X127495448Y-64226150D01*
X127901690Y-65017220D01*
X128337569Y-65866412D01*
X128791200Y-66750572D01*
X129250699Y-67646552D01*
X129704180Y-68531199D01*
X129853981Y-68823527D01*
X132076333Y-73160720D01*
X132943922Y-73162693D01*
X133811510Y-73164667D01*
X132753274Y-71111500D01*
X132507252Y-70633695D01*
X132195938Y-70028317D01*
X131831218Y-69318517D01*
X131424976Y-68527447D01*
X130989097Y-67678255D01*
X130535466Y-66794095D01*
X130075967Y-65898115D01*
X129622486Y-65013468D01*
X129472686Y-64721140D01*
X127250333Y-60383947D01*
X126382745Y-60381974D01*
X125515156Y-60380000D01*
X126573392Y-62433167D01*
X126573392Y-62433167D01*
G37*
X126573392Y-62433167D02*
X126819414Y-62910972D01*
X127130728Y-63516350D01*
X127495448Y-64226150D01*
X127901690Y-65017220D01*
X128337569Y-65866412D01*
X128791200Y-66750572D01*
X129250699Y-67646552D01*
X129704180Y-68531199D01*
X129853981Y-68823527D01*
X132076333Y-73160720D01*
X132943922Y-73162693D01*
X133811510Y-73164667D01*
X132753274Y-71111500D01*
X132507252Y-70633695D01*
X132195938Y-70028317D01*
X131831218Y-69318517D01*
X131424976Y-68527447D01*
X130989097Y-67678255D01*
X130535466Y-66794095D01*
X130075967Y-65898115D01*
X129622486Y-65013468D01*
X129472686Y-64721140D01*
X127250333Y-60383947D01*
X126382745Y-60381974D01*
X125515156Y-60380000D01*
X126573392Y-62433167D01*
G36*
X133516059Y-62433167D02*
G01*
X133762081Y-62910972D01*
X134073395Y-63516350D01*
X134438115Y-64226150D01*
X134844357Y-65017220D01*
X135280236Y-65866412D01*
X135733867Y-66750572D01*
X136193366Y-67646552D01*
X136646847Y-68531199D01*
X136796647Y-68823527D01*
X139019000Y-73160720D01*
X139886588Y-73162693D01*
X140754177Y-73164667D01*
X139695941Y-71111500D01*
X139449919Y-70633695D01*
X139138605Y-70028317D01*
X138773885Y-69318517D01*
X138367643Y-68527447D01*
X137931764Y-67678255D01*
X137478133Y-66794095D01*
X137018634Y-65898115D01*
X136565153Y-65013468D01*
X136415352Y-64721140D01*
X134193000Y-60383947D01*
X133325411Y-60381974D01*
X132457823Y-60380000D01*
X133516059Y-62433167D01*
X133516059Y-62433167D01*
G37*
X133516059Y-62433167D02*
X133762081Y-62910972D01*
X134073395Y-63516350D01*
X134438115Y-64226150D01*
X134844357Y-65017220D01*
X135280236Y-65866412D01*
X135733867Y-66750572D01*
X136193366Y-67646552D01*
X136646847Y-68531199D01*
X136796647Y-68823527D01*
X139019000Y-73160720D01*
X139886588Y-73162693D01*
X140754177Y-73164667D01*
X139695941Y-71111500D01*
X139449919Y-70633695D01*
X139138605Y-70028317D01*
X138773885Y-69318517D01*
X138367643Y-68527447D01*
X137931764Y-67678255D01*
X137478133Y-66794095D01*
X137018634Y-65898115D01*
X136565153Y-65013468D01*
X136415352Y-64721140D01*
X134193000Y-60383947D01*
X133325411Y-60381974D01*
X132457823Y-60380000D01*
X133516059Y-62433167D01*
G36*
X63009500Y-59705352D02*
G01*
X62812137Y-59720077D01*
X62509821Y-59755898D01*
X62149121Y-59805755D01*
X61776606Y-59862588D01*
X61438846Y-59919334D01*
X61182411Y-59968935D01*
X61062166Y-60000596D01*
X60931169Y-60115058D01*
X60947136Y-60267073D01*
X61083333Y-60399649D01*
X61151254Y-60454436D01*
X61198186Y-60538429D01*
X61227959Y-60680381D01*
X61244406Y-60909048D01*
X61251359Y-61253183D01*
X61252666Y-61670366D01*
X61252666Y-62835334D01*
X56257333Y-62835334D01*
X56257333Y-64613334D01*
X61252666Y-64613334D01*
X61253139Y-68232834D01*
X61255541Y-69235498D01*
X61262373Y-70103709D01*
X61273488Y-70831165D01*
X61288740Y-71411562D01*
X61307982Y-71838600D01*
X61331068Y-72105976D01*
X61344771Y-72180648D01*
X61478645Y-72496774D01*
X61696047Y-72745632D01*
X62014166Y-72935060D01*
X62450192Y-73072892D01*
X63021313Y-73166966D01*
X63620405Y-73218048D01*
X64522898Y-73272862D01*
X64904168Y-72262280D01*
X65285437Y-71251698D01*
X64856552Y-71313001D01*
X64333616Y-71369045D01*
X63890266Y-71379560D01*
X63553354Y-71345596D01*
X63349727Y-71268197D01*
X63333047Y-71253619D01*
X63298736Y-71202454D01*
X63270771Y-71113708D01*
X63248524Y-70971432D01*
X63231369Y-70759671D01*
X63218679Y-70462477D01*
X63209828Y-70063895D01*
X63204189Y-69547976D01*
X63201136Y-68898766D01*
X63200041Y-68100316D01*
X63200000Y-67866953D01*
X63200000Y-64613334D01*
X68280000Y-64613334D01*
X68280000Y-62835334D01*
X63200000Y-62835334D01*
X63200000Y-59702667D01*
X63009500Y-59705352D01*
X63009500Y-59705352D01*
G37*
X63009500Y-59705352D02*
X62812137Y-59720077D01*
X62509821Y-59755898D01*
X62149121Y-59805755D01*
X61776606Y-59862588D01*
X61438846Y-59919334D01*
X61182411Y-59968935D01*
X61062166Y-60000596D01*
X60931169Y-60115058D01*
X60947136Y-60267073D01*
X61083333Y-60399649D01*
X61151254Y-60454436D01*
X61198186Y-60538429D01*
X61227959Y-60680381D01*
X61244406Y-60909048D01*
X61251359Y-61253183D01*
X61252666Y-61670366D01*
X61252666Y-62835334D01*
X56257333Y-62835334D01*
X56257333Y-64613334D01*
X61252666Y-64613334D01*
X61253139Y-68232834D01*
X61255541Y-69235498D01*
X61262373Y-70103709D01*
X61273488Y-70831165D01*
X61288740Y-71411562D01*
X61307982Y-71838600D01*
X61331068Y-72105976D01*
X61344771Y-72180648D01*
X61478645Y-72496774D01*
X61696047Y-72745632D01*
X62014166Y-72935060D01*
X62450192Y-73072892D01*
X63021313Y-73166966D01*
X63620405Y-73218048D01*
X64522898Y-73272862D01*
X64904168Y-72262280D01*
X65285437Y-71251698D01*
X64856552Y-71313001D01*
X64333616Y-71369045D01*
X63890266Y-71379560D01*
X63553354Y-71345596D01*
X63349727Y-71268197D01*
X63333047Y-71253619D01*
X63298736Y-71202454D01*
X63270771Y-71113708D01*
X63248524Y-70971432D01*
X63231369Y-70759671D01*
X63218679Y-70462477D01*
X63209828Y-70063895D01*
X63204189Y-69547976D01*
X63201136Y-68898766D01*
X63200041Y-68100316D01*
X63200000Y-67866953D01*
X63200000Y-64613334D01*
X68280000Y-64613334D01*
X68280000Y-62835334D01*
X63200000Y-62835334D01*
X63200000Y-59702667D01*
X63009500Y-59705352D01*
G36*
X154920229Y-59551733D02*
G01*
X154672374Y-59595905D01*
X154337417Y-59658991D01*
X153954175Y-59733330D01*
X153561465Y-59811258D01*
X153198102Y-59885113D01*
X152902903Y-59947231D01*
X152714685Y-59989950D01*
X152671500Y-60002135D01*
X152544132Y-60095331D01*
X152556956Y-60235342D01*
X152712599Y-60440944D01*
X152736435Y-60466165D01*
X152949537Y-60688595D01*
X152904333Y-65156021D01*
X152533179Y-64586231D01*
X152369211Y-64335167D01*
X152240015Y-64171089D01*
X152112187Y-64091157D01*
X151952324Y-64092533D01*
X151727024Y-64172374D01*
X151402882Y-64327842D01*
X151126333Y-64466620D01*
X150265162Y-64934360D01*
X149342087Y-65501279D01*
X148403385Y-66136285D01*
X147495334Y-66808285D01*
X146781911Y-67385554D01*
X146501489Y-67623217D01*
X147189190Y-68492279D01*
X147876892Y-69361342D01*
X148071560Y-69209838D01*
X148211572Y-69096633D01*
X148447357Y-68901602D01*
X148745571Y-68652473D01*
X149061281Y-68386768D01*
X149874572Y-67745220D01*
X150747565Y-67137154D01*
X151620875Y-66602324D01*
X152155603Y-66315284D01*
X152464720Y-66162432D01*
X152714269Y-66043892D01*
X152867590Y-65976847D01*
X152896436Y-65968000D01*
X152906898Y-66049818D01*
X152916622Y-66283881D01*
X152925377Y-66653099D01*
X152932934Y-67140384D01*
X152939062Y-67728649D01*
X152943531Y-68400803D01*
X152946109Y-69139760D01*
X152946666Y-69693334D01*
X152946666Y-73418667D01*
X155063333Y-73418667D01*
X155063333Y-66476000D01*
X155063081Y-65408154D01*
X155062352Y-64390471D01*
X155061182Y-63435469D01*
X155059610Y-62555661D01*
X155057675Y-61763566D01*
X155055415Y-61071697D01*
X155052867Y-60492571D01*
X155050070Y-60038703D01*
X155047062Y-59722610D01*
X155043881Y-59556807D01*
X155042166Y-59534139D01*
X154920229Y-59551733D01*
X154920229Y-59551733D01*
G37*
X154920229Y-59551733D02*
X154672374Y-59595905D01*
X154337417Y-59658991D01*
X153954175Y-59733330D01*
X153561465Y-59811258D01*
X153198102Y-59885113D01*
X152902903Y-59947231D01*
X152714685Y-59989950D01*
X152671500Y-60002135D01*
X152544132Y-60095331D01*
X152556956Y-60235342D01*
X152712599Y-60440944D01*
X152736435Y-60466165D01*
X152949537Y-60688595D01*
X152904333Y-65156021D01*
X152533179Y-64586231D01*
X152369211Y-64335167D01*
X152240015Y-64171089D01*
X152112187Y-64091157D01*
X151952324Y-64092533D01*
X151727024Y-64172374D01*
X151402882Y-64327842D01*
X151126333Y-64466620D01*
X150265162Y-64934360D01*
X149342087Y-65501279D01*
X148403385Y-66136285D01*
X147495334Y-66808285D01*
X146781911Y-67385554D01*
X146501489Y-67623217D01*
X147189190Y-68492279D01*
X147876892Y-69361342D01*
X148071560Y-69209838D01*
X148211572Y-69096633D01*
X148447357Y-68901602D01*
X148745571Y-68652473D01*
X149061281Y-68386768D01*
X149874572Y-67745220D01*
X150747565Y-67137154D01*
X151620875Y-66602324D01*
X152155603Y-66315284D01*
X152464720Y-66162432D01*
X152714269Y-66043892D01*
X152867590Y-65976847D01*
X152896436Y-65968000D01*
X152906898Y-66049818D01*
X152916622Y-66283881D01*
X152925377Y-66653099D01*
X152932934Y-67140384D01*
X152939062Y-67728649D01*
X152943531Y-68400803D01*
X152946109Y-69139760D01*
X152946666Y-69693334D01*
X152946666Y-73418667D01*
X155063333Y-73418667D01*
X155063333Y-66476000D01*
X155063081Y-65408154D01*
X155062352Y-64390471D01*
X155061182Y-63435469D01*
X155059610Y-62555661D01*
X155057675Y-61763566D01*
X155055415Y-61071697D01*
X155052867Y-60492571D01*
X155050070Y-60038703D01*
X155047062Y-59722610D01*
X155043881Y-59556807D01*
X155042166Y-59534139D01*
X154920229Y-59551733D01*
G36*
X194050366Y-60763802D02*
G01*
X193937816Y-60828536D01*
X193770809Y-60960653D01*
X193527552Y-61173710D01*
X193186249Y-61481265D01*
X193054792Y-61600026D01*
X192311252Y-62271352D01*
X192558480Y-62532176D01*
X192679354Y-62666545D01*
X192784985Y-62806628D01*
X192888549Y-62978473D01*
X193003224Y-63208133D01*
X193142188Y-63521657D01*
X193318619Y-63945094D01*
X193504155Y-64401667D01*
X194182941Y-65941342D01*
X194918520Y-67332053D01*
X195722841Y-68588126D01*
X196607852Y-69723884D01*
X197585502Y-70753651D01*
X198667740Y-71691752D01*
X199866513Y-72552511D01*
X200766703Y-73108156D01*
X201027619Y-73258001D01*
X201222814Y-73366400D01*
X201314642Y-73412512D01*
X201317036Y-73412841D01*
X201385026Y-73360439D01*
X201560700Y-73220306D01*
X201820321Y-73011496D01*
X202140154Y-72753064D01*
X202279413Y-72640243D01*
X203225159Y-71873470D01*
X202454656Y-71498459D01*
X201145864Y-70768344D01*
X199928576Y-69900037D01*
X198811002Y-68902774D01*
X197801351Y-67785792D01*
X196907832Y-66558331D01*
X196138657Y-65229627D01*
X195502034Y-63808918D01*
X195413940Y-63576167D01*
X195202922Y-63004667D01*
X204508666Y-63004667D01*
X204508666Y-60972667D01*
X199489839Y-60972667D01*
X198430583Y-60972274D01*
X197527763Y-60970876D01*
X196768481Y-60968138D01*
X196139841Y-60963728D01*
X195628946Y-60957315D01*
X195222899Y-60948565D01*
X194908804Y-60937146D01*
X194673763Y-60922725D01*
X194504880Y-60904970D01*
X194389258Y-60883548D01*
X194314000Y-60858127D01*
X194279202Y-60838318D01*
X194199265Y-60782251D01*
X194130251Y-60752893D01*
X194050366Y-60763802D01*
X194050366Y-60763802D01*
G37*
X194050366Y-60763802D02*
X193937816Y-60828536D01*
X193770809Y-60960653D01*
X193527552Y-61173710D01*
X193186249Y-61481265D01*
X193054792Y-61600026D01*
X192311252Y-62271352D01*
X192558480Y-62532176D01*
X192679354Y-62666545D01*
X192784985Y-62806628D01*
X192888549Y-62978473D01*
X193003224Y-63208133D01*
X193142188Y-63521657D01*
X193318619Y-63945094D01*
X193504155Y-64401667D01*
X194182941Y-65941342D01*
X194918520Y-67332053D01*
X195722841Y-68588126D01*
X196607852Y-69723884D01*
X197585502Y-70753651D01*
X198667740Y-71691752D01*
X199866513Y-72552511D01*
X200766703Y-73108156D01*
X201027619Y-73258001D01*
X201222814Y-73366400D01*
X201314642Y-73412512D01*
X201317036Y-73412841D01*
X201385026Y-73360439D01*
X201560700Y-73220306D01*
X201820321Y-73011496D01*
X202140154Y-72753064D01*
X202279413Y-72640243D01*
X203225159Y-71873470D01*
X202454656Y-71498459D01*
X201145864Y-70768344D01*
X199928576Y-69900037D01*
X198811002Y-68902774D01*
X197801351Y-67785792D01*
X196907832Y-66558331D01*
X196138657Y-65229627D01*
X195502034Y-63808918D01*
X195413940Y-63576167D01*
X195202922Y-63004667D01*
X204508666Y-63004667D01*
X204508666Y-60972667D01*
X199489839Y-60972667D01*
X198430583Y-60972274D01*
X197527763Y-60970876D01*
X196768481Y-60968138D01*
X196139841Y-60963728D01*
X195628946Y-60957315D01*
X195222899Y-60948565D01*
X194908804Y-60937146D01*
X194673763Y-60922725D01*
X194504880Y-60904970D01*
X194389258Y-60883548D01*
X194314000Y-60858127D01*
X194279202Y-60838318D01*
X194199265Y-60782251D01*
X194130251Y-60752893D01*
X194050366Y-60763802D01*
G36*
X162238833Y-63487032D02*
G01*
X161854483Y-63611320D01*
X161525167Y-63725884D01*
X161287443Y-63817477D01*
X161180500Y-63870514D01*
X161080410Y-64027394D01*
X161133790Y-64171052D01*
X161243221Y-64232086D01*
X161357407Y-64321711D01*
X161466870Y-64530116D01*
X161584251Y-64881582D01*
X161587844Y-64893958D01*
X161957931Y-66078053D01*
X162344600Y-67120027D01*
X162760086Y-68047038D01*
X163216622Y-68886241D01*
X163726443Y-69664794D01*
X163754972Y-69704590D01*
X164257376Y-70331162D01*
X164876401Y-70989044D01*
X165573346Y-71642100D01*
X166309509Y-72254198D01*
X167046189Y-72789202D01*
X167090021Y-72818367D01*
X167458750Y-73059781D01*
X167776787Y-73263180D01*
X168017923Y-73412173D01*
X168155950Y-73490373D01*
X168177130Y-73498147D01*
X168257231Y-73442574D01*
X168434379Y-73295983D01*
X168680871Y-73081862D01*
X168918343Y-72869626D01*
X169607687Y-72246292D01*
X169370641Y-72148104D01*
X169086680Y-72008018D01*
X168706374Y-71788893D01*
X168267489Y-71515071D01*
X167807790Y-71210894D01*
X167365046Y-70900704D01*
X166977021Y-70608843D01*
X166953060Y-70589867D01*
X166021931Y-69742662D01*
X165215463Y-68781490D01*
X164535307Y-67708755D01*
X163983113Y-66526862D01*
X163778965Y-65966469D01*
X163644395Y-65532024D01*
X163511782Y-65046615D01*
X163390728Y-64552031D01*
X163290835Y-64090061D01*
X163221703Y-63702493D01*
X163192936Y-63431117D01*
X163192660Y-63414719D01*
X163191333Y-63189770D01*
X162238833Y-63487032D01*
X162238833Y-63487032D01*
G37*
X162238833Y-63487032D02*
X161854483Y-63611320D01*
X161525167Y-63725884D01*
X161287443Y-63817477D01*
X161180500Y-63870514D01*
X161080410Y-64027394D01*
X161133790Y-64171052D01*
X161243221Y-64232086D01*
X161357407Y-64321711D01*
X161466870Y-64530116D01*
X161584251Y-64881582D01*
X161587844Y-64893958D01*
X161957931Y-66078053D01*
X162344600Y-67120027D01*
X162760086Y-68047038D01*
X163216622Y-68886241D01*
X163726443Y-69664794D01*
X163754972Y-69704590D01*
X164257376Y-70331162D01*
X164876401Y-70989044D01*
X165573346Y-71642100D01*
X166309509Y-72254198D01*
X167046189Y-72789202D01*
X167090021Y-72818367D01*
X167458750Y-73059781D01*
X167776787Y-73263180D01*
X168017923Y-73412173D01*
X168155950Y-73490373D01*
X168177130Y-73498147D01*
X168257231Y-73442574D01*
X168434379Y-73295983D01*
X168680871Y-73081862D01*
X168918343Y-72869626D01*
X169607687Y-72246292D01*
X169370641Y-72148104D01*
X169086680Y-72008018D01*
X168706374Y-71788893D01*
X168267489Y-71515071D01*
X167807790Y-71210894D01*
X167365046Y-70900704D01*
X166977021Y-70608843D01*
X166953060Y-70589867D01*
X166021931Y-69742662D01*
X165215463Y-68781490D01*
X164535307Y-67708755D01*
X163983113Y-66526862D01*
X163778965Y-65966469D01*
X163644395Y-65532024D01*
X163511782Y-65046615D01*
X163390728Y-64552031D01*
X163290835Y-64090061D01*
X163221703Y-63702493D01*
X163192936Y-63431117D01*
X163192660Y-63414719D01*
X163191333Y-63189770D01*
X162238833Y-63487032D01*
G36*
X176782375Y-64172779D02*
G01*
X176081308Y-64907745D01*
X176438515Y-65305046D01*
X176685893Y-65638606D01*
X176952829Y-66102656D01*
X177199923Y-66618340D01*
X177850693Y-67965214D01*
X178552798Y-69161610D01*
X179319982Y-70222161D01*
X180165995Y-71161498D01*
X181104584Y-71994253D01*
X182149495Y-72735057D01*
X183314477Y-73398542D01*
X183790613Y-73633012D01*
X184125274Y-73789520D01*
X184400592Y-73914479D01*
X184582433Y-73992622D01*
X184636609Y-74011334D01*
X184713006Y-73956994D01*
X184888026Y-73808447D01*
X185136855Y-73587404D01*
X185434676Y-73315574D01*
X185482945Y-73270923D01*
X186281931Y-72530512D01*
X185637465Y-72273839D01*
X184862433Y-71930873D01*
X184081554Y-71523398D01*
X183357740Y-71086070D01*
X182895491Y-70763338D01*
X182362548Y-70323017D01*
X181797082Y-69788599D01*
X181243990Y-69207085D01*
X180748166Y-68625479D01*
X180381765Y-68131592D01*
X180137522Y-67742974D01*
X179880683Y-67289870D01*
X179635361Y-66819283D01*
X179425666Y-66378215D01*
X179275712Y-66013667D01*
X179239264Y-65904500D01*
X179181922Y-65714000D01*
X188252666Y-65714000D01*
X188252666Y-63766667D01*
X183190569Y-63766667D01*
X182136224Y-63766469D01*
X181237746Y-63765600D01*
X180481669Y-63763649D01*
X179854526Y-63760206D01*
X179342850Y-63754858D01*
X178933175Y-63747195D01*
X178612035Y-63736805D01*
X178365964Y-63723278D01*
X178181495Y-63706201D01*
X178045161Y-63685164D01*
X177943497Y-63659756D01*
X177863036Y-63629565D01*
X177805957Y-63602240D01*
X177483443Y-63437813D01*
X176782375Y-64172779D01*
X176782375Y-64172779D01*
G37*
X176782375Y-64172779D02*
X176081308Y-64907745D01*
X176438515Y-65305046D01*
X176685893Y-65638606D01*
X176952829Y-66102656D01*
X177199923Y-66618340D01*
X177850693Y-67965214D01*
X178552798Y-69161610D01*
X179319982Y-70222161D01*
X180165995Y-71161498D01*
X181104584Y-71994253D01*
X182149495Y-72735057D01*
X183314477Y-73398542D01*
X183790613Y-73633012D01*
X184125274Y-73789520D01*
X184400592Y-73914479D01*
X184582433Y-73992622D01*
X184636609Y-74011334D01*
X184713006Y-73956994D01*
X184888026Y-73808447D01*
X185136855Y-73587404D01*
X185434676Y-73315574D01*
X185482945Y-73270923D01*
X186281931Y-72530512D01*
X185637465Y-72273839D01*
X184862433Y-71930873D01*
X184081554Y-71523398D01*
X183357740Y-71086070D01*
X182895491Y-70763338D01*
X182362548Y-70323017D01*
X181797082Y-69788599D01*
X181243990Y-69207085D01*
X180748166Y-68625479D01*
X180381765Y-68131592D01*
X180137522Y-67742974D01*
X179880683Y-67289870D01*
X179635361Y-66819283D01*
X179425666Y-66378215D01*
X179275712Y-66013667D01*
X179239264Y-65904500D01*
X179181922Y-65714000D01*
X188252666Y-65714000D01*
X188252666Y-63766667D01*
X183190569Y-63766667D01*
X182136224Y-63766469D01*
X181237746Y-63765600D01*
X180481669Y-63763649D01*
X179854526Y-63760206D01*
X179342850Y-63754858D01*
X178933175Y-63747195D01*
X178612035Y-63736805D01*
X178365964Y-63723278D01*
X178181495Y-63706201D01*
X178045161Y-63685164D01*
X177943497Y-63659756D01*
X177863036Y-63629565D01*
X177805957Y-63602240D01*
X177483443Y-63437813D01*
X176782375Y-64172779D01*
%LPC*%
D11*
X4000000Y-4000000D03*
X4000000Y-18000000D03*
X224000000Y-4000000D03*
X224000000Y-18000000D03*
X19000000Y-60000000D03*
X57000000Y-41000000D03*
X57000000Y-79000000D03*
X171000000Y-41000000D03*
X171000000Y-79000000D03*
X209000000Y-60000000D03*
M02*
