M48
; DRILL file {KiCad (5.1.2)-1} date 6/13/2020 8:24:10 PM
; FORMAT={3:3/ absolute / metric / suppress leading zeros}
; #@! TF.CreationDate,2020-06-13T20:24:10-05:00
; #@! TF.GenerationSoftware,Kicad,Pcbnew,(5.1.2)-1
FMAT,2
METRIC,TZ
T1C0.400
T2C0.600
T3C0.700
T4C0.800
T5C0.900
T6C1.000
T7C1.100
T8C1.470
T9C1.500
T10C2.200
T11C1.700
T12C1.750
T13C3.048
T14C3.988
T15C4.000
%
G90
G05
T1
X195760Y-7295
X195765Y-8620
X196610Y-7295
X196615Y-8620
X197460Y-7295
X197465Y-8620
X198310Y-7295
X198315Y-8620
X199160Y-7295
X199165Y-8620
X200010Y-7295
X200015Y-8620
X200860Y-7295
X200865Y-8620
X201715Y-7295
X201715Y-8620
T2
X2000Y-10000
X2000Y-22000
X2000Y-41000
X2000Y-60000
X2000Y-79000
X2000Y-96000
X13970Y-7874
X19000Y-96000
X26416Y-38735
X29210Y-18923
X38000Y-96000
X41021Y-22860
X43434Y-38862
X49530Y-18288
X56007Y-22098
X57000Y-96000
X57277Y-36957
X59690Y-25400
X64516Y-26289
X69850Y-21209
X72771Y-42164
X76000Y-96000
X77089Y-36830
X79629Y-22225
X82423Y-41529
X90297Y-28702
X90424Y-36957
X90424Y-40005
X95000Y-96000
X95250Y-63373
X98806Y-25781
X103886Y-83947
X108966Y-39116
X109347Y-28575
X109347Y-41783
X113731Y-75794
X114000Y-96000
X120650Y-20955
X120650Y-44958
X123068Y-84038
X124714Y-22098
X128524Y-41529
X128524Y-43434
X129286Y-17907
X132461Y-45085
X133000Y-96000
X133096Y-23876
X133350Y-33528
X134239Y-12954
X138049Y-33528
X138303Y-44196
X141510Y-11430
X143256Y-22479
X143510Y-41402
X147574Y-38989
X147800Y-27500
X149860Y-12446
X149860Y-25400
X152000Y-96000
X154813Y-34290
X155829Y-1651
X155829Y-5080
X158115Y-1651
X160655Y-15621
X161925Y-1651
X165735Y-1651
X169672Y-1651
X170561Y-53594
X171000Y-96000
X171323Y-49657
X172339Y-13843
X173355Y-1651
X175133Y-41148
X177927Y-13335
X183515Y-7620
X183700Y-20600
X184785Y-13335
X185674Y-45212
X187325Y-20574
X187500Y-23000
X189738Y-34925
X189865Y-20574
X190000Y-96000
X191135Y-12954
X193675Y-12700
X193900Y-21900
X194940Y-10420
X195199Y-16510
X198501Y-12700
X198755Y-3683
X204978Y-2286
X209000Y-96000
X211074Y-47498
X212184Y-55194
X226000Y-10000
X226000Y-22000
X226000Y-41000
X226000Y-60000
X226000Y-79000
X226000Y-96000
X196215Y-12700
X196215Y-14200
T3
X33020Y-11430
X33020Y-16510
X91440Y-10160
X91440Y-15240
X43180Y-11430
X43180Y-16510
X15240Y-12700
X15240Y-17780
X81280Y-10160
X81280Y-15240
X194805Y-20370
X199885Y-20370
X20320Y-10160
X20320Y-15240
X200660Y-12680
X200660Y-17780
X101600Y-10160
X101600Y-15240
X111760Y-10160
X111760Y-15240
X93980Y-11430
X93980Y-16510
X188595Y-2540
X188595Y-7620
X7620Y-8890
X7620Y-13970
X109220Y-8890
X109220Y-13970
X66040Y-12700
X66040Y-17780
X68580Y-8890
X68580Y-13970
X119380Y-8890
X119380Y-13970
X96520Y-12700
X96520Y-17780
X60960Y-10160
X60960Y-15240
X12700Y-11430
X12700Y-16510
X124460Y-11430
X124460Y-16510
X114300Y-11430
X114300Y-16510
X73660Y-11430
X73660Y-16510
X17780Y-8890
X17780Y-13970
X63500Y-11430
X63500Y-16510
X25400Y-12700
X25400Y-17780
X78740Y-8890
X78740Y-13970
X106680Y-12700
X106680Y-17780
X180975Y-7620
X186055Y-7620
X35560Y-12700
X35560Y-17780
X121920Y-10160
X121920Y-15240
X213995Y-12700
X219075Y-12700
X138430Y-11430
X138430Y-16510
X48260Y-8890
X48260Y-13970
X213995Y-15240
X219075Y-15240
X76200Y-12700
X76200Y-17780
X88900Y-8890
X88900Y-13970
X55880Y-12700
X55880Y-17780
X50800Y-10160
X50800Y-15240
X213995Y-17780
X219075Y-17780
X191135Y-2540
X191135Y-7620
X53340Y-11430
X53340Y-16510
X22860Y-11430
X22860Y-16510
X30480Y-10160
X30480Y-15240
X71120Y-10160
X71120Y-15240
X127000Y-12700
X127000Y-17780
X38100Y-8890
X38100Y-13970
X213995Y-20320
X219075Y-20320
X10160Y-10160
X10160Y-15240
X180975Y-2540
X186055Y-2540
X99060Y-8890
X99060Y-13970
X83820Y-11430
X83820Y-16510
X180975Y-5080
X186055Y-5080
X27940Y-8890
X27940Y-13970
X45720Y-12700
X45720Y-17780
X58420Y-8890
X58420Y-13970
X86360Y-12700
X86360Y-17780
X40640Y-10160
X40640Y-15240
X202210Y-20370
X207290Y-20370
X116840Y-12700
X116840Y-17780
X104140Y-11430
X104140Y-16510
T4
X145542Y-22352
X175895Y-14859
X163295Y-5715
X168175Y-5715
X146050Y-16510
X146050Y-19050
X148590Y-16510
X148590Y-19050
X151130Y-16510
X151130Y-19050
X170815Y-20320
X173315Y-20320
X158115Y-5080
X158115Y-7580
X158115Y-10160
X158115Y-17780
X160655Y-10160
X160655Y-17780
X163195Y-10160
X163195Y-17780
X165735Y-10160
X165735Y-17780
X168275Y-10160
X168275Y-17780
X170815Y-10160
X170815Y-17780
X173355Y-10160
X173355Y-17780
X175895Y-10160
X175895Y-17780
X178435Y-10160
X178435Y-17780
X180975Y-10160
X180975Y-17780
X183515Y-10160
X183515Y-17780
X186055Y-10160
X186055Y-17780
X188595Y-10160
X188595Y-17780
X191135Y-10160
X191135Y-17780
X175895Y-5120
X175895Y-7620
X173355Y-5080
X173355Y-7580
T5
X215265Y-8255
X217805Y-8255
X208915Y-8255
X211455Y-8255
T6
X209550Y-2540
X212090Y-2540
X214630Y-2540
X217170Y-2540
T7
X131930Y-3810
X131930Y-8310
X138430Y-3810
X138430Y-8310
X144630Y-3810
X144630Y-8310
X151130Y-3810
X151130Y-8310
T8
X91140Y-85960
X97490Y-83420
X129240Y-85960
X135590Y-83420
X110190Y-85960
X116540Y-83420
T9
X214690Y-85960
X221040Y-83420
X119690Y-66960
X126040Y-64420
X157690Y-85960
X164040Y-83420
X138690Y-28960
X145040Y-26420
X5690Y-66960
X12040Y-64420
X195690Y-66960
X202040Y-64420
X5690Y-85960
X12040Y-83420
X24690Y-28960
X31040Y-26420
X100690Y-85960
X107040Y-83420
X5690Y-47960
X12040Y-45420
X62690Y-85960
X69040Y-83420
X81690Y-28960
X88040Y-26420
X100690Y-47960
X107040Y-45420
X195690Y-47960
X202040Y-45420
X100690Y-28960
X107040Y-26420
X24690Y-66960
X31040Y-64420
X138690Y-66960
X145040Y-64420
X157690Y-28960
X164040Y-26420
X81690Y-66960
X88040Y-64420
X119690Y-85960
X126040Y-83420
X214690Y-66960
X221040Y-64420
X24690Y-85960
X31040Y-83420
X62690Y-66960
X69040Y-64420
X176690Y-85960
X183040Y-83420
X5690Y-28960
X12040Y-26420
X62690Y-47960
X69040Y-45420
X24690Y-47960
X31040Y-45420
X195690Y-28960
X202040Y-26420
X138690Y-47960
X145040Y-45420
X176690Y-47960
X183040Y-45420
X43690Y-47960
X50040Y-45420
X43690Y-66960
X50040Y-64420
X176690Y-66960
X183040Y-64420
X195690Y-85960
X202040Y-83420
X119690Y-28960
X126040Y-26420
X100690Y-66960
X107040Y-64420
X157690Y-66960
X164040Y-64420
X157690Y-47960
X164040Y-45420
X43690Y-85960
X50040Y-83420
X62690Y-28960
X69040Y-26420
X214690Y-28960
X221040Y-26420
X43690Y-28960
X50040Y-26420
X81690Y-47960
X88040Y-45420
X119690Y-47960
X126040Y-45420
X81690Y-85960
X88040Y-83420
X176690Y-28960
X183040Y-26420
X138690Y-85960
X145040Y-83420
X214690Y-47960
X221040Y-45420
T10
X209000Y-60000
X57000Y-79000
X57000Y-41000
X171000Y-79000
X224000Y-4000
X224000Y-18000
X19000Y-60000
X4000Y-4000
X171000Y-41000
X4000Y-18000
T11
X194420Y-88500
X204580Y-88500
X118420Y-31500
X128580Y-31500
X99420Y-69500
X109580Y-69500
X156420Y-69500
X166580Y-69500
X156420Y-50500
X166580Y-50500
X42420Y-88500
X52580Y-88500
X61420Y-31500
X71580Y-31500
X213420Y-31500
X223580Y-31500
X42420Y-31500
X52580Y-31500
X80420Y-50500
X90580Y-50500
X118420Y-50500
X128580Y-50500
X80420Y-88500
X90580Y-88500
X175420Y-31500
X185580Y-31500
X137420Y-88500
X147580Y-88500
X213420Y-50500
X223580Y-50500
X213420Y-88500
X223580Y-88500
X118420Y-69500
X128580Y-69500
X156420Y-88500
X166580Y-88500
X137420Y-31500
X147580Y-31500
X4420Y-69500
X14580Y-69500
X194420Y-69500
X204580Y-69500
X4420Y-88500
X14580Y-88500
X23420Y-31500
X33580Y-31500
X99420Y-88500
X109580Y-88500
X4420Y-50500
X14580Y-50500
X61420Y-88500
X71580Y-88500
X80420Y-31500
X90580Y-31500
X99420Y-50500
X109580Y-50500
X194420Y-50500
X204580Y-50500
X99420Y-31500
X109580Y-31500
X23420Y-69500
X33580Y-69500
X137420Y-69500
X147580Y-69500
X156420Y-31500
X166580Y-31500
X80420Y-69500
X90580Y-69500
X118420Y-88500
X128580Y-88500
X213420Y-69500
X223580Y-69500
X23420Y-88500
X33580Y-88500
X61420Y-69500
X71580Y-69500
X175420Y-88500
X185580Y-88500
X4420Y-31500
X14580Y-31500
X61420Y-50500
X71580Y-50500
X23420Y-50500
X33580Y-50500
X194420Y-31500
X204580Y-31500
X137420Y-50500
X147580Y-50500
X175420Y-50500
X185580Y-50500
X42420Y-50500
X52580Y-50500
X42420Y-69500
X52580Y-69500
X175420Y-69500
X185580Y-69500
T12
X89870Y-88500
X100030Y-88500
X127970Y-88500
X138130Y-88500
X108920Y-88500
X119080Y-88500
T13
X83044Y-95485
X106856Y-95485
X121144Y-95485
X144956Y-95485
X102094Y-95485
X125906Y-95485
T14
X83044Y-80245
X94950Y-88500
X106856Y-80245
X121144Y-80245
X133050Y-88500
X144956Y-80245
X102094Y-80245
X114000Y-88500
X125906Y-80245
T15
X28500Y-88500
X66500Y-69500
X180500Y-88500
X9500Y-31500
X66500Y-50500
X28500Y-50500
X199500Y-31500
X142500Y-50500
X180500Y-50500
X47500Y-50500
X47500Y-69500
X180500Y-69500
X199500Y-88500
X123500Y-31500
X104500Y-69500
X161500Y-69500
X161500Y-50500
X47500Y-88500
X66500Y-31500
X218500Y-31500
X47500Y-31500
X85500Y-50500
X123500Y-50500
X85500Y-88500
X180500Y-31500
X142500Y-88500
X218500Y-50500
X218500Y-88500
X123500Y-69500
X161500Y-88500
X142500Y-31500
X9500Y-69500
X199500Y-69500
X9500Y-88500
X28500Y-31500
X104500Y-88500
X9500Y-50500
X66500Y-88500
X85500Y-31500
X104500Y-50500
X199500Y-50500
X104500Y-31500
X28500Y-69500
X142500Y-69500
X161500Y-31500
X85500Y-69500
X123500Y-88500
X218500Y-69500
T2
G00X194415Y-4660
M15
G01X194415Y-3860
M16
G05
G00X194415Y-8390
M15
G01X194415Y-6890
M16
G05
G00X203065Y-4660
M15
G01X203065Y-3860
M16
G05
G00X203065Y-8390
M15
G01X203065Y-6890
M16
G05
T0
M30
